%TF.GenerationSoftware,KiCad,Pcbnew,(6.0.7)*%
%TF.CreationDate,2023-04-08T23:38:01+02:00*%
%TF.ProjectId,hb-uni-644_328P_small,68622d75-6e69-42d3-9634-345f33323850,rev?*%
%TF.SameCoordinates,Original*%
%TF.FileFunction,Drillmap*%
%TF.FilePolarity,Positive*%
%FSLAX45Y45*%
G04 Gerber Fmt 4.5, Leading zero omitted, Abs format (unit mm)*
G04 Created by KiCad (PCBNEW (6.0.7)) date 2023-04-08 23:38:01*
%MOMM*%
%LPD*%
G01*
G04 APERTURE LIST*
%ADD10C,0.150000*%
%ADD11C,0.200000*%
%ADD12C,0.040000*%
%ADD13C,0.090000*%
%ADD14C,0.100000*%
%ADD15C,0.320000*%
G04 APERTURE END LIST*
D10*
X2870200Y-6731000D02*
G75*
G03*
X2921000Y-6680200I0J50800D01*
G01*
X2768603Y-9498697D02*
G75*
G03*
X2895600Y-9625697I126997J-3D01*
G01*
X7493000Y-9626600D02*
X2895600Y-9625697D01*
X2895600Y-4775200D02*
G75*
G03*
X2768600Y-4902200I0J-127000D01*
G01*
X2895600Y-4775200D02*
X7493000Y-4775200D01*
X2844800Y-5918200D02*
X2870200Y-5918200D01*
X2921000Y-5969000D02*
G75*
G03*
X2870200Y-5918200I-50800J0D01*
G01*
X7620000Y-4902200D02*
G75*
G03*
X7493000Y-4775200I-127000J0D01*
G01*
X2921000Y-5969000D02*
X2921000Y-6680200D01*
X2768600Y-9498697D02*
X2768600Y-6807200D01*
X2844800Y-6731000D02*
X2870200Y-6731000D01*
X7620000Y-4902200D02*
X7620000Y-9499600D01*
X7493000Y-9626600D02*
G75*
G03*
X7620000Y-9499600I0J127000D01*
G01*
X2768600Y-5842000D02*
G75*
G03*
X2844800Y-5918200I76200J0D01*
G01*
X2844800Y-6731000D02*
G75*
G03*
X2768600Y-6807200I0J-76200D01*
G01*
X2768600Y-5842000D02*
X2768600Y-4902200D01*
D11*
D12*
X3365030Y-8566490D02*
X3405030Y-8606490D01*
X3405030Y-8566490D02*
X3365030Y-8606490D01*
X4038150Y-7576190D02*
X4078150Y-7616190D01*
X4078150Y-7576190D02*
X4038150Y-7616190D01*
X4102830Y-8166700D02*
X4142830Y-8206700D01*
X4142830Y-8166700D02*
X4102830Y-8206700D01*
X4278480Y-8685910D02*
X4318480Y-8725910D01*
X4318480Y-8685910D02*
X4278480Y-8725910D01*
X4288240Y-8538420D02*
X4328240Y-8578420D01*
X4328240Y-8538420D02*
X4288240Y-8578420D01*
X4479130Y-7510870D02*
X4519130Y-7550870D01*
X4519130Y-7510870D02*
X4479130Y-7550870D01*
X4503000Y-4966730D02*
X4543000Y-5006730D01*
X4543000Y-4966730D02*
X4503000Y-5006730D01*
X4700000Y-7590520D02*
X4740000Y-7630520D01*
X4740000Y-7590520D02*
X4700000Y-7630520D01*
X4712260Y-7472730D02*
X4752260Y-7512730D01*
X4752260Y-7472730D02*
X4712260Y-7512730D01*
X4753030Y-8902880D02*
X4793030Y-8942880D01*
X4793030Y-8902880D02*
X4753030Y-8942880D01*
X4830840Y-7588490D02*
X4870840Y-7628490D01*
X4870840Y-7588490D02*
X4830840Y-7628490D01*
X4851620Y-7447620D02*
X4891620Y-7487620D01*
X4891620Y-7447620D02*
X4851620Y-7487620D01*
X4878450Y-8878760D02*
X4918450Y-8918760D01*
X4918450Y-8878760D02*
X4878450Y-8918760D01*
X4907990Y-6351680D02*
X4947990Y-6391680D01*
X4947990Y-6351680D02*
X4907990Y-6391680D01*
X5034600Y-6342700D02*
X5074600Y-6382700D01*
X5074600Y-6342700D02*
X5034600Y-6382700D01*
X5148900Y-6478550D02*
X5188900Y-6518550D01*
X5188900Y-6478550D02*
X5148900Y-6518550D01*
X5303500Y-6076000D02*
X5343500Y-6116000D01*
X5343500Y-6076000D02*
X5303500Y-6116000D01*
X5434480Y-6264740D02*
X5474480Y-6304740D01*
X5474480Y-6264740D02*
X5434480Y-6304740D01*
X5468320Y-5684010D02*
X5508320Y-5724010D01*
X5508320Y-5684010D02*
X5468320Y-5724010D01*
X5512360Y-7566960D02*
X5552360Y-7606960D01*
X5552360Y-7566960D02*
X5512360Y-7606960D01*
X5542010Y-7327000D02*
X5582010Y-7367000D01*
X5582010Y-7327000D02*
X5542010Y-7367000D01*
X5579500Y-8157140D02*
X5619500Y-8197140D01*
X5619500Y-8157140D02*
X5579500Y-8197140D01*
X5580370Y-8325850D02*
X5620370Y-8365850D01*
X5620370Y-8325850D02*
X5580370Y-8365850D01*
X5598390Y-7041310D02*
X5638390Y-7081310D01*
X5638390Y-7041310D02*
X5598390Y-7081310D01*
X5635320Y-8568490D02*
X5675320Y-8608490D01*
X5675320Y-8568490D02*
X5635320Y-8608490D01*
X5644200Y-5364800D02*
X5684200Y-5404800D01*
X5684200Y-5364800D02*
X5644200Y-5404800D01*
X5669600Y-6605120D02*
X5709600Y-6645120D01*
X5709600Y-6605120D02*
X5669600Y-6645120D01*
X5673810Y-7166680D02*
X5713810Y-7206680D01*
X5713810Y-7166680D02*
X5673810Y-7206680D01*
X5752990Y-8573900D02*
X5792990Y-8613900D01*
X5792990Y-8573900D02*
X5752990Y-8613900D01*
X5843440Y-8338350D02*
X5883440Y-8378350D01*
X5883440Y-8338350D02*
X5843440Y-8378350D01*
X5847400Y-8141140D02*
X5887400Y-8181140D01*
X5887400Y-8141140D02*
X5847400Y-8181140D01*
X5878930Y-5782180D02*
X5918930Y-5822180D01*
X5918930Y-5782180D02*
X5878930Y-5822180D01*
X5903490Y-6273540D02*
X5943490Y-6313540D01*
X5943490Y-6273540D02*
X5903490Y-6313540D01*
X5923600Y-5517200D02*
X5963600Y-5557200D01*
X5963600Y-5517200D02*
X5923600Y-5557200D01*
X5974400Y-6664280D02*
X6014400Y-6704280D01*
X6014400Y-6664280D02*
X5974400Y-6704280D01*
X6050600Y-5618800D02*
X6090600Y-5658800D01*
X6090600Y-5618800D02*
X6050600Y-5658800D01*
X6057190Y-8489240D02*
X6097190Y-8529240D01*
X6097190Y-8489240D02*
X6057190Y-8529240D01*
X6099320Y-9408110D02*
X6139320Y-9448110D01*
X6139320Y-9408110D02*
X6099320Y-9448110D01*
X6101400Y-7396800D02*
X6141400Y-7436800D01*
X6141400Y-7396800D02*
X6101400Y-7436800D01*
X6216090Y-6180010D02*
X6256090Y-6220010D01*
X6256090Y-6180010D02*
X6216090Y-6220010D01*
X6228400Y-7523800D02*
X6268400Y-7563800D01*
X6268400Y-7523800D02*
X6228400Y-7563800D01*
X6406960Y-7413930D02*
X6446960Y-7453930D01*
X6446960Y-7413930D02*
X6406960Y-7453930D01*
X6609400Y-5593400D02*
X6649400Y-5633400D01*
X6649400Y-5593400D02*
X6609400Y-5633400D01*
X6763600Y-4966890D02*
X6803600Y-5006890D01*
X6803600Y-4966890D02*
X6763600Y-5006890D01*
X6953200Y-6455300D02*
X6993200Y-6495300D01*
X6993200Y-6455300D02*
X6953200Y-6495300D01*
D13*
X4997000Y-5029200D02*
G75*
G03*
X4997000Y-5029200I-45000J0D01*
G01*
X5251000Y-5029200D02*
G75*
G03*
X5251000Y-5029200I-45000J0D01*
G01*
X5505000Y-5029200D02*
G75*
G03*
X5505000Y-5029200I-45000J0D01*
G01*
D14*
X3622970Y-8840000D02*
X3622970Y-8940000D01*
X3572970Y-8890000D02*
X3672970Y-8890000D01*
X4122970Y-8840000D02*
X4122970Y-8940000D01*
X4072970Y-8890000D02*
X4172970Y-8890000D01*
X6426700Y-9348000D02*
X6426700Y-9448000D01*
X6376700Y-9398000D02*
X6476700Y-9398000D01*
X6629400Y-7621800D02*
X6629400Y-7721800D01*
X6579400Y-7671800D02*
X6679400Y-7671800D01*
X6629400Y-7875800D02*
X6629400Y-7975800D01*
X6579400Y-7925800D02*
X6679400Y-7925800D01*
X6629400Y-8129800D02*
X6629400Y-8229800D01*
X6579400Y-8179800D02*
X6679400Y-8179800D01*
X6629400Y-8383800D02*
X6629400Y-8483800D01*
X6579400Y-8433800D02*
X6679400Y-8433800D01*
X6680700Y-9348000D02*
X6680700Y-9448000D01*
X6630700Y-9398000D02*
X6730700Y-9398000D01*
X6858500Y-5561900D02*
X6858500Y-5661900D01*
X6808500Y-5611900D02*
X6908500Y-5611900D01*
X6858500Y-5815900D02*
X6858500Y-5915900D01*
X6808500Y-5865900D02*
X6908500Y-5865900D01*
X6858500Y-6069900D02*
X6858500Y-6169900D01*
X6808500Y-6119900D02*
X6908500Y-6119900D01*
X7112500Y-5561900D02*
X7112500Y-5661900D01*
X7062500Y-5611900D02*
X7162500Y-5611900D01*
X7112500Y-5815900D02*
X7112500Y-5915900D01*
X7062500Y-5865900D02*
X7162500Y-5865900D01*
X7112500Y-6069900D02*
X7112500Y-6169900D01*
X7062500Y-6119900D02*
X7162500Y-6119900D01*
X7366000Y-7468400D02*
X7366000Y-7568400D01*
X7316000Y-7518400D02*
X7416000Y-7518400D01*
X7366000Y-7722400D02*
X7366000Y-7822400D01*
X7316000Y-7772400D02*
X7416000Y-7772400D01*
X7366000Y-7976400D02*
X7366000Y-8076400D01*
X7316000Y-8026400D02*
X7416000Y-8026400D01*
X7366000Y-8230400D02*
X7366000Y-8330400D01*
X7316000Y-8280400D02*
X7416000Y-8280400D01*
X7366000Y-8484400D02*
X7366000Y-8584400D01*
X7316000Y-8534400D02*
X7416000Y-8534400D01*
X7366000Y-8738400D02*
X7366000Y-8838400D01*
X7316000Y-8788400D02*
X7416000Y-8788400D01*
D15*
X3211938Y-5218538D02*
X3211938Y-4992262D01*
X2985662Y-4992262D01*
X2985662Y-5218538D01*
X3211938Y-5218538D01*
X3211938Y-9409538D02*
X3211938Y-9183262D01*
X2985662Y-9183262D01*
X2985662Y-9409538D01*
X3211938Y-9409538D01*
X7402938Y-5218538D02*
X7402938Y-4992262D01*
X7176662Y-4992262D01*
X7176662Y-5218538D01*
X7402938Y-5218538D01*
X7402938Y-9409538D02*
X7402938Y-9183262D01*
X7176662Y-9183262D01*
X7176662Y-9409538D01*
X7402938Y-9409538D01*
D11*
X3018719Y-9944576D02*
X3018719Y-9744576D01*
X3066338Y-9744576D01*
X3094909Y-9754100D01*
X3113957Y-9773148D01*
X3123481Y-9792195D01*
X3133005Y-9830290D01*
X3133005Y-9858862D01*
X3123481Y-9896957D01*
X3113957Y-9916005D01*
X3094909Y-9935052D01*
X3066338Y-9944576D01*
X3018719Y-9944576D01*
X3218719Y-9944576D02*
X3218719Y-9811243D01*
X3218719Y-9849338D02*
X3228243Y-9830290D01*
X3237767Y-9820767D01*
X3256814Y-9811243D01*
X3275862Y-9811243D01*
X3342528Y-9944576D02*
X3342528Y-9811243D01*
X3342528Y-9744576D02*
X3333005Y-9754100D01*
X3342528Y-9763624D01*
X3352052Y-9754100D01*
X3342528Y-9744576D01*
X3342528Y-9763624D01*
X3466338Y-9944576D02*
X3447290Y-9935052D01*
X3437767Y-9916005D01*
X3437767Y-9744576D01*
X3571100Y-9944576D02*
X3552052Y-9935052D01*
X3542528Y-9916005D01*
X3542528Y-9744576D01*
X3799671Y-9944576D02*
X3799671Y-9744576D01*
X3866338Y-9887433D01*
X3933005Y-9744576D01*
X3933005Y-9944576D01*
X4113957Y-9944576D02*
X4113957Y-9839814D01*
X4104433Y-9820767D01*
X4085386Y-9811243D01*
X4047290Y-9811243D01*
X4028243Y-9820767D01*
X4113957Y-9935052D02*
X4094909Y-9944576D01*
X4047290Y-9944576D01*
X4028243Y-9935052D01*
X4018719Y-9916005D01*
X4018719Y-9896957D01*
X4028243Y-9877910D01*
X4047290Y-9868386D01*
X4094909Y-9868386D01*
X4113957Y-9858862D01*
X4209195Y-9811243D02*
X4209195Y-10011243D01*
X4209195Y-9820767D02*
X4228243Y-9811243D01*
X4266338Y-9811243D01*
X4285386Y-9820767D01*
X4294910Y-9830290D01*
X4304433Y-9849338D01*
X4304433Y-9906481D01*
X4294910Y-9925529D01*
X4285386Y-9935052D01*
X4266338Y-9944576D01*
X4228243Y-9944576D01*
X4209195Y-9935052D01*
X4390148Y-9925529D02*
X4399671Y-9935052D01*
X4390148Y-9944576D01*
X4380624Y-9935052D01*
X4390148Y-9925529D01*
X4390148Y-9944576D01*
X4390148Y-9820767D02*
X4399671Y-9830290D01*
X4390148Y-9839814D01*
X4380624Y-9830290D01*
X4390148Y-9820767D01*
X4390148Y-9839814D01*
D12*
X2721100Y-10254100D02*
X2761100Y-10294100D01*
X2761100Y-10254100D02*
X2721100Y-10294100D01*
D11*
X3056814Y-10164576D02*
X3075862Y-10164576D01*
X3094909Y-10174100D01*
X3104433Y-10183624D01*
X3113957Y-10202671D01*
X3123481Y-10240767D01*
X3123481Y-10288386D01*
X3113957Y-10326481D01*
X3104433Y-10345529D01*
X3094909Y-10355052D01*
X3075862Y-10364576D01*
X3056814Y-10364576D01*
X3037767Y-10355052D01*
X3028243Y-10345529D01*
X3018719Y-10326481D01*
X3009195Y-10288386D01*
X3009195Y-10240767D01*
X3018719Y-10202671D01*
X3028243Y-10183624D01*
X3037767Y-10174100D01*
X3056814Y-10164576D01*
X3209195Y-10345529D02*
X3218719Y-10355052D01*
X3209195Y-10364576D01*
X3199671Y-10355052D01*
X3209195Y-10345529D01*
X3209195Y-10364576D01*
X3390148Y-10231243D02*
X3390148Y-10364576D01*
X3342528Y-10155052D02*
X3294909Y-10297910D01*
X3418719Y-10297910D01*
X3533005Y-10164576D02*
X3552052Y-10164576D01*
X3571100Y-10174100D01*
X3580624Y-10183624D01*
X3590148Y-10202671D01*
X3599671Y-10240767D01*
X3599671Y-10288386D01*
X3590148Y-10326481D01*
X3580624Y-10345529D01*
X3571100Y-10355052D01*
X3552052Y-10364576D01*
X3533005Y-10364576D01*
X3513957Y-10355052D01*
X3504433Y-10345529D01*
X3494909Y-10326481D01*
X3485386Y-10288386D01*
X3485386Y-10240767D01*
X3494909Y-10202671D01*
X3504433Y-10183624D01*
X3513957Y-10174100D01*
X3533005Y-10164576D01*
X3723481Y-10164576D02*
X3742528Y-10164576D01*
X3761576Y-10174100D01*
X3771100Y-10183624D01*
X3780624Y-10202671D01*
X3790148Y-10240767D01*
X3790148Y-10288386D01*
X3780624Y-10326481D01*
X3771100Y-10345529D01*
X3761576Y-10355052D01*
X3742528Y-10364576D01*
X3723481Y-10364576D01*
X3704433Y-10355052D01*
X3694909Y-10345529D01*
X3685386Y-10326481D01*
X3675862Y-10288386D01*
X3675862Y-10240767D01*
X3685386Y-10202671D01*
X3694909Y-10183624D01*
X3704433Y-10174100D01*
X3723481Y-10164576D01*
X3875862Y-10364576D02*
X3875862Y-10231243D01*
X3875862Y-10250290D02*
X3885386Y-10240767D01*
X3904433Y-10231243D01*
X3933005Y-10231243D01*
X3952052Y-10240767D01*
X3961576Y-10259814D01*
X3961576Y-10364576D01*
X3961576Y-10259814D02*
X3971100Y-10240767D01*
X3990148Y-10231243D01*
X4018719Y-10231243D01*
X4037767Y-10240767D01*
X4047290Y-10259814D01*
X4047290Y-10364576D01*
X4142528Y-10364576D02*
X4142528Y-10231243D01*
X4142528Y-10250290D02*
X4152052Y-10240767D01*
X4171100Y-10231243D01*
X4199671Y-10231243D01*
X4218719Y-10240767D01*
X4228243Y-10259814D01*
X4228243Y-10364576D01*
X4228243Y-10259814D02*
X4237767Y-10240767D01*
X4256814Y-10231243D01*
X4285386Y-10231243D01*
X4304433Y-10240767D01*
X4313957Y-10259814D01*
X4313957Y-10364576D01*
X4704433Y-10155052D02*
X4533005Y-10412195D01*
X4961576Y-10164576D02*
X4980624Y-10164576D01*
X4999671Y-10174100D01*
X5009195Y-10183624D01*
X5018719Y-10202671D01*
X5028243Y-10240767D01*
X5028243Y-10288386D01*
X5018719Y-10326481D01*
X5009195Y-10345529D01*
X4999671Y-10355052D01*
X4980624Y-10364576D01*
X4961576Y-10364576D01*
X4942529Y-10355052D01*
X4933005Y-10345529D01*
X4923481Y-10326481D01*
X4913957Y-10288386D01*
X4913957Y-10240767D01*
X4923481Y-10202671D01*
X4933005Y-10183624D01*
X4942529Y-10174100D01*
X4961576Y-10164576D01*
X5113957Y-10345529D02*
X5123481Y-10355052D01*
X5113957Y-10364576D01*
X5104433Y-10355052D01*
X5113957Y-10345529D01*
X5113957Y-10364576D01*
X5247290Y-10164576D02*
X5266338Y-10164576D01*
X5285386Y-10174100D01*
X5294910Y-10183624D01*
X5304433Y-10202671D01*
X5313957Y-10240767D01*
X5313957Y-10288386D01*
X5304433Y-10326481D01*
X5294910Y-10345529D01*
X5285386Y-10355052D01*
X5266338Y-10364576D01*
X5247290Y-10364576D01*
X5228243Y-10355052D01*
X5218719Y-10345529D01*
X5209195Y-10326481D01*
X5199671Y-10288386D01*
X5199671Y-10240767D01*
X5209195Y-10202671D01*
X5218719Y-10183624D01*
X5228243Y-10174100D01*
X5247290Y-10164576D01*
X5504433Y-10364576D02*
X5390148Y-10364576D01*
X5447290Y-10364576D02*
X5447290Y-10164576D01*
X5428243Y-10193148D01*
X5409195Y-10212195D01*
X5390148Y-10221719D01*
X5685386Y-10164576D02*
X5590148Y-10164576D01*
X5580624Y-10259814D01*
X5590148Y-10250290D01*
X5609195Y-10240767D01*
X5656814Y-10240767D01*
X5675862Y-10250290D01*
X5685386Y-10259814D01*
X5694909Y-10278862D01*
X5694909Y-10326481D01*
X5685386Y-10345529D01*
X5675862Y-10355052D01*
X5656814Y-10364576D01*
X5609195Y-10364576D01*
X5590148Y-10355052D01*
X5580624Y-10345529D01*
X5761576Y-10164576D02*
X5894909Y-10164576D01*
X5809195Y-10364576D01*
X5961576Y-10164576D02*
X5961576Y-10202671D01*
X6037767Y-10164576D02*
X6037767Y-10202671D01*
X6333005Y-10440767D02*
X6323481Y-10431243D01*
X6304433Y-10402671D01*
X6294909Y-10383624D01*
X6285386Y-10355052D01*
X6275862Y-10307433D01*
X6275862Y-10269338D01*
X6285386Y-10221719D01*
X6294909Y-10193148D01*
X6304433Y-10174100D01*
X6323481Y-10145529D01*
X6333005Y-10136005D01*
X6494909Y-10231243D02*
X6494909Y-10364576D01*
X6447290Y-10155052D02*
X6399671Y-10297910D01*
X6523481Y-10297910D01*
X6694909Y-10164576D02*
X6599671Y-10164576D01*
X6590148Y-10259814D01*
X6599671Y-10250290D01*
X6618719Y-10240767D01*
X6666338Y-10240767D01*
X6685386Y-10250290D01*
X6694909Y-10259814D01*
X6704433Y-10278862D01*
X6704433Y-10326481D01*
X6694909Y-10345529D01*
X6685386Y-10355052D01*
X6666338Y-10364576D01*
X6618719Y-10364576D01*
X6599671Y-10355052D01*
X6590148Y-10345529D01*
X6942528Y-10364576D02*
X6942528Y-10164576D01*
X7028243Y-10364576D02*
X7028243Y-10259814D01*
X7018719Y-10240767D01*
X6999671Y-10231243D01*
X6971100Y-10231243D01*
X6952052Y-10240767D01*
X6942528Y-10250290D01*
X7152052Y-10364576D02*
X7133005Y-10355052D01*
X7123481Y-10345529D01*
X7113957Y-10326481D01*
X7113957Y-10269338D01*
X7123481Y-10250290D01*
X7133005Y-10240767D01*
X7152052Y-10231243D01*
X7180624Y-10231243D01*
X7199671Y-10240767D01*
X7209195Y-10250290D01*
X7218719Y-10269338D01*
X7218719Y-10326481D01*
X7209195Y-10345529D01*
X7199671Y-10355052D01*
X7180624Y-10364576D01*
X7152052Y-10364576D01*
X7333005Y-10364576D02*
X7313957Y-10355052D01*
X7304433Y-10336005D01*
X7304433Y-10164576D01*
X7485386Y-10355052D02*
X7466338Y-10364576D01*
X7428243Y-10364576D01*
X7409195Y-10355052D01*
X7399671Y-10336005D01*
X7399671Y-10259814D01*
X7409195Y-10240767D01*
X7428243Y-10231243D01*
X7466338Y-10231243D01*
X7485386Y-10240767D01*
X7494909Y-10259814D01*
X7494909Y-10278862D01*
X7399671Y-10297910D01*
X7571100Y-10355052D02*
X7590148Y-10364576D01*
X7628243Y-10364576D01*
X7647290Y-10355052D01*
X7656814Y-10336005D01*
X7656814Y-10326481D01*
X7647290Y-10307433D01*
X7628243Y-10297910D01*
X7599671Y-10297910D01*
X7580624Y-10288386D01*
X7571100Y-10269338D01*
X7571100Y-10259814D01*
X7580624Y-10240767D01*
X7599671Y-10231243D01*
X7628243Y-10231243D01*
X7647290Y-10240767D01*
X7723481Y-10440767D02*
X7733005Y-10431243D01*
X7752052Y-10402671D01*
X7761576Y-10383624D01*
X7771100Y-10355052D01*
X7780624Y-10307433D01*
X7780624Y-10269338D01*
X7771100Y-10221719D01*
X7761576Y-10193148D01*
X7752052Y-10174100D01*
X7733005Y-10145529D01*
X7723481Y-10136005D01*
D13*
X2761100Y-10538100D02*
G75*
G03*
X2761100Y-10538100I-45000J0D01*
G01*
D11*
X3056814Y-10428576D02*
X3075862Y-10428576D01*
X3094909Y-10438100D01*
X3104433Y-10447624D01*
X3113957Y-10466671D01*
X3123481Y-10504767D01*
X3123481Y-10552386D01*
X3113957Y-10590481D01*
X3104433Y-10609529D01*
X3094909Y-10619052D01*
X3075862Y-10628576D01*
X3056814Y-10628576D01*
X3037767Y-10619052D01*
X3028243Y-10609529D01*
X3018719Y-10590481D01*
X3009195Y-10552386D01*
X3009195Y-10504767D01*
X3018719Y-10466671D01*
X3028243Y-10447624D01*
X3037767Y-10438100D01*
X3056814Y-10428576D01*
X3209195Y-10609529D02*
X3218719Y-10619052D01*
X3209195Y-10628576D01*
X3199671Y-10619052D01*
X3209195Y-10609529D01*
X3209195Y-10628576D01*
X3313957Y-10628576D02*
X3352052Y-10628576D01*
X3371100Y-10619052D01*
X3380624Y-10609529D01*
X3399671Y-10580957D01*
X3409195Y-10542862D01*
X3409195Y-10466671D01*
X3399671Y-10447624D01*
X3390148Y-10438100D01*
X3371100Y-10428576D01*
X3333005Y-10428576D01*
X3313957Y-10438100D01*
X3304433Y-10447624D01*
X3294909Y-10466671D01*
X3294909Y-10514290D01*
X3304433Y-10533338D01*
X3313957Y-10542862D01*
X3333005Y-10552386D01*
X3371100Y-10552386D01*
X3390148Y-10542862D01*
X3399671Y-10533338D01*
X3409195Y-10514290D01*
X3533005Y-10428576D02*
X3552052Y-10428576D01*
X3571100Y-10438100D01*
X3580624Y-10447624D01*
X3590148Y-10466671D01*
X3599671Y-10504767D01*
X3599671Y-10552386D01*
X3590148Y-10590481D01*
X3580624Y-10609529D01*
X3571100Y-10619052D01*
X3552052Y-10628576D01*
X3533005Y-10628576D01*
X3513957Y-10619052D01*
X3504433Y-10609529D01*
X3494909Y-10590481D01*
X3485386Y-10552386D01*
X3485386Y-10504767D01*
X3494909Y-10466671D01*
X3504433Y-10447624D01*
X3513957Y-10438100D01*
X3533005Y-10428576D01*
X3723481Y-10428576D02*
X3742528Y-10428576D01*
X3761576Y-10438100D01*
X3771100Y-10447624D01*
X3780624Y-10466671D01*
X3790148Y-10504767D01*
X3790148Y-10552386D01*
X3780624Y-10590481D01*
X3771100Y-10609529D01*
X3761576Y-10619052D01*
X3742528Y-10628576D01*
X3723481Y-10628576D01*
X3704433Y-10619052D01*
X3694909Y-10609529D01*
X3685386Y-10590481D01*
X3675862Y-10552386D01*
X3675862Y-10504767D01*
X3685386Y-10466671D01*
X3694909Y-10447624D01*
X3704433Y-10438100D01*
X3723481Y-10428576D01*
X3875862Y-10628576D02*
X3875862Y-10495243D01*
X3875862Y-10514290D02*
X3885386Y-10504767D01*
X3904433Y-10495243D01*
X3933005Y-10495243D01*
X3952052Y-10504767D01*
X3961576Y-10523814D01*
X3961576Y-10628576D01*
X3961576Y-10523814D02*
X3971100Y-10504767D01*
X3990148Y-10495243D01*
X4018719Y-10495243D01*
X4037767Y-10504767D01*
X4047290Y-10523814D01*
X4047290Y-10628576D01*
X4142528Y-10628576D02*
X4142528Y-10495243D01*
X4142528Y-10514290D02*
X4152052Y-10504767D01*
X4171100Y-10495243D01*
X4199671Y-10495243D01*
X4218719Y-10504767D01*
X4228243Y-10523814D01*
X4228243Y-10628576D01*
X4228243Y-10523814D02*
X4237767Y-10504767D01*
X4256814Y-10495243D01*
X4285386Y-10495243D01*
X4304433Y-10504767D01*
X4313957Y-10523814D01*
X4313957Y-10628576D01*
X4704433Y-10419052D02*
X4533005Y-10676195D01*
X4961576Y-10428576D02*
X4980624Y-10428576D01*
X4999671Y-10438100D01*
X5009195Y-10447624D01*
X5018719Y-10466671D01*
X5028243Y-10504767D01*
X5028243Y-10552386D01*
X5018719Y-10590481D01*
X5009195Y-10609529D01*
X4999671Y-10619052D01*
X4980624Y-10628576D01*
X4961576Y-10628576D01*
X4942529Y-10619052D01*
X4933005Y-10609529D01*
X4923481Y-10590481D01*
X4913957Y-10552386D01*
X4913957Y-10504767D01*
X4923481Y-10466671D01*
X4933005Y-10447624D01*
X4942529Y-10438100D01*
X4961576Y-10428576D01*
X5113957Y-10609529D02*
X5123481Y-10619052D01*
X5113957Y-10628576D01*
X5104433Y-10619052D01*
X5113957Y-10609529D01*
X5113957Y-10628576D01*
X5247290Y-10428576D02*
X5266338Y-10428576D01*
X5285386Y-10438100D01*
X5294910Y-10447624D01*
X5304433Y-10466671D01*
X5313957Y-10504767D01*
X5313957Y-10552386D01*
X5304433Y-10590481D01*
X5294910Y-10609529D01*
X5285386Y-10619052D01*
X5266338Y-10628576D01*
X5247290Y-10628576D01*
X5228243Y-10619052D01*
X5218719Y-10609529D01*
X5209195Y-10590481D01*
X5199671Y-10552386D01*
X5199671Y-10504767D01*
X5209195Y-10466671D01*
X5218719Y-10447624D01*
X5228243Y-10438100D01*
X5247290Y-10428576D01*
X5380624Y-10428576D02*
X5504433Y-10428576D01*
X5437767Y-10504767D01*
X5466338Y-10504767D01*
X5485386Y-10514290D01*
X5494910Y-10523814D01*
X5504433Y-10542862D01*
X5504433Y-10590481D01*
X5494910Y-10609529D01*
X5485386Y-10619052D01*
X5466338Y-10628576D01*
X5409195Y-10628576D01*
X5390148Y-10619052D01*
X5380624Y-10609529D01*
X5685386Y-10428576D02*
X5590148Y-10428576D01*
X5580624Y-10523814D01*
X5590148Y-10514290D01*
X5609195Y-10504767D01*
X5656814Y-10504767D01*
X5675862Y-10514290D01*
X5685386Y-10523814D01*
X5694909Y-10542862D01*
X5694909Y-10590481D01*
X5685386Y-10609529D01*
X5675862Y-10619052D01*
X5656814Y-10628576D01*
X5609195Y-10628576D01*
X5590148Y-10619052D01*
X5580624Y-10609529D01*
X5866338Y-10495243D02*
X5866338Y-10628576D01*
X5818719Y-10419052D02*
X5771100Y-10561910D01*
X5894909Y-10561910D01*
X5961576Y-10428576D02*
X5961576Y-10466671D01*
X6037767Y-10428576D02*
X6037767Y-10466671D01*
X6333005Y-10704767D02*
X6323481Y-10695243D01*
X6304433Y-10666671D01*
X6294909Y-10647624D01*
X6285386Y-10619052D01*
X6275862Y-10571433D01*
X6275862Y-10533338D01*
X6285386Y-10485719D01*
X6294909Y-10457148D01*
X6304433Y-10438100D01*
X6323481Y-10409529D01*
X6333005Y-10400005D01*
X6390148Y-10428576D02*
X6513957Y-10428576D01*
X6447290Y-10504767D01*
X6475862Y-10504767D01*
X6494909Y-10514290D01*
X6504433Y-10523814D01*
X6513957Y-10542862D01*
X6513957Y-10590481D01*
X6504433Y-10609529D01*
X6494909Y-10619052D01*
X6475862Y-10628576D01*
X6418719Y-10628576D01*
X6399671Y-10619052D01*
X6390148Y-10609529D01*
X6752052Y-10628576D02*
X6752052Y-10428576D01*
X6837767Y-10628576D02*
X6837767Y-10523814D01*
X6828243Y-10504767D01*
X6809195Y-10495243D01*
X6780624Y-10495243D01*
X6761576Y-10504767D01*
X6752052Y-10514290D01*
X6961576Y-10628576D02*
X6942528Y-10619052D01*
X6933005Y-10609529D01*
X6923481Y-10590481D01*
X6923481Y-10533338D01*
X6933005Y-10514290D01*
X6942528Y-10504767D01*
X6961576Y-10495243D01*
X6990148Y-10495243D01*
X7009195Y-10504767D01*
X7018719Y-10514290D01*
X7028243Y-10533338D01*
X7028243Y-10590481D01*
X7018719Y-10609529D01*
X7009195Y-10619052D01*
X6990148Y-10628576D01*
X6961576Y-10628576D01*
X7142528Y-10628576D02*
X7123481Y-10619052D01*
X7113957Y-10600005D01*
X7113957Y-10428576D01*
X7294909Y-10619052D02*
X7275862Y-10628576D01*
X7237767Y-10628576D01*
X7218719Y-10619052D01*
X7209195Y-10600005D01*
X7209195Y-10523814D01*
X7218719Y-10504767D01*
X7237767Y-10495243D01*
X7275862Y-10495243D01*
X7294909Y-10504767D01*
X7304433Y-10523814D01*
X7304433Y-10542862D01*
X7209195Y-10561910D01*
X7380624Y-10619052D02*
X7399671Y-10628576D01*
X7437767Y-10628576D01*
X7456814Y-10619052D01*
X7466338Y-10600005D01*
X7466338Y-10590481D01*
X7456814Y-10571433D01*
X7437767Y-10561910D01*
X7409195Y-10561910D01*
X7390148Y-10552386D01*
X7380624Y-10533338D01*
X7380624Y-10523814D01*
X7390148Y-10504767D01*
X7409195Y-10495243D01*
X7437767Y-10495243D01*
X7456814Y-10504767D01*
X7533005Y-10704767D02*
X7542528Y-10695243D01*
X7561576Y-10666671D01*
X7571100Y-10647624D01*
X7580624Y-10619052D01*
X7590148Y-10571433D01*
X7590148Y-10533338D01*
X7580624Y-10485719D01*
X7571100Y-10457148D01*
X7561576Y-10438100D01*
X7542528Y-10409529D01*
X7533005Y-10400005D01*
D14*
X2711100Y-10752100D02*
X2711100Y-10852100D01*
X2661100Y-10802100D02*
X2761100Y-10802100D01*
D11*
X3123481Y-10892576D02*
X3009195Y-10892576D01*
X3066338Y-10892576D02*
X3066338Y-10692576D01*
X3047290Y-10721148D01*
X3028243Y-10740195D01*
X3009195Y-10749719D01*
X3209195Y-10873529D02*
X3218719Y-10883052D01*
X3209195Y-10892576D01*
X3199671Y-10883052D01*
X3209195Y-10873529D01*
X3209195Y-10892576D01*
X3342528Y-10692576D02*
X3361576Y-10692576D01*
X3380624Y-10702100D01*
X3390148Y-10711624D01*
X3399671Y-10730671D01*
X3409195Y-10768767D01*
X3409195Y-10816386D01*
X3399671Y-10854481D01*
X3390148Y-10873529D01*
X3380624Y-10883052D01*
X3361576Y-10892576D01*
X3342528Y-10892576D01*
X3323481Y-10883052D01*
X3313957Y-10873529D01*
X3304433Y-10854481D01*
X3294909Y-10816386D01*
X3294909Y-10768767D01*
X3304433Y-10730671D01*
X3313957Y-10711624D01*
X3323481Y-10702100D01*
X3342528Y-10692576D01*
X3533005Y-10692576D02*
X3552052Y-10692576D01*
X3571100Y-10702100D01*
X3580624Y-10711624D01*
X3590148Y-10730671D01*
X3599671Y-10768767D01*
X3599671Y-10816386D01*
X3590148Y-10854481D01*
X3580624Y-10873529D01*
X3571100Y-10883052D01*
X3552052Y-10892576D01*
X3533005Y-10892576D01*
X3513957Y-10883052D01*
X3504433Y-10873529D01*
X3494909Y-10854481D01*
X3485386Y-10816386D01*
X3485386Y-10768767D01*
X3494909Y-10730671D01*
X3504433Y-10711624D01*
X3513957Y-10702100D01*
X3533005Y-10692576D01*
X3723481Y-10692576D02*
X3742528Y-10692576D01*
X3761576Y-10702100D01*
X3771100Y-10711624D01*
X3780624Y-10730671D01*
X3790148Y-10768767D01*
X3790148Y-10816386D01*
X3780624Y-10854481D01*
X3771100Y-10873529D01*
X3761576Y-10883052D01*
X3742528Y-10892576D01*
X3723481Y-10892576D01*
X3704433Y-10883052D01*
X3694909Y-10873529D01*
X3685386Y-10854481D01*
X3675862Y-10816386D01*
X3675862Y-10768767D01*
X3685386Y-10730671D01*
X3694909Y-10711624D01*
X3704433Y-10702100D01*
X3723481Y-10692576D01*
X3875862Y-10892576D02*
X3875862Y-10759243D01*
X3875862Y-10778290D02*
X3885386Y-10768767D01*
X3904433Y-10759243D01*
X3933005Y-10759243D01*
X3952052Y-10768767D01*
X3961576Y-10787814D01*
X3961576Y-10892576D01*
X3961576Y-10787814D02*
X3971100Y-10768767D01*
X3990148Y-10759243D01*
X4018719Y-10759243D01*
X4037767Y-10768767D01*
X4047290Y-10787814D01*
X4047290Y-10892576D01*
X4142528Y-10892576D02*
X4142528Y-10759243D01*
X4142528Y-10778290D02*
X4152052Y-10768767D01*
X4171100Y-10759243D01*
X4199671Y-10759243D01*
X4218719Y-10768767D01*
X4228243Y-10787814D01*
X4228243Y-10892576D01*
X4228243Y-10787814D02*
X4237767Y-10768767D01*
X4256814Y-10759243D01*
X4285386Y-10759243D01*
X4304433Y-10768767D01*
X4313957Y-10787814D01*
X4313957Y-10892576D01*
X4704433Y-10683052D02*
X4533005Y-10940195D01*
X4961576Y-10692576D02*
X4980624Y-10692576D01*
X4999671Y-10702100D01*
X5009195Y-10711624D01*
X5018719Y-10730671D01*
X5028243Y-10768767D01*
X5028243Y-10816386D01*
X5018719Y-10854481D01*
X5009195Y-10873529D01*
X4999671Y-10883052D01*
X4980624Y-10892576D01*
X4961576Y-10892576D01*
X4942529Y-10883052D01*
X4933005Y-10873529D01*
X4923481Y-10854481D01*
X4913957Y-10816386D01*
X4913957Y-10768767D01*
X4923481Y-10730671D01*
X4933005Y-10711624D01*
X4942529Y-10702100D01*
X4961576Y-10692576D01*
X5113957Y-10873529D02*
X5123481Y-10883052D01*
X5113957Y-10892576D01*
X5104433Y-10883052D01*
X5113957Y-10873529D01*
X5113957Y-10892576D01*
X5247290Y-10692576D02*
X5266338Y-10692576D01*
X5285386Y-10702100D01*
X5294910Y-10711624D01*
X5304433Y-10730671D01*
X5313957Y-10768767D01*
X5313957Y-10816386D01*
X5304433Y-10854481D01*
X5294910Y-10873529D01*
X5285386Y-10883052D01*
X5266338Y-10892576D01*
X5247290Y-10892576D01*
X5228243Y-10883052D01*
X5218719Y-10873529D01*
X5209195Y-10854481D01*
X5199671Y-10816386D01*
X5199671Y-10768767D01*
X5209195Y-10730671D01*
X5218719Y-10711624D01*
X5228243Y-10702100D01*
X5247290Y-10692576D01*
X5380624Y-10692576D02*
X5504433Y-10692576D01*
X5437767Y-10768767D01*
X5466338Y-10768767D01*
X5485386Y-10778290D01*
X5494910Y-10787814D01*
X5504433Y-10806862D01*
X5504433Y-10854481D01*
X5494910Y-10873529D01*
X5485386Y-10883052D01*
X5466338Y-10892576D01*
X5409195Y-10892576D01*
X5390148Y-10883052D01*
X5380624Y-10873529D01*
X5599671Y-10892576D02*
X5637767Y-10892576D01*
X5656814Y-10883052D01*
X5666338Y-10873529D01*
X5685386Y-10844957D01*
X5694909Y-10806862D01*
X5694909Y-10730671D01*
X5685386Y-10711624D01*
X5675862Y-10702100D01*
X5656814Y-10692576D01*
X5618719Y-10692576D01*
X5599671Y-10702100D01*
X5590148Y-10711624D01*
X5580624Y-10730671D01*
X5580624Y-10778290D01*
X5590148Y-10797338D01*
X5599671Y-10806862D01*
X5618719Y-10816386D01*
X5656814Y-10816386D01*
X5675862Y-10806862D01*
X5685386Y-10797338D01*
X5694909Y-10778290D01*
X5866338Y-10759243D02*
X5866338Y-10892576D01*
X5818719Y-10683052D02*
X5771100Y-10825910D01*
X5894909Y-10825910D01*
X5961576Y-10692576D02*
X5961576Y-10730671D01*
X6037767Y-10692576D02*
X6037767Y-10730671D01*
X6333005Y-10968767D02*
X6323481Y-10959243D01*
X6304433Y-10930671D01*
X6294909Y-10911624D01*
X6285386Y-10883052D01*
X6275862Y-10835433D01*
X6275862Y-10797338D01*
X6285386Y-10749719D01*
X6294909Y-10721148D01*
X6304433Y-10702100D01*
X6323481Y-10673529D01*
X6333005Y-10664005D01*
X6399671Y-10711624D02*
X6409195Y-10702100D01*
X6428243Y-10692576D01*
X6475862Y-10692576D01*
X6494909Y-10702100D01*
X6504433Y-10711624D01*
X6513957Y-10730671D01*
X6513957Y-10749719D01*
X6504433Y-10778290D01*
X6390148Y-10892576D01*
X6513957Y-10892576D01*
X6637767Y-10692576D02*
X6656814Y-10692576D01*
X6675862Y-10702100D01*
X6685386Y-10711624D01*
X6694909Y-10730671D01*
X6704433Y-10768767D01*
X6704433Y-10816386D01*
X6694909Y-10854481D01*
X6685386Y-10873529D01*
X6675862Y-10883052D01*
X6656814Y-10892576D01*
X6637767Y-10892576D01*
X6618719Y-10883052D01*
X6609195Y-10873529D01*
X6599671Y-10854481D01*
X6590148Y-10816386D01*
X6590148Y-10768767D01*
X6599671Y-10730671D01*
X6609195Y-10711624D01*
X6618719Y-10702100D01*
X6637767Y-10692576D01*
X6942528Y-10892576D02*
X6942528Y-10692576D01*
X7028243Y-10892576D02*
X7028243Y-10787814D01*
X7018719Y-10768767D01*
X6999671Y-10759243D01*
X6971100Y-10759243D01*
X6952052Y-10768767D01*
X6942528Y-10778290D01*
X7152052Y-10892576D02*
X7133005Y-10883052D01*
X7123481Y-10873529D01*
X7113957Y-10854481D01*
X7113957Y-10797338D01*
X7123481Y-10778290D01*
X7133005Y-10768767D01*
X7152052Y-10759243D01*
X7180624Y-10759243D01*
X7199671Y-10768767D01*
X7209195Y-10778290D01*
X7218719Y-10797338D01*
X7218719Y-10854481D01*
X7209195Y-10873529D01*
X7199671Y-10883052D01*
X7180624Y-10892576D01*
X7152052Y-10892576D01*
X7333005Y-10892576D02*
X7313957Y-10883052D01*
X7304433Y-10864005D01*
X7304433Y-10692576D01*
X7485386Y-10883052D02*
X7466338Y-10892576D01*
X7428243Y-10892576D01*
X7409195Y-10883052D01*
X7399671Y-10864005D01*
X7399671Y-10787814D01*
X7409195Y-10768767D01*
X7428243Y-10759243D01*
X7466338Y-10759243D01*
X7485386Y-10768767D01*
X7494909Y-10787814D01*
X7494909Y-10806862D01*
X7399671Y-10825910D01*
X7571100Y-10883052D02*
X7590148Y-10892576D01*
X7628243Y-10892576D01*
X7647290Y-10883052D01*
X7656814Y-10864005D01*
X7656814Y-10854481D01*
X7647290Y-10835433D01*
X7628243Y-10825910D01*
X7599671Y-10825910D01*
X7580624Y-10816386D01*
X7571100Y-10797338D01*
X7571100Y-10787814D01*
X7580624Y-10768767D01*
X7599671Y-10759243D01*
X7628243Y-10759243D01*
X7647290Y-10768767D01*
X7723481Y-10968767D02*
X7733005Y-10959243D01*
X7752052Y-10930671D01*
X7761576Y-10911624D01*
X7771100Y-10883052D01*
X7780624Y-10835433D01*
X7780624Y-10797338D01*
X7771100Y-10749719D01*
X7761576Y-10721148D01*
X7752052Y-10702100D01*
X7733005Y-10673529D01*
X7723481Y-10664005D01*
X2731811Y-11136811D02*
X2731811Y-10995389D01*
X2590389Y-10995389D01*
X2590389Y-11136811D01*
X2731811Y-11136811D01*
X2999671Y-10956576D02*
X3123481Y-10956576D01*
X3056814Y-11032767D01*
X3085386Y-11032767D01*
X3104433Y-11042290D01*
X3113957Y-11051814D01*
X3123481Y-11070862D01*
X3123481Y-11118481D01*
X3113957Y-11137529D01*
X3104433Y-11147052D01*
X3085386Y-11156576D01*
X3028243Y-11156576D01*
X3009195Y-11147052D01*
X2999671Y-11137529D01*
X3209195Y-11137529D02*
X3218719Y-11147052D01*
X3209195Y-11156576D01*
X3199671Y-11147052D01*
X3209195Y-11137529D01*
X3209195Y-11156576D01*
X3294909Y-10975624D02*
X3304433Y-10966100D01*
X3323481Y-10956576D01*
X3371100Y-10956576D01*
X3390148Y-10966100D01*
X3399671Y-10975624D01*
X3409195Y-10994671D01*
X3409195Y-11013719D01*
X3399671Y-11042290D01*
X3285386Y-11156576D01*
X3409195Y-11156576D01*
X3533005Y-10956576D02*
X3552052Y-10956576D01*
X3571100Y-10966100D01*
X3580624Y-10975624D01*
X3590148Y-10994671D01*
X3599671Y-11032767D01*
X3599671Y-11080386D01*
X3590148Y-11118481D01*
X3580624Y-11137529D01*
X3571100Y-11147052D01*
X3552052Y-11156576D01*
X3533005Y-11156576D01*
X3513957Y-11147052D01*
X3504433Y-11137529D01*
X3494909Y-11118481D01*
X3485386Y-11080386D01*
X3485386Y-11032767D01*
X3494909Y-10994671D01*
X3504433Y-10975624D01*
X3513957Y-10966100D01*
X3533005Y-10956576D01*
X3723481Y-10956576D02*
X3742528Y-10956576D01*
X3761576Y-10966100D01*
X3771100Y-10975624D01*
X3780624Y-10994671D01*
X3790148Y-11032767D01*
X3790148Y-11080386D01*
X3780624Y-11118481D01*
X3771100Y-11137529D01*
X3761576Y-11147052D01*
X3742528Y-11156576D01*
X3723481Y-11156576D01*
X3704433Y-11147052D01*
X3694909Y-11137529D01*
X3685386Y-11118481D01*
X3675862Y-11080386D01*
X3675862Y-11032767D01*
X3685386Y-10994671D01*
X3694909Y-10975624D01*
X3704433Y-10966100D01*
X3723481Y-10956576D01*
X3875862Y-11156576D02*
X3875862Y-11023243D01*
X3875862Y-11042290D02*
X3885386Y-11032767D01*
X3904433Y-11023243D01*
X3933005Y-11023243D01*
X3952052Y-11032767D01*
X3961576Y-11051814D01*
X3961576Y-11156576D01*
X3961576Y-11051814D02*
X3971100Y-11032767D01*
X3990148Y-11023243D01*
X4018719Y-11023243D01*
X4037767Y-11032767D01*
X4047290Y-11051814D01*
X4047290Y-11156576D01*
X4142528Y-11156576D02*
X4142528Y-11023243D01*
X4142528Y-11042290D02*
X4152052Y-11032767D01*
X4171100Y-11023243D01*
X4199671Y-11023243D01*
X4218719Y-11032767D01*
X4228243Y-11051814D01*
X4228243Y-11156576D01*
X4228243Y-11051814D02*
X4237767Y-11032767D01*
X4256814Y-11023243D01*
X4285386Y-11023243D01*
X4304433Y-11032767D01*
X4313957Y-11051814D01*
X4313957Y-11156576D01*
X4704433Y-10947052D02*
X4533005Y-11204195D01*
X4961576Y-10956576D02*
X4980624Y-10956576D01*
X4999671Y-10966100D01*
X5009195Y-10975624D01*
X5018719Y-10994671D01*
X5028243Y-11032767D01*
X5028243Y-11080386D01*
X5018719Y-11118481D01*
X5009195Y-11137529D01*
X4999671Y-11147052D01*
X4980624Y-11156576D01*
X4961576Y-11156576D01*
X4942529Y-11147052D01*
X4933005Y-11137529D01*
X4923481Y-11118481D01*
X4913957Y-11080386D01*
X4913957Y-11032767D01*
X4923481Y-10994671D01*
X4933005Y-10975624D01*
X4942529Y-10966100D01*
X4961576Y-10956576D01*
X5113957Y-11137529D02*
X5123481Y-11147052D01*
X5113957Y-11156576D01*
X5104433Y-11147052D01*
X5113957Y-11137529D01*
X5113957Y-11156576D01*
X5313957Y-11156576D02*
X5199671Y-11156576D01*
X5256814Y-11156576D02*
X5256814Y-10956576D01*
X5237767Y-10985148D01*
X5218719Y-11004195D01*
X5199671Y-11013719D01*
X5390148Y-10975624D02*
X5399671Y-10966100D01*
X5418719Y-10956576D01*
X5466338Y-10956576D01*
X5485386Y-10966100D01*
X5494910Y-10975624D01*
X5504433Y-10994671D01*
X5504433Y-11013719D01*
X5494910Y-11042290D01*
X5380624Y-11156576D01*
X5504433Y-11156576D01*
X5675862Y-10956576D02*
X5637767Y-10956576D01*
X5618719Y-10966100D01*
X5609195Y-10975624D01*
X5590148Y-11004195D01*
X5580624Y-11042290D01*
X5580624Y-11118481D01*
X5590148Y-11137529D01*
X5599671Y-11147052D01*
X5618719Y-11156576D01*
X5656814Y-11156576D01*
X5675862Y-11147052D01*
X5685386Y-11137529D01*
X5694909Y-11118481D01*
X5694909Y-11070862D01*
X5685386Y-11051814D01*
X5675862Y-11042290D01*
X5656814Y-11032767D01*
X5618719Y-11032767D01*
X5599671Y-11042290D01*
X5590148Y-11051814D01*
X5580624Y-11070862D01*
X5818719Y-10956576D02*
X5837767Y-10956576D01*
X5856814Y-10966100D01*
X5866338Y-10975624D01*
X5875862Y-10994671D01*
X5885386Y-11032767D01*
X5885386Y-11080386D01*
X5875862Y-11118481D01*
X5866338Y-11137529D01*
X5856814Y-11147052D01*
X5837767Y-11156576D01*
X5818719Y-11156576D01*
X5799671Y-11147052D01*
X5790148Y-11137529D01*
X5780624Y-11118481D01*
X5771100Y-11080386D01*
X5771100Y-11032767D01*
X5780624Y-10994671D01*
X5790148Y-10975624D01*
X5799671Y-10966100D01*
X5818719Y-10956576D01*
X5961576Y-10956576D02*
X5961576Y-10994671D01*
X6037767Y-10956576D02*
X6037767Y-10994671D01*
X6333005Y-11232767D02*
X6323481Y-11223243D01*
X6304433Y-11194671D01*
X6294909Y-11175624D01*
X6285386Y-11147052D01*
X6275862Y-11099433D01*
X6275862Y-11061338D01*
X6285386Y-11013719D01*
X6294909Y-10985148D01*
X6304433Y-10966100D01*
X6323481Y-10937529D01*
X6333005Y-10928005D01*
X6494909Y-11023243D02*
X6494909Y-11156576D01*
X6447290Y-10947052D02*
X6399671Y-11089910D01*
X6523481Y-11089910D01*
X6752052Y-11156576D02*
X6752052Y-10956576D01*
X6837767Y-11156576D02*
X6837767Y-11051814D01*
X6828243Y-11032767D01*
X6809195Y-11023243D01*
X6780624Y-11023243D01*
X6761576Y-11032767D01*
X6752052Y-11042290D01*
X6961576Y-11156576D02*
X6942528Y-11147052D01*
X6933005Y-11137529D01*
X6923481Y-11118481D01*
X6923481Y-11061338D01*
X6933005Y-11042290D01*
X6942528Y-11032767D01*
X6961576Y-11023243D01*
X6990148Y-11023243D01*
X7009195Y-11032767D01*
X7018719Y-11042290D01*
X7028243Y-11061338D01*
X7028243Y-11118481D01*
X7018719Y-11137529D01*
X7009195Y-11147052D01*
X6990148Y-11156576D01*
X6961576Y-11156576D01*
X7142528Y-11156576D02*
X7123481Y-11147052D01*
X7113957Y-11128005D01*
X7113957Y-10956576D01*
X7294909Y-11147052D02*
X7275862Y-11156576D01*
X7237767Y-11156576D01*
X7218719Y-11147052D01*
X7209195Y-11128005D01*
X7209195Y-11051814D01*
X7218719Y-11032767D01*
X7237767Y-11023243D01*
X7275862Y-11023243D01*
X7294909Y-11032767D01*
X7304433Y-11051814D01*
X7304433Y-11070862D01*
X7209195Y-11089910D01*
X7380624Y-11147052D02*
X7399671Y-11156576D01*
X7437767Y-11156576D01*
X7456814Y-11147052D01*
X7466338Y-11128005D01*
X7466338Y-11118481D01*
X7456814Y-11099433D01*
X7437767Y-11089910D01*
X7409195Y-11089910D01*
X7390148Y-11080386D01*
X7380624Y-11061338D01*
X7380624Y-11051814D01*
X7390148Y-11032767D01*
X7409195Y-11023243D01*
X7437767Y-11023243D01*
X7456814Y-11032767D01*
X7533005Y-11232767D02*
X7542528Y-11223243D01*
X7561576Y-11194671D01*
X7571100Y-11175624D01*
X7580624Y-11147052D01*
X7590148Y-11099433D01*
X7590148Y-11061338D01*
X7580624Y-11013719D01*
X7571100Y-10985148D01*
X7561576Y-10966100D01*
X7542528Y-10937529D01*
X7533005Y-10928005D01*
M02*
