%TF.GenerationSoftware,KiCad,Pcbnew,(6.0.7)*%
%TF.CreationDate,2023-04-08T23:37:57+02:00*%
%TF.ProjectId,hb-uni-644_328P_small,68622d75-6e69-42d3-9634-345f33323850,rev?*%
%TF.SameCoordinates,Original*%
%TF.FileFunction,Copper,L1,Top*%
%TF.FilePolarity,Positive*%
%FSLAX46Y46*%
G04 Gerber Fmt 4.6, Leading zero omitted, Abs format (unit mm)*
G04 Created by KiCad (PCBNEW (6.0.7)) date 2023-04-08 23:37:57*
%MOMM*%
%LPD*%
G01*
G04 APERTURE LIST*
G04 Aperture macros list*
%AMRoundRect*
0 Rectangle with rounded corners*
0 $1 Rounding radius*
0 $2 $3 $4 $5 $6 $7 $8 $9 X,Y pos of 4 corners*
0 Add a 4 corners polygon primitive as box body*
4,1,4,$2,$3,$4,$5,$6,$7,$8,$9,$2,$3,0*
0 Add four circle primitives for the rounded corners*
1,1,$1+$1,$2,$3*
1,1,$1+$1,$4,$5*
1,1,$1+$1,$6,$7*
1,1,$1+$1,$8,$9*
0 Add four rect primitives between the rounded corners*
20,1,$1+$1,$2,$3,$4,$5,0*
20,1,$1+$1,$4,$5,$6,$7,0*
20,1,$1+$1,$6,$7,$8,$9,0*
20,1,$1+$1,$8,$9,$2,$3,0*%
%AMFreePoly0*
4,1,9,5.362500,-0.866500,1.237500,-0.866500,1.237500,-0.450000,-1.237500,-0.450000,-1.237500,0.450000,1.237500,0.450000,1.237500,0.866500,5.362500,0.866500,5.362500,-0.866500,5.362500,-0.866500,$1*%
G04 Aperture macros list end*
%ADD10C,0.300000*%
%TA.AperFunction,NonConductor*%
%ADD11C,0.300000*%
%TD*%
%TA.AperFunction,NonConductor*%
%ADD12C,0.200000*%
%TD*%
%TA.AperFunction,ComponentPad*%
%ADD13C,5.600000*%
%TD*%
%TA.AperFunction,ComponentPad*%
%ADD14R,1.700000X1.700000*%
%TD*%
%TA.AperFunction,ComponentPad*%
%ADD15O,1.700000X1.700000*%
%TD*%
%TA.AperFunction,SMDPad,CuDef*%
%ADD16RoundRect,0.250000X0.625000X-0.400000X0.625000X0.400000X-0.625000X0.400000X-0.625000X-0.400000X0*%
%TD*%
%TA.AperFunction,SMDPad,CuDef*%
%ADD17R,1.000000X1.500000*%
%TD*%
%TA.AperFunction,SMDPad,CuDef*%
%ADD18R,2.000000X0.650000*%
%TD*%
%TA.AperFunction,SMDPad,CuDef*%
%ADD19RoundRect,0.250000X-0.412500X-0.650000X0.412500X-0.650000X0.412500X0.650000X-0.412500X0.650000X0*%
%TD*%
%TA.AperFunction,SMDPad,CuDef*%
%ADD20RoundRect,0.250000X0.400000X0.625000X-0.400000X0.625000X-0.400000X-0.625000X0.400000X-0.625000X0*%
%TD*%
%TA.AperFunction,SMDPad,CuDef*%
%ADD21RoundRect,0.250000X0.412500X0.650000X-0.412500X0.650000X-0.412500X-0.650000X0.412500X-0.650000X0*%
%TD*%
%TA.AperFunction,SMDPad,CuDef*%
%ADD22RoundRect,0.250000X-0.650000X0.412500X-0.650000X-0.412500X0.650000X-0.412500X0.650000X0.412500X0*%
%TD*%
%TA.AperFunction,SMDPad,CuDef*%
%ADD23O,1.750000X1.300000*%
%TD*%
%TA.AperFunction,SMDPad,CuDef*%
%ADD24RoundRect,0.250000X0.650000X-0.412500X0.650000X0.412500X-0.650000X0.412500X-0.650000X-0.412500X0*%
%TD*%
%TA.AperFunction,SMDPad,CuDef*%
%ADD25R,2.180000X1.600000*%
%TD*%
%TA.AperFunction,SMDPad,CuDef*%
%ADD26RoundRect,0.250000X-0.400000X-0.625000X0.400000X-0.625000X0.400000X0.625000X-0.400000X0.625000X0*%
%TD*%
%TA.AperFunction,ComponentPad*%
%ADD27R,2.000000X2.000000*%
%TD*%
%TA.AperFunction,ComponentPad*%
%ADD28C,2.000000*%
%TD*%
%TA.AperFunction,SMDPad,CuDef*%
%ADD29R,2.100000X2.700000*%
%TD*%
%TA.AperFunction,SMDPad,CuDef*%
%ADD30R,2.300000X0.900000*%
%TD*%
%TA.AperFunction,SMDPad,CuDef*%
%ADD31FreePoly0,0.000000*%
%TD*%
%TA.AperFunction,SMDPad,CuDef*%
%ADD32R,1.900000X0.800000*%
%TD*%
%TA.AperFunction,SMDPad,CuDef*%
%ADD33RoundRect,0.250000X-0.400000X-1.450000X0.400000X-1.450000X0.400000X1.450000X-0.400000X1.450000X0*%
%TD*%
%TA.AperFunction,ComponentPad*%
%ADD34R,1.800000X1.800000*%
%TD*%
%TA.AperFunction,ComponentPad*%
%ADD35C,1.800000*%
%TD*%
%TA.AperFunction,SMDPad,CuDef*%
%ADD36R,0.800000X1.900000*%
%TD*%
%TA.AperFunction,SMDPad,CuDef*%
%ADD37R,1.600000X0.550000*%
%TD*%
%TA.AperFunction,SMDPad,CuDef*%
%ADD38R,0.550000X1.600000*%
%TD*%
%TA.AperFunction,ViaPad*%
%ADD39C,0.800000*%
%TD*%
%TA.AperFunction,Conductor*%
%ADD40C,0.400000*%
%TD*%
%TA.AperFunction,Conductor*%
%ADD41C,0.250000*%
%TD*%
G04 APERTURE END LIST*
D10*
D11*
X45728714Y-98462571D02*
X45728714Y-99462571D01*
X45371571Y-97891142D02*
X45014428Y-98962571D01*
X45943000Y-98962571D01*
X46728714Y-98605428D02*
X46585857Y-98534000D01*
X46514428Y-98462571D01*
X46443000Y-98319714D01*
X46443000Y-98248285D01*
X46514428Y-98105428D01*
X46585857Y-98034000D01*
X46728714Y-97962571D01*
X47014428Y-97962571D01*
X47157285Y-98034000D01*
X47228714Y-98105428D01*
X47300142Y-98248285D01*
X47300142Y-98319714D01*
X47228714Y-98462571D01*
X47157285Y-98534000D01*
X47014428Y-98605428D01*
X46728714Y-98605428D01*
X46585857Y-98676857D01*
X46514428Y-98748285D01*
X46443000Y-98891142D01*
X46443000Y-99176857D01*
X46514428Y-99319714D01*
X46585857Y-99391142D01*
X46728714Y-99462571D01*
X47014428Y-99462571D01*
X47157285Y-99391142D01*
X47228714Y-99319714D01*
X47300142Y-99176857D01*
X47300142Y-98891142D01*
X47228714Y-98748285D01*
X47157285Y-98676857D01*
X47014428Y-98605428D01*
X48014428Y-99391142D02*
X48014428Y-99462571D01*
X47943000Y-99605428D01*
X47871571Y-99676857D01*
X49371571Y-97962571D02*
X48657285Y-97962571D01*
X48585857Y-98676857D01*
X48657285Y-98605428D01*
X48800142Y-98534000D01*
X49157285Y-98534000D01*
X49300142Y-98605428D01*
X49371571Y-98676857D01*
X49443000Y-98819714D01*
X49443000Y-99176857D01*
X49371571Y-99319714D01*
X49300142Y-99391142D01*
X49157285Y-99462571D01*
X48800142Y-99462571D01*
X48657285Y-99391142D01*
X48585857Y-99319714D01*
X50871571Y-99462571D02*
X50014428Y-99462571D01*
X50443000Y-99462571D02*
X50443000Y-97962571D01*
X50300142Y-98176857D01*
X50157285Y-98319714D01*
X50014428Y-98391142D01*
X52157285Y-98462571D02*
X52157285Y-99462571D01*
X51800142Y-97891142D02*
X51443000Y-98962571D01*
X52371571Y-98962571D01*
X53228714Y-97962571D02*
X53371571Y-97962571D01*
X53514428Y-98034000D01*
X53585857Y-98105428D01*
X53657285Y-98248285D01*
X53728714Y-98534000D01*
X53728714Y-98891142D01*
X53657285Y-99176857D01*
X53585857Y-99319714D01*
X53514428Y-99391142D01*
X53371571Y-99462571D01*
X53228714Y-99462571D01*
X53085857Y-99391142D01*
X53014428Y-99319714D01*
X52943000Y-99176857D01*
X52871571Y-98891142D01*
X52871571Y-98534000D01*
X52943000Y-98248285D01*
X53014428Y-98105428D01*
X53085857Y-98034000D01*
X53228714Y-97962571D01*
X55514428Y-99462571D02*
X55514428Y-98462571D01*
X55514428Y-98605428D02*
X55585857Y-98534000D01*
X55728714Y-98462571D01*
X55942999Y-98462571D01*
X56085857Y-98534000D01*
X56157285Y-98676857D01*
X56157285Y-99462571D01*
X56157285Y-98676857D02*
X56228714Y-98534000D01*
X56371571Y-98462571D01*
X56585857Y-98462571D01*
X56728714Y-98534000D01*
X56800142Y-98676857D01*
X56800142Y-99462571D01*
X57514428Y-99462571D02*
X57514428Y-98462571D01*
X57514428Y-98605428D02*
X57585857Y-98534000D01*
X57728714Y-98462571D01*
X57942999Y-98462571D01*
X58085857Y-98534000D01*
X58157285Y-98676857D01*
X58157285Y-99462571D01*
X58157285Y-98676857D02*
X58228714Y-98534000D01*
X58371571Y-98462571D01*
X58585857Y-98462571D01*
X58728714Y-98534000D01*
X58800142Y-98676857D01*
X58800142Y-99462571D01*
D12*
X27686000Y-100830000D02*
X27686000Y-101170420D01*
X76200000Y-100830000D02*
X76200000Y-101170420D01*
X27686000Y-100584000D02*
X76200000Y-100584000D01*
X27686000Y-100584000D02*
X76200000Y-100584000D01*
X27686000Y-100584000D02*
X28812504Y-101170421D01*
X27686000Y-100584000D02*
X28812504Y-99997579D01*
X76200000Y-100584000D02*
X75073496Y-99997579D01*
X76200000Y-100584000D02*
X75073496Y-101170421D01*
D10*
D11*
X18198571Y-78223285D02*
X19198571Y-78223285D01*
X17627142Y-78580428D02*
X18698571Y-78937571D01*
X18698571Y-78009000D01*
X18341428Y-77223285D02*
X18270000Y-77366142D01*
X18198571Y-77437571D01*
X18055714Y-77509000D01*
X17984285Y-77509000D01*
X17841428Y-77437571D01*
X17770000Y-77366142D01*
X17698571Y-77223285D01*
X17698571Y-76937571D01*
X17770000Y-76794714D01*
X17841428Y-76723285D01*
X17984285Y-76651857D01*
X18055714Y-76651857D01*
X18198571Y-76723285D01*
X18270000Y-76794714D01*
X18341428Y-76937571D01*
X18341428Y-77223285D01*
X18412857Y-77366142D01*
X18484285Y-77437571D01*
X18627142Y-77509000D01*
X18912857Y-77509000D01*
X19055714Y-77437571D01*
X19127142Y-77366142D01*
X19198571Y-77223285D01*
X19198571Y-76937571D01*
X19127142Y-76794714D01*
X19055714Y-76723285D01*
X18912857Y-76651857D01*
X18627142Y-76651857D01*
X18484285Y-76723285D01*
X18412857Y-76794714D01*
X18341428Y-76937571D01*
X19127142Y-75937571D02*
X19198571Y-75937571D01*
X19341428Y-76009000D01*
X19412857Y-76080428D01*
X17698571Y-74580428D02*
X17698571Y-75294714D01*
X18412857Y-75366142D01*
X18341428Y-75294714D01*
X18270000Y-75151857D01*
X18270000Y-74794714D01*
X18341428Y-74651857D01*
X18412857Y-74580428D01*
X18555714Y-74509000D01*
X18912857Y-74509000D01*
X19055714Y-74580428D01*
X19127142Y-74651857D01*
X19198571Y-74794714D01*
X19198571Y-75151857D01*
X19127142Y-75294714D01*
X19055714Y-75366142D01*
X19198571Y-73080428D02*
X19198571Y-73937571D01*
X19198571Y-73509000D02*
X17698571Y-73509000D01*
X17912857Y-73651857D01*
X18055714Y-73794714D01*
X18127142Y-73937571D01*
X18198571Y-71794714D02*
X19198571Y-71794714D01*
X17627142Y-72151857D02*
X18698571Y-72509000D01*
X18698571Y-71580428D01*
X17698571Y-70723285D02*
X17698571Y-70580428D01*
X17770000Y-70437571D01*
X17841428Y-70366142D01*
X17984285Y-70294714D01*
X18270000Y-70223285D01*
X18627142Y-70223285D01*
X18912857Y-70294714D01*
X19055714Y-70366142D01*
X19127142Y-70437571D01*
X19198571Y-70580428D01*
X19198571Y-70723285D01*
X19127142Y-70866142D01*
X19055714Y-70937571D01*
X18912857Y-71009000D01*
X18627142Y-71080428D01*
X18270000Y-71080428D01*
X17984285Y-71009000D01*
X17841428Y-70937571D01*
X17770000Y-70866142D01*
X17698571Y-70723285D01*
X19198571Y-68437571D02*
X18198571Y-68437571D01*
X18341428Y-68437571D02*
X18270000Y-68366142D01*
X18198571Y-68223285D01*
X18198571Y-68009000D01*
X18270000Y-67866142D01*
X18412857Y-67794714D01*
X19198571Y-67794714D01*
X18412857Y-67794714D02*
X18270000Y-67723285D01*
X18198571Y-67580428D01*
X18198571Y-67366142D01*
X18270000Y-67223285D01*
X18412857Y-67151857D01*
X19198571Y-67151857D01*
X19198571Y-66437571D02*
X18198571Y-66437571D01*
X18341428Y-66437571D02*
X18270000Y-66366142D01*
X18198571Y-66223285D01*
X18198571Y-66009000D01*
X18270000Y-65866142D01*
X18412857Y-65794714D01*
X19198571Y-65794714D01*
X18412857Y-65794714D02*
X18270000Y-65723285D01*
X18198571Y-65580428D01*
X18198571Y-65366142D01*
X18270000Y-65223285D01*
X18412857Y-65151857D01*
X19198571Y-65151857D01*
D12*
X27186000Y-47752000D02*
X19733580Y-47752000D01*
X27186000Y-96266000D02*
X19733580Y-96266000D01*
X20320000Y-47752000D02*
X20320000Y-96266000D01*
X20320000Y-47752000D02*
X20320000Y-96266000D01*
X20320000Y-47752000D02*
X19733579Y-48878504D01*
X20320000Y-47752000D02*
X20906421Y-48878504D01*
X20320000Y-96266000D02*
X20906421Y-95139496D01*
X20320000Y-96266000D02*
X19733579Y-95139496D01*
D13*
%TO.P,REF6,1*%
%TO.N,N/C*%
X30988000Y-92964000D03*
%TD*%
D14*
%TO.P,J6,1,Pin_1*%
%TO.N,VCC*%
X66294000Y-76718000D03*
D15*
%TO.P,J6,2,Pin_2*%
%TO.N,GND*%
X66294000Y-79258000D03*
%TO.P,J6,3,Pin_3*%
%TO.N,/SCL*%
X66294000Y-81798000D03*
%TO.P,J6,4,Pin_4*%
%TO.N,/SDA*%
X66294000Y-84338000D03*
%TD*%
D16*
%TO.P,R3,1*%
%TO.N,VCC*%
X53848000Y-94768000D03*
%TO.P,R3,2*%
%TO.N,/RESET*%
X53848000Y-91668000D03*
%TD*%
D17*
%TO.P,J2,1,G1*%
%TO.N,GND*%
X60086000Y-94488000D03*
%TO.P,J2,2,G2*%
%TO.N,/RAW-*%
X58786000Y-94488000D03*
%TD*%
D18*
%TO.P,U3,1,BATT*%
%TO.N,/RAW+FUSE*%
X51630000Y-60010000D03*
%TO.P,U3,2,GND*%
%TO.N,GND*%
X51630000Y-60960000D03*
%TO.P,U3,3,~{SHDN}*%
%TO.N,/RAW+FUSE*%
X51630000Y-61910000D03*
%TO.P,U3,4,OUT*%
%TO.N,VCC*%
X55050000Y-61910000D03*
%TO.P,U3,5,LX*%
%TO.N,Net-(L1-Pad2)*%
X55050000Y-60010000D03*
%TD*%
D17*
%TO.P,J1,1,G1*%
%TO.N,VCC*%
X60086000Y-91694000D03*
%TO.P,J1,2,G2*%
%TO.N,/RAW+*%
X58786000Y-91694000D03*
%TD*%
D16*
%TO.P,R6,1*%
%TO.N,Net-(Q1-Pad1)*%
X62738000Y-68098000D03*
%TO.P,R6,2*%
%TO.N,/RAW+FUSE*%
X62738000Y-64998000D03*
%TD*%
D19*
%TO.P,C13,1*%
%TO.N,/DTR*%
X64477500Y-88900000D03*
%TO.P,C13,2*%
%TO.N,/RESET*%
X67602500Y-88900000D03*
%TD*%
D13*
%TO.P,REF2,1*%
%TO.N,N/C*%
X30988000Y-51054000D03*
%TD*%
%TO.P,REF7,1*%
%TO.N,N/C*%
X72898000Y-92964000D03*
%TD*%
D20*
%TO.P,R4,1*%
%TO.N,/A3*%
X60478000Y-87630000D03*
%TO.P,R4,2*%
%TO.N,/RAW+FUSE*%
X57378000Y-87630000D03*
%TD*%
D13*
%TO.P,REF4,1*%
%TO.N,N/C*%
X72898000Y-51054000D03*
%TD*%
D21*
%TO.P,C10,1*%
%TO.N,Net-(C10-Pad1)*%
X60490500Y-79756000D03*
%TO.P,C10,2*%
%TO.N,GND*%
X57365500Y-79756000D03*
%TD*%
D14*
%TO.P,J3,1,Pin_1*%
%TO.N,/RAW+*%
X66807000Y-93980000D03*
D15*
%TO.P,J3,2,Pin_2*%
%TO.N,/RAW-*%
X64267000Y-93980000D03*
%TD*%
D22*
%TO.P,C2,1*%
%TO.N,GND*%
X41910000Y-76923500D03*
%TO.P,C2,2*%
%TO.N,VCC*%
X41910000Y-80048500D03*
%TD*%
%TO.P,C6,1*%
%TO.N,GND*%
X50038000Y-64985500D03*
%TO.P,C6,2*%
%TO.N,VCC*%
X50038000Y-68110500D03*
%TD*%
D23*
%TO.P,U2,1,VCC*%
%TO.N,VCC*%
X46584000Y-71262000D03*
%TO.P,U2,2,GND*%
%TO.N,GND*%
X46584000Y-69262000D03*
%TO.P,U2,3,MOSI*%
%TO.N,/MOSI*%
X46584000Y-67262000D03*
%TO.P,U2,4,SCLK*%
%TO.N,/SCK*%
X46584000Y-65262000D03*
%TO.P,U2,5,MISO*%
%TO.N,/MISO*%
X46584000Y-63262000D03*
%TO.P,U2,6,GDO2*%
%TO.N,unconnected-(U2-Pad6)*%
X46584000Y-61262000D03*
%TO.P,U2,7,GDO0*%
%TO.N,/D2*%
X46584000Y-59262000D03*
%TO.P,U2,8,CSN*%
%TO.N,/SS*%
X46584000Y-57262000D03*
%TD*%
D24*
%TO.P,C9,1*%
%TO.N,VCC*%
X56896000Y-68110500D03*
%TO.P,C9,2*%
%TO.N,GND*%
X56896000Y-64985500D03*
%TD*%
D20*
%TO.P,R5,1*%
%TO.N,/D7*%
X60478000Y-75946000D03*
%TO.P,R5,2*%
%TO.N,/A3*%
X57378000Y-75946000D03*
%TD*%
D25*
%TO.P,SW2,1,1*%
%TO.N,/CONFIG*%
X36050000Y-51308000D03*
%TO.P,SW2,2,2*%
%TO.N,GND*%
X45230000Y-51308000D03*
%TD*%
D16*
%TO.P,R9,1*%
%TO.N,Net-(R8-Pad1)*%
X51054000Y-94768000D03*
%TO.P,R9,2*%
%TO.N,/SDA*%
X51054000Y-91668000D03*
%TD*%
D26*
%TO.P,R1,1*%
%TO.N,Net-(D1-Pad3)*%
X50520000Y-54610000D03*
%TO.P,R1,2*%
%TO.N,/D4*%
X53620000Y-54610000D03*
%TD*%
D27*
%TO.P,C12,1*%
%TO.N,VCC*%
X41229700Y-88900000D03*
D28*
%TO.P,C12,2*%
%TO.N,GND*%
X36229700Y-88900000D03*
%TD*%
D26*
%TO.P,F1,1*%
%TO.N,/RAW+FUSE*%
X60680000Y-71882000D03*
%TO.P,F1,2*%
%TO.N,/RAW+*%
X63780000Y-71882000D03*
%TD*%
D29*
%TO.P,Y1,1,1*%
%TO.N,/XTAL1*%
X29692000Y-77360000D03*
%TO.P,Y1,2*%
%TO.N,N/C*%
X29692000Y-82660000D03*
%TO.P,Y1,3*%
X32792000Y-82660000D03*
%TO.P,Y1,4,4*%
%TO.N,/XTAL2*%
X32792000Y-77360000D03*
%TD*%
D22*
%TO.P,C8,1*%
%TO.N,/RAW+FUSE*%
X59944000Y-64985500D03*
%TO.P,C8,2*%
%TO.N,GND*%
X59944000Y-68110500D03*
%TD*%
D26*
%TO.P,R2,1*%
%TO.N,Net-(D1-Pad1)*%
X50520000Y-57404000D03*
%TO.P,R2,2*%
%TO.N,/D5*%
X53620000Y-57404000D03*
%TD*%
D22*
%TO.P,C1,1*%
%TO.N,GND*%
X39116000Y-76923500D03*
%TO.P,C1,2*%
%TO.N,VCC*%
X39116000Y-80048500D03*
%TD*%
%TO.P,C7,1*%
%TO.N,GND*%
X53340000Y-64985500D03*
%TO.P,C7,2*%
%TO.N,VCC*%
X53340000Y-68110500D03*
%TD*%
D30*
%TO.P,U4,1,GND*%
%TO.N,GND*%
X69732000Y-65810000D03*
D31*
%TO.P,U4,2,VI*%
%TO.N,Net-(C10-Pad1)*%
X69819500Y-67310000D03*
D30*
%TO.P,U4,3,VO*%
%TO.N,VCC*%
X69732000Y-68810000D03*
%TD*%
D32*
%TO.P,Q1,1,G*%
%TO.N,Net-(Q1-Pad1)*%
X59460000Y-60010000D03*
%TO.P,Q1,2,S*%
%TO.N,GND*%
X59460000Y-61910000D03*
%TO.P,Q1,3,D*%
%TO.N,/RAW-*%
X62460000Y-60960000D03*
%TD*%
D16*
%TO.P,R8,1*%
%TO.N,Net-(R8-Pad1)*%
X48260000Y-94768000D03*
%TO.P,R8,2*%
%TO.N,/SCL*%
X48260000Y-91668000D03*
%TD*%
D20*
%TO.P,R7,1*%
%TO.N,Net-(Q2-Pad1)*%
X52858000Y-71882000D03*
%TO.P,R7,2*%
%TO.N,/RAW-*%
X49758000Y-71882000D03*
%TD*%
D22*
%TO.P,C4,1*%
%TO.N,GND*%
X36322000Y-76923500D03*
%TO.P,C4,2*%
%TO.N,/XTAL1*%
X36322000Y-80048500D03*
%TD*%
D33*
%TO.P,L1,1,1*%
%TO.N,/RAW+FUSE*%
X57719000Y-56642000D03*
%TO.P,L1,2,2*%
%TO.N,Net-(L1-Pad2)*%
X62169000Y-56642000D03*
%TD*%
D19*
%TO.P,C11,1*%
%TO.N,VCC*%
X55079500Y-71882000D03*
%TO.P,C11,2*%
%TO.N,GND*%
X58204500Y-71882000D03*
%TD*%
D14*
%TO.P,J5,1,Pin_1*%
%TO.N,/MISO*%
X71125000Y-61199000D03*
D15*
%TO.P,J5,2,Pin_2*%
%TO.N,VCC*%
X68585000Y-61199000D03*
%TO.P,J5,3,Pin_3*%
%TO.N,/SCK*%
X71125000Y-58659000D03*
%TO.P,J5,4,Pin_4*%
%TO.N,/MOSI*%
X68585000Y-58659000D03*
%TO.P,J5,5,Pin_5*%
%TO.N,/RESET*%
X71125000Y-56119000D03*
%TO.P,J5,6,Pin_6*%
%TO.N,GND*%
X68585000Y-56119000D03*
%TD*%
D14*
%TO.P,J4,1,Pin_1*%
%TO.N,/DTR*%
X73660000Y-87884000D03*
D15*
%TO.P,J4,2,Pin_2*%
%TO.N,/TXD*%
X73660000Y-85344000D03*
%TO.P,J4,3,Pin_3*%
%TO.N,/RXD*%
X73660000Y-82804000D03*
%TO.P,J4,4,Pin_4*%
%TO.N,VCC*%
X73660000Y-80264000D03*
%TO.P,J4,5,Pin_5*%
%TO.N,GND*%
X73660000Y-77724000D03*
%TO.P,J4,6,Pin_6*%
X73660000Y-75184000D03*
%TD*%
D34*
%TO.P,D1,1,A1*%
%TO.N,Net-(D1-Pad1)*%
X49520000Y-50292000D03*
D35*
%TO.P,D1,2,K*%
%TO.N,GND*%
X52060000Y-50292000D03*
%TO.P,D1,3,A2*%
%TO.N,Net-(D1-Pad3)*%
X54600000Y-50292000D03*
%TD*%
D25*
%TO.P,SW1,1,1*%
%TO.N,/RESET*%
X58656000Y-51308000D03*
%TO.P,SW1,2,2*%
%TO.N,GND*%
X67836000Y-51308000D03*
%TD*%
D36*
%TO.P,Q2,1,G*%
%TO.N,Net-(Q2-Pad1)*%
X67244000Y-65556000D03*
%TO.P,Q2,2,S*%
%TO.N,Net-(C10-Pad1)*%
X65344000Y-65556000D03*
%TO.P,Q2,3,D*%
%TO.N,/RAW+FUSE*%
X66294000Y-68556000D03*
%TD*%
D21*
%TO.P,C5,1*%
%TO.N,Net-(C5-Pad1)*%
X60490500Y-83566000D03*
%TO.P,C5,2*%
%TO.N,GND*%
X57365500Y-83566000D03*
%TD*%
D19*
%TO.P,C3,1*%
%TO.N,/XTAL2*%
X29425500Y-85852000D03*
%TO.P,C3,2*%
%TO.N,GND*%
X32550500Y-85852000D03*
%TD*%
D37*
%TO.P,U1,1,PD3*%
%TO.N,/D3*%
X45534000Y-79496000D03*
%TO.P,U1,2,PD4*%
%TO.N,/D4*%
X45534000Y-80296000D03*
%TO.P,U1,3,GND*%
%TO.N,GND*%
X45534000Y-81096000D03*
%TO.P,U1,4,VCC*%
%TO.N,VCC*%
X45534000Y-81896000D03*
%TO.P,U1,5,GND*%
%TO.N,GND*%
X45534000Y-82696000D03*
%TO.P,U1,6,VCC*%
%TO.N,VCC*%
X45534000Y-83496000D03*
%TO.P,U1,7,XTAL1/PB6*%
%TO.N,/XTAL1*%
X45534000Y-84296000D03*
%TO.P,U1,8,XTAL2/PB7*%
%TO.N,/XTAL2*%
X45534000Y-85096000D03*
D38*
%TO.P,U1,9,PD5*%
%TO.N,/D5*%
X46984000Y-86546000D03*
%TO.P,U1,10,PD6*%
%TO.N,/D6*%
X47784000Y-86546000D03*
%TO.P,U1,11,PD7*%
%TO.N,/D7*%
X48584000Y-86546000D03*
%TO.P,U1,12,PB0*%
%TO.N,/CONFIG*%
X49384000Y-86546000D03*
%TO.P,U1,13,PB1*%
%TO.N,/B1*%
X50184000Y-86546000D03*
%TO.P,U1,14,PB2*%
%TO.N,/SS*%
X50984000Y-86546000D03*
%TO.P,U1,15,PB3*%
%TO.N,/MOSI*%
X51784000Y-86546000D03*
%TO.P,U1,16,PB4*%
%TO.N,/MISO*%
X52584000Y-86546000D03*
D37*
%TO.P,U1,17,PB5*%
%TO.N,/SCK*%
X54034000Y-85096000D03*
%TO.P,U1,18,AVCC*%
%TO.N,VCC*%
X54034000Y-84296000D03*
%TO.P,U1,19,ADC6*%
%TO.N,unconnected-(U1-Pad19)*%
X54034000Y-83496000D03*
%TO.P,U1,20,AREF*%
%TO.N,Net-(C5-Pad1)*%
X54034000Y-82696000D03*
%TO.P,U1,21,GND*%
%TO.N,GND*%
X54034000Y-81896000D03*
%TO.P,U1,22,ADC7*%
%TO.N,unconnected-(U1-Pad22)*%
X54034000Y-81096000D03*
%TO.P,U1,23,PC0*%
%TO.N,/A0*%
X54034000Y-80296000D03*
%TO.P,U1,24,PC1*%
%TO.N,/A1*%
X54034000Y-79496000D03*
D38*
%TO.P,U1,25,PC2*%
%TO.N,/A2*%
X52584000Y-78046000D03*
%TO.P,U1,26,PC3*%
%TO.N,/A3*%
X51784000Y-78046000D03*
%TO.P,U1,27,PC4*%
%TO.N,/SDA*%
X50984000Y-78046000D03*
%TO.P,U1,28,PC5*%
%TO.N,/SCL*%
X50184000Y-78046000D03*
%TO.P,U1,29,~{RESET}/PC6*%
%TO.N,/RESET*%
X49384000Y-78046000D03*
%TO.P,U1,30,PD0*%
%TO.N,/RXD*%
X48584000Y-78046000D03*
%TO.P,U1,31,PD1*%
%TO.N,/TXD*%
X47784000Y-78046000D03*
%TO.P,U1,32,PD2*%
%TO.N,/D2*%
X46984000Y-78046000D03*
%TD*%
D39*
%TO.N,GND*%
X33850300Y-85864900D03*
X59436000Y-55372000D03*
X55995000Y-81771400D03*
X45230000Y-49867300D03*
X51689000Y-64985500D03*
X59234900Y-62935400D03*
X58634400Y-83583500D03*
X61193200Y-94281100D03*
X40581500Y-75961900D03*
X69732000Y-64753000D03*
X61214000Y-74168000D03*
X59944000Y-66842800D03*
X58674000Y-81611400D03*
X56938100Y-71866800D03*
X66294000Y-56134000D03*
X53235000Y-60960000D03*
X67836000Y-49868900D03*
X56642000Y-53848000D03*
X60706000Y-56388000D03*
X50546000Y-63627000D03*
X62484000Y-75438000D03*
X56896000Y-66251200D03*
%TO.N,VCC*%
X41228300Y-81867000D03*
%TO.N,/RAW+FUSE*%
X56183900Y-70613100D03*
X56553200Y-85884900D03*
X58989300Y-58021800D03*
%TO.N,/RESET*%
X48716200Y-74676200D03*
%TO.N,/RAW+*%
X64269600Y-74339300D03*
%TO.N,/RAW-*%
X55620100Y-73470000D03*
X62360900Y-62000100D03*
%TO.N,/D5*%
X54883200Y-57040100D03*
X43082400Y-85584200D03*
%TO.N,/D7*%
X42984800Y-87059100D03*
X47322600Y-74927300D03*
%TO.N,/SDA*%
X55323600Y-75869600D03*
X57729900Y-85939000D03*
%TO.N,/SS*%
X48984500Y-88987600D03*
X44991300Y-75308700D03*
%TO.N,/MOSI*%
X49279900Y-63716800D03*
X47730300Y-89228800D03*
%TO.N,/MISO*%
X60771900Y-85092400D03*
%TO.N,/SCK*%
X56003700Y-83458500D03*
X54544800Y-62847400D03*
%TO.N,/RXD*%
X48508400Y-76084900D03*
%TO.N,/TXD*%
X47200000Y-76105200D03*
%TD*%
D40*
%TO.N,GND*%
X39116000Y-76923500D02*
X36322000Y-76923500D01*
X61193200Y-94281100D02*
X60986300Y-94488000D01*
X55358900Y-81771400D02*
X55234300Y-81896000D01*
X45534000Y-82696000D02*
X46734300Y-82696000D01*
X54034000Y-81896000D02*
X46734300Y-81896000D01*
X57365500Y-79756000D02*
X55995000Y-81126500D01*
X33850300Y-85864900D02*
X32563400Y-85864900D01*
X41910000Y-76923500D02*
X40581500Y-76923500D01*
X51689000Y-64985500D02*
X50038000Y-64985500D01*
X59460000Y-61910000D02*
X59460000Y-62710300D01*
X46734300Y-81896000D02*
X46734300Y-82696000D01*
X60086000Y-94488000D02*
X60986300Y-94488000D01*
X57383000Y-83583500D02*
X58634400Y-83583500D01*
X51689000Y-63881000D02*
X51689000Y-64985500D01*
X53030300Y-60960000D02*
X53235000Y-60960000D01*
X40581500Y-75961900D02*
X40581500Y-76923500D01*
X57365500Y-83566000D02*
X57383000Y-83583500D01*
X58189300Y-71866800D02*
X58204500Y-71882000D01*
X46734300Y-81096000D02*
X46734300Y-81896000D01*
X54034000Y-81896000D02*
X55234300Y-81896000D01*
X51689000Y-64985500D02*
X53340000Y-64985500D01*
X64008000Y-53848000D02*
X56642000Y-53848000D01*
X45534000Y-81096000D02*
X46734300Y-81096000D01*
X58674000Y-81788000D02*
X58674000Y-81611400D01*
X45230000Y-51308000D02*
X45230000Y-49867300D01*
X67836000Y-51308000D02*
X67836000Y-49868900D01*
X55995000Y-81126500D02*
X55995000Y-81771400D01*
X55995000Y-81771400D02*
X55358900Y-81771400D01*
X50038000Y-65808000D02*
X46584000Y-69262000D01*
X59690000Y-55372000D02*
X60706000Y-56388000D01*
X59234900Y-62935400D02*
X59460000Y-62710300D01*
X40581500Y-76923500D02*
X39116000Y-76923500D01*
X56938100Y-71866800D02*
X58189300Y-71866800D01*
X59944000Y-66842800D02*
X59944000Y-68110500D01*
X51630000Y-60960000D02*
X53030300Y-60960000D01*
X56896000Y-64985500D02*
X56896000Y-66251200D01*
X50546000Y-63627000D02*
X51435000Y-63627000D01*
X59436000Y-55372000D02*
X59690000Y-55372000D01*
X50038000Y-64985500D02*
X50038000Y-65808000D01*
X69732000Y-65810000D02*
X69732000Y-64753000D01*
X51435000Y-63627000D02*
X51689000Y-63881000D01*
X32563400Y-85864900D02*
X32550500Y-85852000D01*
X55995000Y-81771400D02*
X58657400Y-81771400D01*
X58657400Y-81771400D02*
X58674000Y-81788000D01*
X61214000Y-74168000D02*
X62484000Y-75438000D01*
X66294000Y-56134000D02*
X64008000Y-53848000D01*
%TO.N,VCC*%
X62021500Y-73222900D02*
X63938200Y-75139600D01*
X54034000Y-84296000D02*
X50465700Y-84296000D01*
X45534000Y-83496000D02*
X44333700Y-83496000D01*
X54718400Y-95638400D02*
X65202400Y-95638400D01*
X60986300Y-91694000D02*
X63760300Y-91694000D01*
X67775600Y-95284200D02*
X69522100Y-93537700D01*
X52298000Y-93218000D02*
X53848000Y-94768000D01*
X55079500Y-71882000D02*
X53791600Y-73169900D01*
X69522100Y-93537700D02*
X69522100Y-91739700D01*
X56896000Y-68110500D02*
X55472500Y-68110500D01*
X50038000Y-68110500D02*
X51707400Y-68110500D01*
X53848000Y-94768000D02*
X54718400Y-95638400D01*
X74735100Y-89156800D02*
X74916500Y-88975400D01*
X74916500Y-82252700D02*
X74178100Y-81514300D01*
X44333700Y-83496000D02*
X44333700Y-81896000D01*
X50465700Y-84296000D02*
X49665700Y-83496000D01*
X69522100Y-91739700D02*
X72105000Y-89156800D01*
X55163900Y-71882000D02*
X56504800Y-73222900D01*
X63938200Y-75139600D02*
X66294000Y-75139600D01*
X55050000Y-61910000D02*
X55472500Y-61910000D01*
X66294000Y-76718000D02*
X66294000Y-75467700D01*
X42630000Y-88900000D02*
X46948000Y-93218000D01*
X50038000Y-68110500D02*
X47859300Y-70289200D01*
X72105000Y-89156800D02*
X74735100Y-89156800D01*
X55472500Y-61910000D02*
X55472500Y-68110500D01*
X39116000Y-80048500D02*
X41228300Y-80048500D01*
X45534000Y-81896000D02*
X44333700Y-81896000D01*
X51707400Y-68110500D02*
X53340000Y-68110500D01*
X73660000Y-80264000D02*
X73660000Y-81514300D01*
X65556600Y-95284200D02*
X67775600Y-95284200D01*
X65202400Y-95638400D02*
X65556600Y-95284200D01*
X44333700Y-81896000D02*
X41257300Y-81896000D01*
X56504800Y-73222900D02*
X62021500Y-73222900D01*
X41228300Y-80048500D02*
X41228300Y-81867000D01*
X55079500Y-71882000D02*
X55163900Y-71882000D01*
X74916500Y-88975400D02*
X74916500Y-82252700D01*
X47859300Y-70289200D02*
X47859300Y-71262000D01*
X46948000Y-93218000D02*
X52298000Y-93218000D01*
X69732000Y-71701600D02*
X66294000Y-75139600D01*
X41257300Y-81896000D02*
X41228300Y-81867000D01*
X69732000Y-68810000D02*
X69732000Y-71701600D01*
X74178100Y-81514300D02*
X73660000Y-81514300D01*
X46584000Y-71262000D02*
X47859300Y-71262000D01*
X49665700Y-83496000D02*
X45534000Y-83496000D01*
X41228300Y-80048500D02*
X41910000Y-80048500D01*
X55472500Y-68110500D02*
X53340000Y-68110500D01*
X66294000Y-75139600D02*
X66294000Y-75467700D01*
X51707400Y-72770400D02*
X51707400Y-68110500D01*
X65556600Y-93490300D02*
X65556600Y-95284200D01*
X60086000Y-91694000D02*
X60986300Y-91694000D01*
X53791600Y-73169900D02*
X52106900Y-73169900D01*
X63760300Y-91694000D02*
X65556600Y-93490300D01*
X52106900Y-73169900D02*
X51707400Y-72770400D01*
X41229700Y-88900000D02*
X42630000Y-88900000D01*
D41*
%TO.N,/XTAL2*%
X40220000Y-84583400D02*
X31240600Y-84583400D01*
X43620000Y-85096000D02*
X43382900Y-84858900D01*
X30317100Y-84960400D02*
X29425500Y-85852000D01*
X32792000Y-79610000D02*
X32792000Y-77360000D01*
X30694100Y-84583400D02*
X30317100Y-84960400D01*
X31240600Y-81161400D02*
X32792000Y-79610000D01*
X31240600Y-84583400D02*
X31240600Y-81161400D01*
X40495500Y-84858900D02*
X40220000Y-84583400D01*
X31240600Y-84583400D02*
X30694100Y-84583400D01*
X45534000Y-85096000D02*
X43620000Y-85096000D01*
X43382900Y-84858900D02*
X40495500Y-84858900D01*
%TO.N,/XTAL1*%
X29692000Y-75413200D02*
X30073600Y-75031600D01*
X36322000Y-80048500D02*
X35141300Y-80048500D01*
X29692000Y-77360000D02*
X29692000Y-75413200D01*
X34442400Y-79349600D02*
X35141300Y-80048500D01*
X44408700Y-84296000D02*
X40569500Y-84296000D01*
X30073600Y-75031600D02*
X34086800Y-75031600D01*
X34086800Y-75031600D02*
X34442400Y-75387200D01*
X40569500Y-84296000D02*
X36322000Y-80048500D01*
X34442400Y-75387200D02*
X34442400Y-79349600D01*
X45534000Y-84296000D02*
X44408700Y-84296000D01*
%TO.N,Net-(C5-Pad1)*%
X56695400Y-82335900D02*
X59260400Y-82335900D01*
X56335300Y-82696000D02*
X56695400Y-82335900D01*
X54034000Y-82696000D02*
X56335300Y-82696000D01*
X59260400Y-82335900D02*
X60490500Y-83566000D01*
D40*
%TO.N,/RAW+FUSE*%
X63793600Y-70256100D02*
X65493700Y-68556000D01*
X62738000Y-64998000D02*
X62725500Y-64985500D01*
X60680000Y-71882000D02*
X59340700Y-70542700D01*
X57719000Y-56642000D02*
X57719000Y-56751500D01*
X56553200Y-86805200D02*
X57378000Y-87630000D01*
X59340700Y-70542700D02*
X56254300Y-70542700D01*
X51630000Y-60010000D02*
X53030300Y-60010000D01*
X62725500Y-64985500D02*
X59944000Y-64985500D01*
X65493700Y-67753700D02*
X62738000Y-64998000D01*
X51630000Y-60010000D02*
X50229700Y-60010000D01*
X66294000Y-68556000D02*
X65493700Y-68556000D01*
X60680000Y-71882000D02*
X62305900Y-70256100D01*
X50229700Y-61910000D02*
X50229700Y-60010000D01*
X56413100Y-56642000D02*
X57719000Y-56642000D01*
X57719000Y-56751500D02*
X58989300Y-58021800D01*
X65493700Y-68556000D02*
X65493700Y-67753700D01*
X56254300Y-70542700D02*
X56183900Y-70613100D01*
X53045100Y-60010000D02*
X56413100Y-56642000D01*
X53030300Y-60010000D02*
X53045100Y-60010000D01*
X62305900Y-70256100D02*
X63793600Y-70256100D01*
X56553200Y-85884900D02*
X56553200Y-86805200D01*
X51630000Y-61910000D02*
X50229700Y-61910000D01*
D41*
%TO.N,Net-(C10-Pad1)*%
X66069300Y-65556000D02*
X66069300Y-66281300D01*
X70340000Y-67310000D02*
X71218400Y-68188400D01*
X65344000Y-65556000D02*
X66069300Y-65556000D01*
X71218400Y-68188400D02*
X71218400Y-73958500D01*
X67283500Y-77893400D02*
X62353100Y-77893400D01*
X66069300Y-66281300D02*
X67098000Y-67310000D01*
X67098000Y-67310000D02*
X69819500Y-67310000D01*
X69819500Y-67310000D02*
X70340000Y-67310000D01*
X71218400Y-73958500D02*
X67283500Y-77893400D01*
X62353100Y-77893400D02*
X60490500Y-79756000D01*
%TO.N,/DTR*%
X69476700Y-90152400D02*
X65729900Y-90152400D01*
X73660000Y-87884000D02*
X71745100Y-87884000D01*
X65729900Y-90152400D02*
X64477500Y-88900000D01*
X71745100Y-87884000D02*
X69476700Y-90152400D01*
%TO.N,/RESET*%
X75530200Y-61332200D02*
X75530200Y-70283600D01*
X67602500Y-87669200D02*
X67602500Y-88900000D01*
X75530200Y-70283600D02*
X68915300Y-76898500D01*
X63818200Y-87669200D02*
X61471800Y-90015600D01*
X58656000Y-51308000D02*
X58656000Y-52433300D01*
X71125000Y-57294300D02*
X71492300Y-57294300D01*
X69949700Y-56119000D02*
X69949700Y-55751700D01*
X68915300Y-76898500D02*
X68915300Y-86356400D01*
X61471800Y-90015600D02*
X55500400Y-90015600D01*
X49384000Y-75344000D02*
X48716200Y-74676200D01*
X71125000Y-56119000D02*
X71125000Y-57294300D01*
X49384000Y-78046000D02*
X49384000Y-75344000D01*
X70537400Y-56119000D02*
X69949700Y-56119000D01*
X66631300Y-52433300D02*
X58656000Y-52433300D01*
X71492300Y-57294300D02*
X75530200Y-61332200D01*
X68915300Y-86356400D02*
X67602500Y-87669200D01*
X70537400Y-56119000D02*
X71125000Y-56119000D01*
X67602500Y-87669200D02*
X63818200Y-87669200D01*
X69949700Y-55751700D02*
X66631300Y-52433300D01*
X55500400Y-90015600D02*
X53848000Y-91668000D01*
%TO.N,Net-(D1-Pad1)*%
X49520000Y-50292000D02*
X49520000Y-51517300D01*
X49520000Y-56404000D02*
X50520000Y-57404000D01*
X49520000Y-51517300D02*
X49520000Y-56404000D01*
%TO.N,Net-(D1-Pad3)*%
X54600000Y-50530000D02*
X50520000Y-54610000D01*
X54600000Y-50292000D02*
X54600000Y-50530000D01*
D40*
%TO.N,/RAW+*%
X63780000Y-71882000D02*
X64269600Y-72371600D01*
X66807000Y-93980000D02*
X66807000Y-92729700D01*
X64269600Y-72371600D02*
X64269600Y-74339300D01*
X64621000Y-90543700D02*
X58786000Y-90543700D01*
X66807000Y-92729700D02*
X64621000Y-90543700D01*
X58786000Y-91694000D02*
X58786000Y-90543700D01*
%TO.N,/RAW-*%
X58786000Y-94488000D02*
X58786000Y-93337700D01*
X62460000Y-61901000D02*
X62460000Y-60960000D01*
X64267000Y-93980000D02*
X63016700Y-93980000D01*
X55312900Y-73470000D02*
X55620100Y-73470000D01*
X62374400Y-93337700D02*
X58786000Y-93337700D01*
X49758000Y-71882000D02*
X51646200Y-73770200D01*
X55012700Y-73770200D02*
X55312900Y-73470000D01*
X51646200Y-73770200D02*
X55012700Y-73770200D01*
X62360900Y-62000100D02*
X62460000Y-61901000D01*
X63016700Y-93980000D02*
X62374400Y-93337700D01*
D41*
%TO.N,Net-(L1-Pad2)*%
X57594700Y-58790600D02*
X56375300Y-60010000D01*
X60020400Y-58790600D02*
X57594700Y-58790600D01*
X55050000Y-60010000D02*
X56375300Y-60010000D01*
X62169000Y-56642000D02*
X60020400Y-58790600D01*
%TO.N,/D4*%
X53620000Y-54610000D02*
X55873200Y-52356800D01*
X55873200Y-49820300D02*
X55116500Y-49063600D01*
X47470000Y-50040200D02*
X47470000Y-54731500D01*
X45534000Y-80296000D02*
X44408700Y-80296000D01*
X44266000Y-57935500D02*
X44266000Y-80153300D01*
X47470000Y-54731500D02*
X44266000Y-57935500D01*
X48446600Y-49063600D02*
X47470000Y-50040200D01*
X55116500Y-49063600D02*
X48446600Y-49063600D01*
X55873200Y-52356800D02*
X55873200Y-49820300D01*
X44266000Y-80153300D02*
X44408700Y-80296000D01*
%TO.N,/D5*%
X44044200Y-86546000D02*
X43082400Y-85584200D01*
X46984000Y-86546000D02*
X44044200Y-86546000D01*
X53983900Y-57040100D02*
X54883200Y-57040100D01*
X53620000Y-57404000D02*
X53983900Y-57040100D01*
%TO.N,/A3*%
X51784000Y-76920700D02*
X56403300Y-76920700D01*
X61507500Y-86600500D02*
X60478000Y-87630000D01*
X58599500Y-80413700D02*
X60128500Y-81942700D01*
X60755100Y-81942700D02*
X61507500Y-82695100D01*
X61507500Y-82695100D02*
X61507500Y-86600500D01*
X58599500Y-78995100D02*
X58599500Y-80413700D01*
X56464200Y-76859800D02*
X57378000Y-75946000D01*
X56403300Y-76920700D02*
X56464200Y-76859800D01*
X51784000Y-78046000D02*
X51784000Y-76920700D01*
X60128500Y-81942700D02*
X60755100Y-81942700D01*
X56464200Y-76859800D02*
X58599500Y-78995100D01*
%TO.N,/D7*%
X50977000Y-73932100D02*
X48317800Y-73932100D01*
X48317800Y-73932100D02*
X47322600Y-74927300D01*
X51390300Y-74345400D02*
X50977000Y-73932100D01*
X55180500Y-74345400D02*
X51390300Y-74345400D01*
X43597000Y-87671300D02*
X42984800Y-87059100D01*
X55330600Y-74195300D02*
X55180500Y-74345400D01*
X60478000Y-75946000D02*
X58727300Y-74195300D01*
X58727300Y-74195300D02*
X55330600Y-74195300D01*
X48584000Y-86546000D02*
X48584000Y-87671300D01*
X48584000Y-87671300D02*
X43597000Y-87671300D01*
%TO.N,Net-(Q1-Pad1)*%
X58674100Y-63952800D02*
X58674100Y-65593300D01*
X58734700Y-60735300D02*
X58180200Y-61289800D01*
X60614400Y-65974400D02*
X62738000Y-68098000D01*
X59460000Y-60010000D02*
X59460000Y-60735300D01*
X58674100Y-65593300D02*
X59055200Y-65974400D01*
X58180200Y-63458900D02*
X58674100Y-63952800D01*
X58180200Y-61289800D02*
X58180200Y-63458900D01*
X59055200Y-65974400D02*
X60614400Y-65974400D01*
X59460000Y-60735300D02*
X58734700Y-60735300D01*
%TO.N,Net-(Q2-Pad1)*%
X55325600Y-69414400D02*
X52858000Y-71882000D01*
X58122400Y-64038000D02*
X58122400Y-68775600D01*
X58122400Y-68775600D02*
X57483600Y-69414400D01*
X67244000Y-63896000D02*
X62632600Y-59284600D01*
X62632600Y-59284600D02*
X58364800Y-59284600D01*
X58364800Y-59284600D02*
X57729800Y-59919600D01*
X67244000Y-65556000D02*
X67244000Y-63896000D01*
X57729800Y-63645400D02*
X58122400Y-64038000D01*
X57729800Y-59919600D02*
X57729800Y-63645400D01*
X57483600Y-69414400D02*
X55325600Y-69414400D01*
%TO.N,/SCL*%
X52451000Y-92161700D02*
X51968300Y-92644400D01*
X67522300Y-83834300D02*
X67522300Y-84773600D01*
X66294000Y-82973300D02*
X66661300Y-82973300D01*
X50184000Y-78046000D02*
X50184000Y-76920700D01*
X59116500Y-80293800D02*
X60160000Y-81337300D01*
X54107100Y-89565200D02*
X52451000Y-91221300D01*
X52451000Y-91221300D02*
X52451000Y-92161700D01*
X65849800Y-86446100D02*
X64161700Y-86446100D01*
X66294000Y-81798000D02*
X66294000Y-82973300D01*
X55116900Y-75045900D02*
X55455900Y-74706900D01*
X52058800Y-75045900D02*
X55116900Y-75045900D01*
X67522300Y-84773600D02*
X65849800Y-86446100D01*
X66294000Y-81798000D02*
X65118700Y-81798000D01*
X49236400Y-92644400D02*
X48260000Y-91668000D01*
X51968300Y-92644400D02*
X49236400Y-92644400D01*
X59116500Y-75837700D02*
X59116500Y-80293800D01*
X60160000Y-81337300D02*
X64658000Y-81337300D01*
X57985700Y-74706900D02*
X59116500Y-75837700D01*
X50184000Y-76920700D02*
X52058800Y-75045900D01*
X66661300Y-82973300D02*
X67522300Y-83834300D01*
X55455900Y-74706900D02*
X57985700Y-74706900D01*
X64161700Y-86446100D02*
X61042600Y-89565200D01*
X64658000Y-81337300D02*
X65118700Y-81798000D01*
X61042600Y-89565200D02*
X54107100Y-89565200D01*
%TO.N,/SDA*%
X51054000Y-91668000D02*
X53825000Y-88897000D01*
X53825000Y-88897000D02*
X58403800Y-88897000D01*
X66294000Y-84338000D02*
X65118700Y-84338000D01*
X50984000Y-78046000D02*
X50984000Y-76920700D01*
X61073900Y-88897000D02*
X65118700Y-84852200D01*
X65118700Y-84852200D02*
X65118700Y-84338000D01*
X57729900Y-85939000D02*
X58403800Y-86612900D01*
X58403800Y-88897000D02*
X61073900Y-88897000D01*
X52035100Y-75869600D02*
X55323600Y-75869600D01*
X58403800Y-86612900D02*
X58403800Y-88897000D01*
X50984000Y-76920700D02*
X52035100Y-75869600D01*
%TO.N,/CONFIG*%
X28316600Y-86644700D02*
X28316600Y-75830200D01*
X43027200Y-88153000D02*
X42428600Y-87554400D01*
X28316600Y-75830200D02*
X36050000Y-68096800D01*
X49384000Y-86546000D02*
X49384000Y-87671300D01*
X48902300Y-88153000D02*
X43027200Y-88153000D01*
X42428600Y-87554400D02*
X29226300Y-87554400D01*
X49384000Y-87671300D02*
X48902300Y-88153000D01*
X36050000Y-68096800D02*
X36050000Y-51308000D01*
X29226300Y-87554400D02*
X28316600Y-86644700D01*
%TO.N,/SS*%
X44991300Y-75308700D02*
X44910600Y-75228000D01*
X50300800Y-87671300D02*
X48984500Y-88987600D01*
X50984000Y-87671300D02*
X50300800Y-87671300D01*
X44910600Y-59301100D02*
X45974400Y-58237300D01*
X45974400Y-58237300D02*
X46584000Y-58237300D01*
X44910600Y-75228000D02*
X44910600Y-59301100D01*
X50984000Y-86546000D02*
X50984000Y-87671300D01*
X46584000Y-57262000D02*
X46584000Y-58237300D01*
%TO.N,/MOSI*%
X46584000Y-66286700D02*
X47193600Y-66286700D01*
X50226500Y-89228800D02*
X51784000Y-87671300D01*
X49769000Y-89228900D02*
X49769000Y-89228800D01*
X49769000Y-89228800D02*
X50226500Y-89228800D01*
X48214400Y-89712900D02*
X49285000Y-89712900D01*
X51784000Y-86546000D02*
X51784000Y-87671300D01*
X46584000Y-67262000D02*
X46584000Y-66286700D01*
X48312700Y-65167600D02*
X48312700Y-64684000D01*
X48312700Y-64684000D02*
X49279900Y-63716800D01*
X47730300Y-89228800D02*
X48214400Y-89712900D01*
X49285000Y-89712900D02*
X49769000Y-89228900D01*
X47193600Y-66286700D02*
X48312700Y-65167600D01*
%TO.N,/MISO*%
X51695500Y-57488500D02*
X51695500Y-58072400D01*
X50661400Y-59106500D02*
X50343900Y-59106500D01*
X69141800Y-60023700D02*
X68213900Y-60023700D01*
X60771900Y-85092500D02*
X60771900Y-85092400D01*
X47163700Y-62286700D02*
X46584000Y-62286700D01*
X54733000Y-86546000D02*
X56186500Y-85092500D01*
X55526000Y-55847700D02*
X53336300Y-55847700D01*
X56771600Y-54602100D02*
X55526000Y-55847700D01*
X52584000Y-86546000D02*
X54733000Y-86546000D01*
X68213900Y-60023700D02*
X64041700Y-55851500D01*
X62905000Y-54602100D02*
X56771600Y-54602100D01*
X56186500Y-85092500D02*
X60771900Y-85092500D01*
X64041700Y-55738800D02*
X62905000Y-54602100D01*
X69949700Y-60831600D02*
X69141800Y-60023700D01*
X69949700Y-61199000D02*
X69949700Y-60831600D01*
X51695500Y-58072400D02*
X50661400Y-59106500D01*
X64041700Y-55851500D02*
X64041700Y-55738800D01*
X46584000Y-63262000D02*
X46584000Y-62286700D01*
X71125000Y-61199000D02*
X69949700Y-61199000D01*
X50343900Y-59106500D02*
X47163700Y-62286700D01*
X53336300Y-55847700D02*
X51695500Y-57488500D01*
%TO.N,/SCK*%
X47559300Y-64286700D02*
X48998500Y-62847500D01*
X48998500Y-62847500D02*
X54544800Y-62847500D01*
X55159300Y-84302900D02*
X56003700Y-83458500D01*
X54544800Y-62847500D02*
X54544800Y-62847400D01*
X46584000Y-64286700D02*
X47559300Y-64286700D01*
X55159300Y-85096000D02*
X55159300Y-84302900D01*
X54034000Y-85096000D02*
X55159300Y-85096000D01*
X46584000Y-65262000D02*
X46584000Y-64286700D01*
%TO.N,Net-(R8-Pad1)*%
X48260000Y-94768000D02*
X51054000Y-94768000D01*
%TO.N,/RXD*%
X48584000Y-76160500D02*
X48508400Y-76084900D01*
X48584000Y-78046000D02*
X48584000Y-76160500D01*
%TO.N,/TXD*%
X47784000Y-76689200D02*
X47200000Y-76105200D01*
X47784000Y-78046000D02*
X47784000Y-76689200D01*
%TO.N,/D2*%
X46984000Y-78046000D02*
X46984000Y-76920700D01*
X46584000Y-59262000D02*
X46584000Y-60237300D01*
X46383700Y-74242100D02*
X45361000Y-73219400D01*
X46383700Y-76320400D02*
X46383700Y-74242100D01*
X45974400Y-60237300D02*
X46584000Y-60237300D01*
X45361000Y-73219400D02*
X45361000Y-60850700D01*
X46984000Y-76920700D02*
X46383700Y-76320400D01*
X45361000Y-60850700D02*
X45974400Y-60237300D01*
%TD*%
M02*
