%TF.GenerationSoftware,KiCad,Pcbnew,(6.0.7)*%
%TF.CreationDate,2023-04-08T23:38:01+02:00*%
%TF.ProjectId,hb-uni-644_328P_small,68622d75-6e69-42d3-9634-345f33323850,rev?*%
%TF.SameCoordinates,Original*%
%TF.FileFunction,Drillmap*%
%TF.FilePolarity,Positive*%
%FSLAX45Y45*%
G04 Gerber Fmt 4.5, Leading zero omitted, Abs format (unit mm)*
G04 Created by KiCad (PCBNEW (6.0.7)) date 2023-04-08 23:38:01*
%MOMM*%
%LPD*%
G01*
G04 APERTURE LIST*
%ADD10C,0.150000*%
%ADD11C,0.200000*%
G04 APERTURE END LIST*
D10*
X2870200Y-6731000D02*
G75*
G03*
X2921000Y-6680200I0J50800D01*
G01*
X2768603Y-9498697D02*
G75*
G03*
X2895600Y-9625697I126997J-3D01*
G01*
X7493000Y-9626600D02*
X2895600Y-9625697D01*
X2895600Y-4775200D02*
G75*
G03*
X2768600Y-4902200I0J-127000D01*
G01*
X2895600Y-4775200D02*
X7493000Y-4775200D01*
X2844800Y-5918200D02*
X2870200Y-5918200D01*
X2921000Y-5969000D02*
G75*
G03*
X2870200Y-5918200I-50800J0D01*
G01*
X7620000Y-4902200D02*
G75*
G03*
X7493000Y-4775200I-127000J0D01*
G01*
X2921000Y-5969000D02*
X2921000Y-6680200D01*
X2768600Y-9498697D02*
X2768600Y-6807200D01*
X2844800Y-6731000D02*
X2870200Y-6731000D01*
X7620000Y-4902200D02*
X7620000Y-9499600D01*
X7493000Y-9626600D02*
G75*
G03*
X7620000Y-9499600I0J127000D01*
G01*
X2768600Y-5842000D02*
G75*
G03*
X2844800Y-5918200I76200J0D01*
G01*
X2844800Y-6731000D02*
G75*
G03*
X2768600Y-6807200I0J-76200D01*
G01*
X2768600Y-5842000D02*
X2768600Y-4902200D01*
D11*
X3018719Y-9944576D02*
X3018719Y-9744576D01*
X3066338Y-9744576D01*
X3094909Y-9754100D01*
X3113957Y-9773148D01*
X3123481Y-9792195D01*
X3133005Y-9830290D01*
X3133005Y-9858862D01*
X3123481Y-9896957D01*
X3113957Y-9916005D01*
X3094909Y-9935052D01*
X3066338Y-9944576D01*
X3018719Y-9944576D01*
X3218719Y-9944576D02*
X3218719Y-9811243D01*
X3218719Y-9849338D02*
X3228243Y-9830290D01*
X3237767Y-9820767D01*
X3256814Y-9811243D01*
X3275862Y-9811243D01*
X3342528Y-9944576D02*
X3342528Y-9811243D01*
X3342528Y-9744576D02*
X3333005Y-9754100D01*
X3342528Y-9763624D01*
X3352052Y-9754100D01*
X3342528Y-9744576D01*
X3342528Y-9763624D01*
X3466338Y-9944576D02*
X3447290Y-9935052D01*
X3437767Y-9916005D01*
X3437767Y-9744576D01*
X3571100Y-9944576D02*
X3552052Y-9935052D01*
X3542528Y-9916005D01*
X3542528Y-9744576D01*
X3799671Y-9944576D02*
X3799671Y-9744576D01*
X3866338Y-9887433D01*
X3933005Y-9744576D01*
X3933005Y-9944576D01*
X4113957Y-9944576D02*
X4113957Y-9839814D01*
X4104433Y-9820767D01*
X4085386Y-9811243D01*
X4047290Y-9811243D01*
X4028243Y-9820767D01*
X4113957Y-9935052D02*
X4094909Y-9944576D01*
X4047290Y-9944576D01*
X4028243Y-9935052D01*
X4018719Y-9916005D01*
X4018719Y-9896957D01*
X4028243Y-9877910D01*
X4047290Y-9868386D01*
X4094909Y-9868386D01*
X4113957Y-9858862D01*
X4209195Y-9811243D02*
X4209195Y-10011243D01*
X4209195Y-9820767D02*
X4228243Y-9811243D01*
X4266338Y-9811243D01*
X4285386Y-9820767D01*
X4294910Y-9830290D01*
X4304433Y-9849338D01*
X4304433Y-9906481D01*
X4294910Y-9925529D01*
X4285386Y-9935052D01*
X4266338Y-9944576D01*
X4228243Y-9944576D01*
X4209195Y-9935052D01*
X4390148Y-9925529D02*
X4399671Y-9935052D01*
X4390148Y-9944576D01*
X4380624Y-9935052D01*
X4390148Y-9925529D01*
X4390148Y-9944576D01*
X4390148Y-9820767D02*
X4399671Y-9830290D01*
X4390148Y-9839814D01*
X4380624Y-9830290D01*
X4390148Y-9820767D01*
X4390148Y-9839814D01*
M02*
