M48
; DRILL file {KiCad (6.0.7)} date Sat Apr  8 23:38:00 2023
; FORMAT={-:-/ absolute / inch / decimal}
; #@! TF.CreationDate,2023-04-08T23:38:00+02:00
; #@! TF.GenerationSoftware,Kicad,Pcbnew,(6.0.7)
; #@! TF.FileFunction,Plated,1,2,PTH
FMAT,2
INCH
; #@! TA.AperFunction,Plated,PTH,ViaDrill
T1C0.0157
; #@! TA.AperFunction,Plated,PTH,ComponentDrill
T2C0.0354
; #@! TA.AperFunction,Plated,PTH,ComponentDrill
T3C0.0394
; #@! TA.AperFunction,Plated,PTH,ComponentDrill
T4C0.1260
%
G90
G05
T1
X1.3327Y-3.3805
X1.5977Y-2.9906
X1.6232Y-3.2231
X1.6923Y-3.4275
X1.6962Y-3.3695
X1.7713Y-2.9649
X1.7807Y-1.9633
X1.8583Y-2.9963
X1.8631Y-2.9499
X1.8791Y-3.5129
X1.9098Y-2.9955
X1.918Y-2.94
X1.9285Y-3.5034
X1.9402Y-2.5085
X1.99Y-2.505
X2.035Y-2.5585
X2.0959Y-2.4
X2.1474Y-2.4743
X2.1608Y-2.2457
X2.1781Y-2.987
X2.1898Y-2.8925
X2.2045Y-3.2193
X2.2049Y-3.2858
X2.212Y-2.78
X2.2265Y-3.3813
X2.23Y-2.12
X2.24Y-2.6083
X2.2417Y-2.8294
X2.2728Y-3.3834
X2.3084Y-3.2907
X2.31Y-3.213
X2.3224Y-2.2843
X2.3321Y-2.4778
X2.34Y-2.18
X2.36Y-2.6316
X2.39Y-2.22
X2.3926Y-3.3501
X2.4092Y-3.7119
X2.41Y-2.92
X2.4552Y-2.4409
X2.46Y-2.97
X2.5303Y-2.9267
X2.61Y-2.21
X2.6707Y-1.9633
X2.7454Y-2.5493
T2
X1.9496Y-1.98
X2.0496Y-1.98
X2.1496Y-1.98
T3
X1.4264Y-3.5
X1.6232Y-3.5
X2.5302Y-3.7
X2.61Y-3.0204
X2.61Y-3.1204
X2.61Y-3.2204
X2.61Y-3.3204
X2.6302Y-3.7
X2.7002Y-2.2094
X2.7002Y-2.3094
X2.7002Y-2.4094
X2.8002Y-2.2094
X2.8002Y-2.3094
X2.8002Y-2.4094
X2.9Y-2.96
X2.9Y-3.06
X2.9Y-3.16
X2.9Y-3.26
X2.9Y-3.36
X2.9Y-3.46
T4
X1.22Y-2.01
X1.22Y-3.66
X2.87Y-2.01
X2.87Y-3.66
T0
M30
