%TF.GenerationSoftware,KiCad,Pcbnew,(6.0.7)*%
%TF.CreationDate,2023-04-08T23:37:57+02:00*%
%TF.ProjectId,hb-uni-644_328P_small,68622d75-6e69-42d3-9634-345f33323850,rev?*%
%TF.SameCoordinates,Original*%
%TF.FileFunction,Legend,Top*%
%TF.FilePolarity,Positive*%
%FSLAX46Y46*%
G04 Gerber Fmt 4.6, Leading zero omitted, Abs format (unit mm)*
G04 Created by KiCad (PCBNEW (6.0.7)) date 2023-04-08 23:37:57*
%MOMM*%
%LPD*%
G01*
G04 APERTURE LIST*
%ADD10C,0.150000*%
%ADD11C,0.120000*%
G04 APERTURE END LIST*
D10*
X69278666Y-79716380D02*
X69612000Y-80716380D01*
X69945333Y-79716380D01*
X70850095Y-80621142D02*
X70802476Y-80668761D01*
X70659619Y-80716380D01*
X70564380Y-80716380D01*
X70421523Y-80668761D01*
X70326285Y-80573523D01*
X70278666Y-80478285D01*
X70231047Y-80287809D01*
X70231047Y-80144952D01*
X70278666Y-79954476D01*
X70326285Y-79859238D01*
X70421523Y-79764000D01*
X70564380Y-79716380D01*
X70659619Y-79716380D01*
X70802476Y-79764000D01*
X70850095Y-79811619D01*
X71850095Y-80621142D02*
X71802476Y-80668761D01*
X71659619Y-80716380D01*
X71564380Y-80716380D01*
X71421523Y-80668761D01*
X71326285Y-80573523D01*
X71278666Y-80478285D01*
X71231047Y-80287809D01*
X71231047Y-80144952D01*
X71278666Y-79954476D01*
X71326285Y-79859238D01*
X71421523Y-79764000D01*
X71564380Y-79716380D01*
X71659619Y-79716380D01*
X71802476Y-79764000D01*
X71850095Y-79811619D01*
X72790595Y-61651380D02*
X72790595Y-60651380D01*
X73123928Y-61365666D01*
X73457261Y-60651380D01*
X73457261Y-61651380D01*
X73933452Y-61651380D02*
X73933452Y-60651380D01*
X74362023Y-61603761D02*
X74504880Y-61651380D01*
X74742976Y-61651380D01*
X74838214Y-61603761D01*
X74885833Y-61556142D01*
X74933452Y-61460904D01*
X74933452Y-61365666D01*
X74885833Y-61270428D01*
X74838214Y-61222809D01*
X74742976Y-61175190D01*
X74552500Y-61127571D01*
X74457261Y-61079952D01*
X74409642Y-61032333D01*
X74362023Y-60937095D01*
X74362023Y-60841857D01*
X74409642Y-60746619D01*
X74457261Y-60699000D01*
X74552500Y-60651380D01*
X74790595Y-60651380D01*
X74933452Y-60699000D01*
X75552500Y-60651380D02*
X75742976Y-60651380D01*
X75838214Y-60699000D01*
X75933452Y-60794238D01*
X75981071Y-60984714D01*
X75981071Y-61318047D01*
X75933452Y-61508523D01*
X75838214Y-61603761D01*
X75742976Y-61651380D01*
X75552500Y-61651380D01*
X75457261Y-61603761D01*
X75362023Y-61508523D01*
X75314404Y-61318047D01*
X75314404Y-60984714D01*
X75362023Y-60794238D01*
X75457261Y-60699000D01*
X75552500Y-60651380D01*
X73302023Y-56571380D02*
X72968690Y-56095190D01*
X72730595Y-56571380D02*
X72730595Y-55571380D01*
X73111547Y-55571380D01*
X73206785Y-55619000D01*
X73254404Y-55666619D01*
X73302023Y-55761857D01*
X73302023Y-55904714D01*
X73254404Y-55999952D01*
X73206785Y-56047571D01*
X73111547Y-56095190D01*
X72730595Y-56095190D01*
X73682976Y-56523761D02*
X73825833Y-56571380D01*
X74063928Y-56571380D01*
X74159166Y-56523761D01*
X74206785Y-56476142D01*
X74254404Y-56380904D01*
X74254404Y-56285666D01*
X74206785Y-56190428D01*
X74159166Y-56142809D01*
X74063928Y-56095190D01*
X73873452Y-56047571D01*
X73778214Y-55999952D01*
X73730595Y-55952333D01*
X73682976Y-55857095D01*
X73682976Y-55761857D01*
X73730595Y-55666619D01*
X73778214Y-55619000D01*
X73873452Y-55571380D01*
X74111547Y-55571380D01*
X74254404Y-55619000D01*
X74540119Y-55571380D02*
X75111547Y-55571380D01*
X74825833Y-56571380D02*
X74825833Y-55571380D01*
X64089595Y-91511428D02*
X64851500Y-91511428D01*
X62581404Y-79012000D02*
X62486166Y-78964380D01*
X62343309Y-78964380D01*
X62200452Y-79012000D01*
X62105214Y-79107238D01*
X62057595Y-79202476D01*
X62009976Y-79392952D01*
X62009976Y-79535809D01*
X62057595Y-79726285D01*
X62105214Y-79821523D01*
X62200452Y-79916761D01*
X62343309Y-79964380D01*
X62438547Y-79964380D01*
X62581404Y-79916761D01*
X62629023Y-79869142D01*
X62629023Y-79535809D01*
X62438547Y-79535809D01*
X63057595Y-79964380D02*
X63057595Y-78964380D01*
X63629023Y-79964380D01*
X63629023Y-78964380D01*
X64105214Y-79964380D02*
X64105214Y-78964380D01*
X64343309Y-78964380D01*
X64486166Y-79012000D01*
X64581404Y-79107238D01*
X64629023Y-79202476D01*
X64676642Y-79392952D01*
X64676642Y-79535809D01*
X64629023Y-79726285D01*
X64581404Y-79821523D01*
X64486166Y-79916761D01*
X64343309Y-79964380D01*
X64105214Y-79964380D01*
X69469142Y-88336380D02*
X69469142Y-87336380D01*
X69707238Y-87336380D01*
X69850095Y-87384000D01*
X69945333Y-87479238D01*
X69992952Y-87574476D01*
X70040571Y-87764952D01*
X70040571Y-87907809D01*
X69992952Y-88098285D01*
X69945333Y-88193523D01*
X69850095Y-88288761D01*
X69707238Y-88336380D01*
X69469142Y-88336380D01*
X70326285Y-87336380D02*
X70897714Y-87336380D01*
X70612000Y-88336380D02*
X70612000Y-87336380D01*
X71802476Y-88336380D02*
X71469142Y-87860190D01*
X71231047Y-88336380D02*
X71231047Y-87336380D01*
X71612000Y-87336380D01*
X71707238Y-87384000D01*
X71754857Y-87431619D01*
X71802476Y-87526857D01*
X71802476Y-87669714D01*
X71754857Y-87764952D01*
X71707238Y-87812571D01*
X71612000Y-87860190D01*
X71231047Y-87860190D01*
X61914738Y-76160380D02*
X62248071Y-77160380D01*
X62581404Y-76160380D01*
X63486166Y-77065142D02*
X63438547Y-77112761D01*
X63295690Y-77160380D01*
X63200452Y-77160380D01*
X63057595Y-77112761D01*
X62962357Y-77017523D01*
X62914738Y-76922285D01*
X62867119Y-76731809D01*
X62867119Y-76588952D01*
X62914738Y-76398476D01*
X62962357Y-76303238D01*
X63057595Y-76208000D01*
X63200452Y-76160380D01*
X63295690Y-76160380D01*
X63438547Y-76208000D01*
X63486166Y-76255619D01*
X64486166Y-77065142D02*
X64438547Y-77112761D01*
X64295690Y-77160380D01*
X64200452Y-77160380D01*
X64057595Y-77112761D01*
X63962357Y-77017523D01*
X63914738Y-76922285D01*
X63867119Y-76731809D01*
X63867119Y-76588952D01*
X63914738Y-76398476D01*
X63962357Y-76303238D01*
X64057595Y-76208000D01*
X64200452Y-76160380D01*
X64295690Y-76160380D01*
X64438547Y-76208000D01*
X64486166Y-76255619D01*
X62009976Y-82192761D02*
X62152833Y-82240380D01*
X62390928Y-82240380D01*
X62486166Y-82192761D01*
X62533785Y-82145142D01*
X62581404Y-82049904D01*
X62581404Y-81954666D01*
X62533785Y-81859428D01*
X62486166Y-81811809D01*
X62390928Y-81764190D01*
X62200452Y-81716571D01*
X62105214Y-81668952D01*
X62057595Y-81621333D01*
X62009976Y-81526095D01*
X62009976Y-81430857D01*
X62057595Y-81335619D01*
X62105214Y-81288000D01*
X62200452Y-81240380D01*
X62438547Y-81240380D01*
X62581404Y-81288000D01*
X63581404Y-82145142D02*
X63533785Y-82192761D01*
X63390928Y-82240380D01*
X63295690Y-82240380D01*
X63152833Y-82192761D01*
X63057595Y-82097523D01*
X63009976Y-82002285D01*
X62962357Y-81811809D01*
X62962357Y-81668952D01*
X63009976Y-81478476D01*
X63057595Y-81383238D01*
X63152833Y-81288000D01*
X63295690Y-81240380D01*
X63390928Y-81240380D01*
X63533785Y-81288000D01*
X63581404Y-81335619D01*
X64486166Y-82240380D02*
X64009976Y-82240380D01*
X64009976Y-81240380D01*
X72682976Y-59063761D02*
X72825833Y-59111380D01*
X73063928Y-59111380D01*
X73159166Y-59063761D01*
X73206785Y-59016142D01*
X73254404Y-58920904D01*
X73254404Y-58825666D01*
X73206785Y-58730428D01*
X73159166Y-58682809D01*
X73063928Y-58635190D01*
X72873452Y-58587571D01*
X72778214Y-58539952D01*
X72730595Y-58492333D01*
X72682976Y-58397095D01*
X72682976Y-58301857D01*
X72730595Y-58206619D01*
X72778214Y-58159000D01*
X72873452Y-58111380D01*
X73111547Y-58111380D01*
X73254404Y-58159000D01*
X74254404Y-59016142D02*
X74206785Y-59063761D01*
X74063928Y-59111380D01*
X73968690Y-59111380D01*
X73825833Y-59063761D01*
X73730595Y-58968523D01*
X73682976Y-58873285D01*
X73635357Y-58682809D01*
X73635357Y-58539952D01*
X73682976Y-58349476D01*
X73730595Y-58254238D01*
X73825833Y-58159000D01*
X73968690Y-58111380D01*
X74063928Y-58111380D01*
X74206785Y-58159000D01*
X74254404Y-58206619D01*
X74682976Y-59111380D02*
X74682976Y-58111380D01*
X75254404Y-59111380D02*
X74825833Y-58539952D01*
X75254404Y-58111380D02*
X74682976Y-58682809D01*
X64196595Y-60666380D02*
X64529928Y-61666380D01*
X64863261Y-60666380D01*
X65768023Y-61571142D02*
X65720404Y-61618761D01*
X65577547Y-61666380D01*
X65482309Y-61666380D01*
X65339452Y-61618761D01*
X65244214Y-61523523D01*
X65196595Y-61428285D01*
X65148976Y-61237809D01*
X65148976Y-61094952D01*
X65196595Y-60904476D01*
X65244214Y-60809238D01*
X65339452Y-60714000D01*
X65482309Y-60666380D01*
X65577547Y-60666380D01*
X65720404Y-60714000D01*
X65768023Y-60761619D01*
X66768023Y-61571142D02*
X66720404Y-61618761D01*
X66577547Y-61666380D01*
X66482309Y-61666380D01*
X66339452Y-61618761D01*
X66244214Y-61523523D01*
X66196595Y-61428285D01*
X66148976Y-61237809D01*
X66148976Y-61094952D01*
X66196595Y-60904476D01*
X66244214Y-60809238D01*
X66339452Y-60714000D01*
X66482309Y-60666380D01*
X66577547Y-60666380D01*
X66720404Y-60714000D01*
X66768023Y-60761619D01*
X69350095Y-85050380D02*
X69921523Y-85050380D01*
X69635809Y-86050380D02*
X69635809Y-85050380D01*
X70159619Y-85050380D02*
X70826285Y-86050380D01*
X70826285Y-85050380D02*
X70159619Y-86050380D01*
X71207238Y-86050380D02*
X71207238Y-85050380D01*
X71445333Y-85050380D01*
X71588190Y-85098000D01*
X71683428Y-85193238D01*
X71731047Y-85288476D01*
X71778666Y-85478952D01*
X71778666Y-85621809D01*
X71731047Y-85812285D01*
X71683428Y-85907523D01*
X71588190Y-86002761D01*
X71445333Y-86050380D01*
X71207238Y-86050380D01*
X64926785Y-55634000D02*
X64831547Y-55586380D01*
X64688690Y-55586380D01*
X64545833Y-55634000D01*
X64450595Y-55729238D01*
X64402976Y-55824476D01*
X64355357Y-56014952D01*
X64355357Y-56157809D01*
X64402976Y-56348285D01*
X64450595Y-56443523D01*
X64545833Y-56538761D01*
X64688690Y-56586380D01*
X64783928Y-56586380D01*
X64926785Y-56538761D01*
X64974404Y-56491142D01*
X64974404Y-56157809D01*
X64783928Y-56157809D01*
X65402976Y-56586380D02*
X65402976Y-55586380D01*
X65974404Y-56586380D01*
X65974404Y-55586380D01*
X66450595Y-56586380D02*
X66450595Y-55586380D01*
X66688690Y-55586380D01*
X66831547Y-55634000D01*
X66926785Y-55729238D01*
X66974404Y-55824476D01*
X67022023Y-56014952D01*
X67022023Y-56157809D01*
X66974404Y-56348285D01*
X66926785Y-56443523D01*
X66831547Y-56538761D01*
X66688690Y-56586380D01*
X66450595Y-56586380D01*
X63776547Y-59111380D02*
X63776547Y-58111380D01*
X64109880Y-58825666D01*
X64443214Y-58111380D01*
X64443214Y-59111380D01*
X65109880Y-58111380D02*
X65300357Y-58111380D01*
X65395595Y-58159000D01*
X65490833Y-58254238D01*
X65538452Y-58444714D01*
X65538452Y-58778047D01*
X65490833Y-58968523D01*
X65395595Y-59063761D01*
X65300357Y-59111380D01*
X65109880Y-59111380D01*
X65014642Y-59063761D01*
X64919404Y-58968523D01*
X64871785Y-58778047D01*
X64871785Y-58444714D01*
X64919404Y-58254238D01*
X65014642Y-58159000D01*
X65109880Y-58111380D01*
X65919404Y-59063761D02*
X66062261Y-59111380D01*
X66300357Y-59111380D01*
X66395595Y-59063761D01*
X66443214Y-59016142D01*
X66490833Y-58920904D01*
X66490833Y-58825666D01*
X66443214Y-58730428D01*
X66395595Y-58682809D01*
X66300357Y-58635190D01*
X66109880Y-58587571D01*
X66014642Y-58539952D01*
X65967023Y-58492333D01*
X65919404Y-58397095D01*
X65919404Y-58301857D01*
X65967023Y-58206619D01*
X66014642Y-58159000D01*
X66109880Y-58111380D01*
X66347976Y-58111380D01*
X66490833Y-58159000D01*
X66919404Y-59111380D02*
X66919404Y-58111380D01*
X69945333Y-83256380D02*
X69612000Y-82780190D01*
X69373904Y-83256380D02*
X69373904Y-82256380D01*
X69754857Y-82256380D01*
X69850095Y-82304000D01*
X69897714Y-82351619D01*
X69945333Y-82446857D01*
X69945333Y-82589714D01*
X69897714Y-82684952D01*
X69850095Y-82732571D01*
X69754857Y-82780190D01*
X69373904Y-82780190D01*
X70278666Y-82256380D02*
X70945333Y-83256380D01*
X70945333Y-82256380D02*
X70278666Y-83256380D01*
X71326285Y-83256380D02*
X71326285Y-82256380D01*
X71564380Y-82256380D01*
X71707238Y-82304000D01*
X71802476Y-82399238D01*
X71850095Y-82494476D01*
X71897714Y-82684952D01*
X71897714Y-82827809D01*
X71850095Y-83018285D01*
X71802476Y-83113523D01*
X71707238Y-83208761D01*
X71564380Y-83256380D01*
X71326285Y-83256380D01*
X62009976Y-84732761D02*
X62152833Y-84780380D01*
X62390928Y-84780380D01*
X62486166Y-84732761D01*
X62533785Y-84685142D01*
X62581404Y-84589904D01*
X62581404Y-84494666D01*
X62533785Y-84399428D01*
X62486166Y-84351809D01*
X62390928Y-84304190D01*
X62200452Y-84256571D01*
X62105214Y-84208952D01*
X62057595Y-84161333D01*
X62009976Y-84066095D01*
X62009976Y-83970857D01*
X62057595Y-83875619D01*
X62105214Y-83828000D01*
X62200452Y-83780380D01*
X62438547Y-83780380D01*
X62581404Y-83828000D01*
X63009976Y-84780380D02*
X63009976Y-83780380D01*
X63248071Y-83780380D01*
X63390928Y-83828000D01*
X63486166Y-83923238D01*
X63533785Y-84018476D01*
X63581404Y-84208952D01*
X63581404Y-84351809D01*
X63533785Y-84542285D01*
X63486166Y-84637523D01*
X63390928Y-84732761D01*
X63248071Y-84780380D01*
X63009976Y-84780380D01*
X63962357Y-84494666D02*
X64438547Y-84494666D01*
X63867119Y-84780380D02*
X64200452Y-83780380D01*
X64533785Y-84780380D01*
X66629595Y-91511428D02*
X67391500Y-91511428D01*
X67010547Y-91892380D02*
X67010547Y-91130476D01*
X69850095Y-74440000D02*
X69754857Y-74392380D01*
X69612000Y-74392380D01*
X69469142Y-74440000D01*
X69373904Y-74535238D01*
X69326285Y-74630476D01*
X69278666Y-74820952D01*
X69278666Y-74963809D01*
X69326285Y-75154285D01*
X69373904Y-75249523D01*
X69469142Y-75344761D01*
X69612000Y-75392380D01*
X69707238Y-75392380D01*
X69850095Y-75344761D01*
X69897714Y-75297142D01*
X69897714Y-74963809D01*
X69707238Y-74963809D01*
X70326285Y-75392380D02*
X70326285Y-74392380D01*
X70897714Y-75392380D01*
X70897714Y-74392380D01*
X71373904Y-75392380D02*
X71373904Y-74392380D01*
X71612000Y-74392380D01*
X71754857Y-74440000D01*
X71850095Y-74535238D01*
X71897714Y-74630476D01*
X71945333Y-74820952D01*
X71945333Y-74963809D01*
X71897714Y-75154285D01*
X71850095Y-75249523D01*
X71754857Y-75344761D01*
X71612000Y-75392380D01*
X71373904Y-75392380D01*
X69850095Y-76980000D02*
X69754857Y-76932380D01*
X69612000Y-76932380D01*
X69469142Y-76980000D01*
X69373904Y-77075238D01*
X69326285Y-77170476D01*
X69278666Y-77360952D01*
X69278666Y-77503809D01*
X69326285Y-77694285D01*
X69373904Y-77789523D01*
X69469142Y-77884761D01*
X69612000Y-77932380D01*
X69707238Y-77932380D01*
X69850095Y-77884761D01*
X69897714Y-77837142D01*
X69897714Y-77503809D01*
X69707238Y-77503809D01*
X70326285Y-77932380D02*
X70326285Y-76932380D01*
X70897714Y-77932380D01*
X70897714Y-76932380D01*
X71373904Y-77932380D02*
X71373904Y-76932380D01*
X71612000Y-76932380D01*
X71754857Y-76980000D01*
X71850095Y-77075238D01*
X71897714Y-77170476D01*
X71945333Y-77360952D01*
X71945333Y-77503809D01*
X71897714Y-77694285D01*
X71850095Y-77789523D01*
X71754857Y-77884761D01*
X71612000Y-77932380D01*
X71373904Y-77932380D01*
%TO.C,J6*%
X64714666Y-74620380D02*
X64714666Y-73620380D01*
X65143238Y-73715619D02*
X65190857Y-73668000D01*
X65286095Y-73620380D01*
X65524190Y-73620380D01*
X65619428Y-73668000D01*
X65667047Y-73715619D01*
X65714666Y-73810857D01*
X65714666Y-73906095D01*
X65667047Y-74048952D01*
X65095619Y-74620380D01*
X65714666Y-74620380D01*
X66714666Y-74525142D02*
X66667047Y-74572761D01*
X66524190Y-74620380D01*
X66428952Y-74620380D01*
X66286095Y-74572761D01*
X66190857Y-74477523D01*
X66143238Y-74382285D01*
X66095619Y-74191809D01*
X66095619Y-74048952D01*
X66143238Y-73858476D01*
X66190857Y-73763238D01*
X66286095Y-73668000D01*
X66428952Y-73620380D01*
X66524190Y-73620380D01*
X66667047Y-73668000D01*
X66714666Y-73715619D01*
X66905142Y-74715619D02*
X67667047Y-74715619D01*
X68428952Y-74620380D02*
X67857523Y-74620380D01*
X68143238Y-74620380D02*
X68143238Y-73620380D01*
X68048000Y-73763238D01*
X67952761Y-73858476D01*
X67857523Y-73906095D01*
%TO.C,R3*%
X53681333Y-90622380D02*
X53348000Y-90146190D01*
X53109904Y-90622380D02*
X53109904Y-89622380D01*
X53490857Y-89622380D01*
X53586095Y-89670000D01*
X53633714Y-89717619D01*
X53681333Y-89812857D01*
X53681333Y-89955714D01*
X53633714Y-90050952D01*
X53586095Y-90098571D01*
X53490857Y-90146190D01*
X53109904Y-90146190D01*
X54014666Y-89622380D02*
X54633714Y-89622380D01*
X54300380Y-90003333D01*
X54443238Y-90003333D01*
X54538476Y-90050952D01*
X54586095Y-90098571D01*
X54633714Y-90193809D01*
X54633714Y-90431904D01*
X54586095Y-90527142D01*
X54538476Y-90574761D01*
X54443238Y-90622380D01*
X54157523Y-90622380D01*
X54062285Y-90574761D01*
X54014666Y-90527142D01*
%TO.C,J2*%
X56562666Y-93940380D02*
X56562666Y-94654666D01*
X56515047Y-94797523D01*
X56419809Y-94892761D01*
X56276952Y-94940380D01*
X56181714Y-94940380D01*
X56991238Y-94035619D02*
X57038857Y-93988000D01*
X57134095Y-93940380D01*
X57372190Y-93940380D01*
X57467428Y-93988000D01*
X57515047Y-94035619D01*
X57562666Y-94130857D01*
X57562666Y-94226095D01*
X57515047Y-94368952D01*
X56943619Y-94940380D01*
X57562666Y-94940380D01*
%TO.C,U3*%
X49236380Y-61721904D02*
X50045904Y-61721904D01*
X50141142Y-61674285D01*
X50188761Y-61626666D01*
X50236380Y-61531428D01*
X50236380Y-61340952D01*
X50188761Y-61245714D01*
X50141142Y-61198095D01*
X50045904Y-61150476D01*
X49236380Y-61150476D01*
X49236380Y-60769523D02*
X49236380Y-60150476D01*
X49617333Y-60483809D01*
X49617333Y-60340952D01*
X49664952Y-60245714D01*
X49712571Y-60198095D01*
X49807809Y-60150476D01*
X50045904Y-60150476D01*
X50141142Y-60198095D01*
X50188761Y-60245714D01*
X50236380Y-60340952D01*
X50236380Y-60626666D01*
X50188761Y-60721904D01*
X50141142Y-60769523D01*
%TO.C,J1*%
X56308666Y-91176380D02*
X56308666Y-91890666D01*
X56261047Y-92033523D01*
X56165809Y-92128761D01*
X56022952Y-92176380D01*
X55927714Y-92176380D01*
X57308666Y-92176380D02*
X56737238Y-92176380D01*
X57022952Y-92176380D02*
X57022952Y-91176380D01*
X56927714Y-91319238D01*
X56832476Y-91414476D01*
X56737238Y-91462095D01*
%TO.C,R6*%
X62571333Y-63952380D02*
X62238000Y-63476190D01*
X61999904Y-63952380D02*
X61999904Y-62952380D01*
X62380857Y-62952380D01*
X62476095Y-63000000D01*
X62523714Y-63047619D01*
X62571333Y-63142857D01*
X62571333Y-63285714D01*
X62523714Y-63380952D01*
X62476095Y-63428571D01*
X62380857Y-63476190D01*
X61999904Y-63476190D01*
X63428476Y-62952380D02*
X63238000Y-62952380D01*
X63142761Y-63000000D01*
X63095142Y-63047619D01*
X62999904Y-63190476D01*
X62952285Y-63380952D01*
X62952285Y-63761904D01*
X62999904Y-63857142D01*
X63047523Y-63904761D01*
X63142761Y-63952380D01*
X63333238Y-63952380D01*
X63428476Y-63904761D01*
X63476095Y-63857142D01*
X63523714Y-63761904D01*
X63523714Y-63523809D01*
X63476095Y-63428571D01*
X63428476Y-63380952D01*
X63333238Y-63333333D01*
X63142761Y-63333333D01*
X63047523Y-63380952D01*
X62999904Y-63428571D01*
X62952285Y-63523809D01*
%TO.C,C13*%
X65397142Y-87479142D02*
X65349523Y-87526761D01*
X65206666Y-87574380D01*
X65111428Y-87574380D01*
X64968571Y-87526761D01*
X64873333Y-87431523D01*
X64825714Y-87336285D01*
X64778095Y-87145809D01*
X64778095Y-87002952D01*
X64825714Y-86812476D01*
X64873333Y-86717238D01*
X64968571Y-86622000D01*
X65111428Y-86574380D01*
X65206666Y-86574380D01*
X65349523Y-86622000D01*
X65397142Y-86669619D01*
X66349523Y-87574380D02*
X65778095Y-87574380D01*
X66063809Y-87574380D02*
X66063809Y-86574380D01*
X65968571Y-86717238D01*
X65873333Y-86812476D01*
X65778095Y-86860095D01*
X66682857Y-86574380D02*
X67301904Y-86574380D01*
X66968571Y-86955333D01*
X67111428Y-86955333D01*
X67206666Y-87002952D01*
X67254285Y-87050571D01*
X67301904Y-87145809D01*
X67301904Y-87383904D01*
X67254285Y-87479142D01*
X67206666Y-87526761D01*
X67111428Y-87574380D01*
X66825714Y-87574380D01*
X66730476Y-87526761D01*
X66682857Y-87479142D01*
%TO.C,R4*%
X58761333Y-86050380D02*
X58428000Y-85574190D01*
X58189904Y-86050380D02*
X58189904Y-85050380D01*
X58570857Y-85050380D01*
X58666095Y-85098000D01*
X58713714Y-85145619D01*
X58761333Y-85240857D01*
X58761333Y-85383714D01*
X58713714Y-85478952D01*
X58666095Y-85526571D01*
X58570857Y-85574190D01*
X58189904Y-85574190D01*
X59618476Y-85383714D02*
X59618476Y-86050380D01*
X59380380Y-85002761D02*
X59142285Y-85717047D01*
X59761333Y-85717047D01*
%TO.C,C10*%
X58285142Y-78335142D02*
X58237523Y-78382761D01*
X58094666Y-78430380D01*
X57999428Y-78430380D01*
X57856571Y-78382761D01*
X57761333Y-78287523D01*
X57713714Y-78192285D01*
X57666095Y-78001809D01*
X57666095Y-77858952D01*
X57713714Y-77668476D01*
X57761333Y-77573238D01*
X57856571Y-77478000D01*
X57999428Y-77430380D01*
X58094666Y-77430380D01*
X58237523Y-77478000D01*
X58285142Y-77525619D01*
X59237523Y-78430380D02*
X58666095Y-78430380D01*
X58951809Y-78430380D02*
X58951809Y-77430380D01*
X58856571Y-77573238D01*
X58761333Y-77668476D01*
X58666095Y-77716095D01*
X59856571Y-77430380D02*
X59951809Y-77430380D01*
X60047047Y-77478000D01*
X60094666Y-77525619D01*
X60142285Y-77620857D01*
X60189904Y-77811333D01*
X60189904Y-78049428D01*
X60142285Y-78239904D01*
X60094666Y-78335142D01*
X60047047Y-78382761D01*
X59951809Y-78430380D01*
X59856571Y-78430380D01*
X59761333Y-78382761D01*
X59713714Y-78335142D01*
X59666095Y-78239904D01*
X59618476Y-78049428D01*
X59618476Y-77811333D01*
X59666095Y-77620857D01*
X59713714Y-77525619D01*
X59761333Y-77478000D01*
X59856571Y-77430380D01*
%TO.C,J3*%
X69008666Y-94702380D02*
X69008666Y-95416666D01*
X68961047Y-95559523D01*
X68865809Y-95654761D01*
X68722952Y-95702380D01*
X68627714Y-95702380D01*
X69389619Y-94702380D02*
X70008666Y-94702380D01*
X69675333Y-95083333D01*
X69818190Y-95083333D01*
X69913428Y-95130952D01*
X69961047Y-95178571D01*
X70008666Y-95273809D01*
X70008666Y-95511904D01*
X69961047Y-95607142D01*
X69913428Y-95654761D01*
X69818190Y-95702380D01*
X69532476Y-95702380D01*
X69437238Y-95654761D01*
X69389619Y-95607142D01*
%TO.C,C2*%
X41489333Y-82145142D02*
X41441714Y-82192761D01*
X41298857Y-82240380D01*
X41203619Y-82240380D01*
X41060761Y-82192761D01*
X40965523Y-82097523D01*
X40917904Y-82002285D01*
X40870285Y-81811809D01*
X40870285Y-81668952D01*
X40917904Y-81478476D01*
X40965523Y-81383238D01*
X41060761Y-81288000D01*
X41203619Y-81240380D01*
X41298857Y-81240380D01*
X41441714Y-81288000D01*
X41489333Y-81335619D01*
X41870285Y-81335619D02*
X41917904Y-81288000D01*
X42013142Y-81240380D01*
X42251238Y-81240380D01*
X42346476Y-81288000D01*
X42394095Y-81335619D01*
X42441714Y-81430857D01*
X42441714Y-81526095D01*
X42394095Y-81668952D01*
X41822666Y-82240380D01*
X42441714Y-82240380D01*
%TO.C,C6*%
X49871333Y-63857142D02*
X49823714Y-63904761D01*
X49680857Y-63952380D01*
X49585619Y-63952380D01*
X49442761Y-63904761D01*
X49347523Y-63809523D01*
X49299904Y-63714285D01*
X49252285Y-63523809D01*
X49252285Y-63380952D01*
X49299904Y-63190476D01*
X49347523Y-63095238D01*
X49442761Y-63000000D01*
X49585619Y-62952380D01*
X49680857Y-62952380D01*
X49823714Y-63000000D01*
X49871333Y-63047619D01*
X50728476Y-62952380D02*
X50538000Y-62952380D01*
X50442761Y-63000000D01*
X50395142Y-63047619D01*
X50299904Y-63190476D01*
X50252285Y-63380952D01*
X50252285Y-63761904D01*
X50299904Y-63857142D01*
X50347523Y-63904761D01*
X50442761Y-63952380D01*
X50633238Y-63952380D01*
X50728476Y-63904761D01*
X50776095Y-63857142D01*
X50823714Y-63761904D01*
X50823714Y-63523809D01*
X50776095Y-63428571D01*
X50728476Y-63380952D01*
X50633238Y-63333333D01*
X50442761Y-63333333D01*
X50347523Y-63380952D01*
X50299904Y-63428571D01*
X50252285Y-63523809D01*
%TO.C,U2*%
X36322095Y-63714380D02*
X36322095Y-64523904D01*
X36369714Y-64619142D01*
X36417333Y-64666761D01*
X36512571Y-64714380D01*
X36703047Y-64714380D01*
X36798285Y-64666761D01*
X36845904Y-64619142D01*
X36893523Y-64523904D01*
X36893523Y-63714380D01*
X37322095Y-63809619D02*
X37369714Y-63762000D01*
X37464952Y-63714380D01*
X37703047Y-63714380D01*
X37798285Y-63762000D01*
X37845904Y-63809619D01*
X37893523Y-63904857D01*
X37893523Y-64000095D01*
X37845904Y-64142952D01*
X37274476Y-64714380D01*
X37893523Y-64714380D01*
%TO.C,C9*%
X56729333Y-63857142D02*
X56681714Y-63904761D01*
X56538857Y-63952380D01*
X56443619Y-63952380D01*
X56300761Y-63904761D01*
X56205523Y-63809523D01*
X56157904Y-63714285D01*
X56110285Y-63523809D01*
X56110285Y-63380952D01*
X56157904Y-63190476D01*
X56205523Y-63095238D01*
X56300761Y-63000000D01*
X56443619Y-62952380D01*
X56538857Y-62952380D01*
X56681714Y-63000000D01*
X56729333Y-63047619D01*
X57205523Y-63952380D02*
X57396000Y-63952380D01*
X57491238Y-63904761D01*
X57538857Y-63857142D01*
X57634095Y-63714285D01*
X57681714Y-63523809D01*
X57681714Y-63142857D01*
X57634095Y-63047619D01*
X57586476Y-63000000D01*
X57491238Y-62952380D01*
X57300761Y-62952380D01*
X57205523Y-63000000D01*
X57157904Y-63047619D01*
X57110285Y-63142857D01*
X57110285Y-63380952D01*
X57157904Y-63476190D01*
X57205523Y-63523809D01*
X57300761Y-63571428D01*
X57491238Y-63571428D01*
X57586476Y-63523809D01*
X57634095Y-63476190D01*
X57681714Y-63380952D01*
%TO.C,R5*%
X58761333Y-74620380D02*
X58428000Y-74144190D01*
X58189904Y-74620380D02*
X58189904Y-73620380D01*
X58570857Y-73620380D01*
X58666095Y-73668000D01*
X58713714Y-73715619D01*
X58761333Y-73810857D01*
X58761333Y-73953714D01*
X58713714Y-74048952D01*
X58666095Y-74096571D01*
X58570857Y-74144190D01*
X58189904Y-74144190D01*
X59666095Y-73620380D02*
X59189904Y-73620380D01*
X59142285Y-74096571D01*
X59189904Y-74048952D01*
X59285142Y-74001333D01*
X59523238Y-74001333D01*
X59618476Y-74048952D01*
X59666095Y-74096571D01*
X59713714Y-74191809D01*
X59713714Y-74429904D01*
X59666095Y-74525142D01*
X59618476Y-74572761D01*
X59523238Y-74620380D01*
X59285142Y-74620380D01*
X59189904Y-74572761D01*
X59142285Y-74525142D01*
%TO.C,SW2*%
X38735238Y-49125142D02*
X38687619Y-49172761D01*
X38544761Y-49220380D01*
X38449523Y-49220380D01*
X38306666Y-49172761D01*
X38211428Y-49077523D01*
X38163809Y-48982285D01*
X38116190Y-48791809D01*
X38116190Y-48648952D01*
X38163809Y-48458476D01*
X38211428Y-48363238D01*
X38306666Y-48268000D01*
X38449523Y-48220380D01*
X38544761Y-48220380D01*
X38687619Y-48268000D01*
X38735238Y-48315619D01*
X39354285Y-48220380D02*
X39544761Y-48220380D01*
X39640000Y-48268000D01*
X39735238Y-48363238D01*
X39782857Y-48553714D01*
X39782857Y-48887047D01*
X39735238Y-49077523D01*
X39640000Y-49172761D01*
X39544761Y-49220380D01*
X39354285Y-49220380D01*
X39259047Y-49172761D01*
X39163809Y-49077523D01*
X39116190Y-48887047D01*
X39116190Y-48553714D01*
X39163809Y-48363238D01*
X39259047Y-48268000D01*
X39354285Y-48220380D01*
X40211428Y-49220380D02*
X40211428Y-48220380D01*
X40782857Y-49220380D01*
X40782857Y-48220380D01*
X41592380Y-48696571D02*
X41259047Y-48696571D01*
X41259047Y-49220380D02*
X41259047Y-48220380D01*
X41735238Y-48220380D01*
X42116190Y-49220380D02*
X42116190Y-48220380D01*
X43116190Y-48268000D02*
X43020952Y-48220380D01*
X42878095Y-48220380D01*
X42735238Y-48268000D01*
X42640000Y-48363238D01*
X42592380Y-48458476D01*
X42544761Y-48648952D01*
X42544761Y-48791809D01*
X42592380Y-48982285D01*
X42640000Y-49077523D01*
X42735238Y-49172761D01*
X42878095Y-49220380D01*
X42973333Y-49220380D01*
X43116190Y-49172761D01*
X43163809Y-49125142D01*
X43163809Y-48791809D01*
X42973333Y-48791809D01*
%TO.C,R9*%
X50887333Y-90622380D02*
X50554000Y-90146190D01*
X50315904Y-90622380D02*
X50315904Y-89622380D01*
X50696857Y-89622380D01*
X50792095Y-89670000D01*
X50839714Y-89717619D01*
X50887333Y-89812857D01*
X50887333Y-89955714D01*
X50839714Y-90050952D01*
X50792095Y-90098571D01*
X50696857Y-90146190D01*
X50315904Y-90146190D01*
X51363523Y-90622380D02*
X51554000Y-90622380D01*
X51649238Y-90574761D01*
X51696857Y-90527142D01*
X51792095Y-90384285D01*
X51839714Y-90193809D01*
X51839714Y-89812857D01*
X51792095Y-89717619D01*
X51744476Y-89670000D01*
X51649238Y-89622380D01*
X51458761Y-89622380D01*
X51363523Y-89670000D01*
X51315904Y-89717619D01*
X51268285Y-89812857D01*
X51268285Y-90050952D01*
X51315904Y-90146190D01*
X51363523Y-90193809D01*
X51458761Y-90241428D01*
X51649238Y-90241428D01*
X51744476Y-90193809D01*
X51792095Y-90146190D01*
X51839714Y-90050952D01*
%TO.C,R1*%
X55824380Y-54776666D02*
X55348190Y-55110000D01*
X55824380Y-55348095D02*
X54824380Y-55348095D01*
X54824380Y-54967142D01*
X54872000Y-54871904D01*
X54919619Y-54824285D01*
X55014857Y-54776666D01*
X55157714Y-54776666D01*
X55252952Y-54824285D01*
X55300571Y-54871904D01*
X55348190Y-54967142D01*
X55348190Y-55348095D01*
X55824380Y-53824285D02*
X55824380Y-54395714D01*
X55824380Y-54110000D02*
X54824380Y-54110000D01*
X54967238Y-54205238D01*
X55062476Y-54300476D01*
X55110095Y-54395714D01*
%TO.C,C12*%
X34917142Y-95099142D02*
X34869523Y-95146761D01*
X34726666Y-95194380D01*
X34631428Y-95194380D01*
X34488571Y-95146761D01*
X34393333Y-95051523D01*
X34345714Y-94956285D01*
X34298095Y-94765809D01*
X34298095Y-94622952D01*
X34345714Y-94432476D01*
X34393333Y-94337238D01*
X34488571Y-94242000D01*
X34631428Y-94194380D01*
X34726666Y-94194380D01*
X34869523Y-94242000D01*
X34917142Y-94289619D01*
X35869523Y-95194380D02*
X35298095Y-95194380D01*
X35583809Y-95194380D02*
X35583809Y-94194380D01*
X35488571Y-94337238D01*
X35393333Y-94432476D01*
X35298095Y-94480095D01*
X36250476Y-94289619D02*
X36298095Y-94242000D01*
X36393333Y-94194380D01*
X36631428Y-94194380D01*
X36726666Y-94242000D01*
X36774285Y-94289619D01*
X36821904Y-94384857D01*
X36821904Y-94480095D01*
X36774285Y-94622952D01*
X36202857Y-95194380D01*
X36821904Y-95194380D01*
%TO.C,F1*%
X61896666Y-70032571D02*
X61563333Y-70032571D01*
X61563333Y-70556380D02*
X61563333Y-69556380D01*
X62039523Y-69556380D01*
X62944285Y-70556380D02*
X62372857Y-70556380D01*
X62658571Y-70556380D02*
X62658571Y-69556380D01*
X62563333Y-69699238D01*
X62468095Y-69794476D01*
X62372857Y-69842095D01*
%TO.C,Y1*%
X34818190Y-80486190D02*
X35294380Y-80486190D01*
X34294380Y-80819523D02*
X34818190Y-80486190D01*
X34294380Y-80152857D01*
X35294380Y-79295714D02*
X35294380Y-79867142D01*
X35294380Y-79581428D02*
X34294380Y-79581428D01*
X34437238Y-79676666D01*
X34532476Y-79771904D01*
X34580095Y-79867142D01*
%TO.C,C8*%
X59777333Y-63857142D02*
X59729714Y-63904761D01*
X59586857Y-63952380D01*
X59491619Y-63952380D01*
X59348761Y-63904761D01*
X59253523Y-63809523D01*
X59205904Y-63714285D01*
X59158285Y-63523809D01*
X59158285Y-63380952D01*
X59205904Y-63190476D01*
X59253523Y-63095238D01*
X59348761Y-63000000D01*
X59491619Y-62952380D01*
X59586857Y-62952380D01*
X59729714Y-63000000D01*
X59777333Y-63047619D01*
X60348761Y-63380952D02*
X60253523Y-63333333D01*
X60205904Y-63285714D01*
X60158285Y-63190476D01*
X60158285Y-63142857D01*
X60205904Y-63047619D01*
X60253523Y-63000000D01*
X60348761Y-62952380D01*
X60539238Y-62952380D01*
X60634476Y-63000000D01*
X60682095Y-63047619D01*
X60729714Y-63142857D01*
X60729714Y-63190476D01*
X60682095Y-63285714D01*
X60634476Y-63333333D01*
X60539238Y-63380952D01*
X60348761Y-63380952D01*
X60253523Y-63428571D01*
X60205904Y-63476190D01*
X60158285Y-63571428D01*
X60158285Y-63761904D01*
X60205904Y-63857142D01*
X60253523Y-63904761D01*
X60348761Y-63952380D01*
X60539238Y-63952380D01*
X60634476Y-63904761D01*
X60682095Y-63857142D01*
X60729714Y-63761904D01*
X60729714Y-63571428D01*
X60682095Y-63476190D01*
X60634476Y-63428571D01*
X60539238Y-63380952D01*
%TO.C,R2*%
X55824380Y-57570666D02*
X55348190Y-57904000D01*
X55824380Y-58142095D02*
X54824380Y-58142095D01*
X54824380Y-57761142D01*
X54872000Y-57665904D01*
X54919619Y-57618285D01*
X55014857Y-57570666D01*
X55157714Y-57570666D01*
X55252952Y-57618285D01*
X55300571Y-57665904D01*
X55348190Y-57761142D01*
X55348190Y-58142095D01*
X54919619Y-57189714D02*
X54872000Y-57142095D01*
X54824380Y-57046857D01*
X54824380Y-56808761D01*
X54872000Y-56713523D01*
X54919619Y-56665904D01*
X55014857Y-56618285D01*
X55110095Y-56618285D01*
X55252952Y-56665904D01*
X55824380Y-57237333D01*
X55824380Y-56618285D01*
%TO.C,C1*%
X38949333Y-82145142D02*
X38901714Y-82192761D01*
X38758857Y-82240380D01*
X38663619Y-82240380D01*
X38520761Y-82192761D01*
X38425523Y-82097523D01*
X38377904Y-82002285D01*
X38330285Y-81811809D01*
X38330285Y-81668952D01*
X38377904Y-81478476D01*
X38425523Y-81383238D01*
X38520761Y-81288000D01*
X38663619Y-81240380D01*
X38758857Y-81240380D01*
X38901714Y-81288000D01*
X38949333Y-81335619D01*
X39901714Y-82240380D02*
X39330285Y-82240380D01*
X39616000Y-82240380D02*
X39616000Y-81240380D01*
X39520761Y-81383238D01*
X39425523Y-81478476D01*
X39330285Y-81526095D01*
%TO.C,C7*%
X53173333Y-63857142D02*
X53125714Y-63904761D01*
X52982857Y-63952380D01*
X52887619Y-63952380D01*
X52744761Y-63904761D01*
X52649523Y-63809523D01*
X52601904Y-63714285D01*
X52554285Y-63523809D01*
X52554285Y-63380952D01*
X52601904Y-63190476D01*
X52649523Y-63095238D01*
X52744761Y-63000000D01*
X52887619Y-62952380D01*
X52982857Y-62952380D01*
X53125714Y-63000000D01*
X53173333Y-63047619D01*
X53506666Y-62952380D02*
X54173333Y-62952380D01*
X53744761Y-63952380D01*
%TO.C,U4*%
X68580095Y-70064380D02*
X68580095Y-70873904D01*
X68627714Y-70969142D01*
X68675333Y-71016761D01*
X68770571Y-71064380D01*
X68961047Y-71064380D01*
X69056285Y-71016761D01*
X69103904Y-70969142D01*
X69151523Y-70873904D01*
X69151523Y-70064380D01*
X70056285Y-70397714D02*
X70056285Y-71064380D01*
X69818190Y-70016761D02*
X69580095Y-70731047D01*
X70199142Y-70731047D01*
%TO.C,Q1*%
X57951619Y-61055238D02*
X57904000Y-61150476D01*
X57808761Y-61245714D01*
X57665904Y-61388571D01*
X57618285Y-61483809D01*
X57618285Y-61579047D01*
X57856380Y-61531428D02*
X57808761Y-61626666D01*
X57713523Y-61721904D01*
X57523047Y-61769523D01*
X57189714Y-61769523D01*
X56999238Y-61721904D01*
X56904000Y-61626666D01*
X56856380Y-61531428D01*
X56856380Y-61340952D01*
X56904000Y-61245714D01*
X56999238Y-61150476D01*
X57189714Y-61102857D01*
X57523047Y-61102857D01*
X57713523Y-61150476D01*
X57808761Y-61245714D01*
X57856380Y-61340952D01*
X57856380Y-61531428D01*
X57856380Y-60150476D02*
X57856380Y-60721904D01*
X57856380Y-60436190D02*
X56856380Y-60436190D01*
X56999238Y-60531428D01*
X57094476Y-60626666D01*
X57142095Y-60721904D01*
%TO.C,R8*%
X48093333Y-90622380D02*
X47760000Y-90146190D01*
X47521904Y-90622380D02*
X47521904Y-89622380D01*
X47902857Y-89622380D01*
X47998095Y-89670000D01*
X48045714Y-89717619D01*
X48093333Y-89812857D01*
X48093333Y-89955714D01*
X48045714Y-90050952D01*
X47998095Y-90098571D01*
X47902857Y-90146190D01*
X47521904Y-90146190D01*
X48664761Y-90050952D02*
X48569523Y-90003333D01*
X48521904Y-89955714D01*
X48474285Y-89860476D01*
X48474285Y-89812857D01*
X48521904Y-89717619D01*
X48569523Y-89670000D01*
X48664761Y-89622380D01*
X48855238Y-89622380D01*
X48950476Y-89670000D01*
X48998095Y-89717619D01*
X49045714Y-89812857D01*
X49045714Y-89860476D01*
X48998095Y-89955714D01*
X48950476Y-90003333D01*
X48855238Y-90050952D01*
X48664761Y-90050952D01*
X48569523Y-90098571D01*
X48521904Y-90146190D01*
X48474285Y-90241428D01*
X48474285Y-90431904D01*
X48521904Y-90527142D01*
X48569523Y-90574761D01*
X48664761Y-90622380D01*
X48855238Y-90622380D01*
X48950476Y-90574761D01*
X48998095Y-90527142D01*
X49045714Y-90431904D01*
X49045714Y-90241428D01*
X48998095Y-90146190D01*
X48950476Y-90098571D01*
X48855238Y-90050952D01*
%TO.C,R7*%
X50887333Y-70302380D02*
X50554000Y-69826190D01*
X50315904Y-70302380D02*
X50315904Y-69302380D01*
X50696857Y-69302380D01*
X50792095Y-69350000D01*
X50839714Y-69397619D01*
X50887333Y-69492857D01*
X50887333Y-69635714D01*
X50839714Y-69730952D01*
X50792095Y-69778571D01*
X50696857Y-69826190D01*
X50315904Y-69826190D01*
X51220666Y-69302380D02*
X51887333Y-69302380D01*
X51458761Y-70302380D01*
%TO.C,C4*%
X36155333Y-82145142D02*
X36107714Y-82192761D01*
X35964857Y-82240380D01*
X35869619Y-82240380D01*
X35726761Y-82192761D01*
X35631523Y-82097523D01*
X35583904Y-82002285D01*
X35536285Y-81811809D01*
X35536285Y-81668952D01*
X35583904Y-81478476D01*
X35631523Y-81383238D01*
X35726761Y-81288000D01*
X35869619Y-81240380D01*
X35964857Y-81240380D01*
X36107714Y-81288000D01*
X36155333Y-81335619D01*
X37012476Y-81573714D02*
X37012476Y-82240380D01*
X36774380Y-81192761D02*
X36536285Y-81907047D01*
X37155333Y-81907047D01*
%TO.C,L1*%
X57745333Y-54300380D02*
X57269142Y-54300380D01*
X57269142Y-53300380D01*
X58602476Y-54300380D02*
X58031047Y-54300380D01*
X58316761Y-54300380D02*
X58316761Y-53300380D01*
X58221523Y-53443238D01*
X58126285Y-53538476D01*
X58031047Y-53586095D01*
%TO.C,C11*%
X55999142Y-70389142D02*
X55951523Y-70436761D01*
X55808666Y-70484380D01*
X55713428Y-70484380D01*
X55570571Y-70436761D01*
X55475333Y-70341523D01*
X55427714Y-70246285D01*
X55380095Y-70055809D01*
X55380095Y-69912952D01*
X55427714Y-69722476D01*
X55475333Y-69627238D01*
X55570571Y-69532000D01*
X55713428Y-69484380D01*
X55808666Y-69484380D01*
X55951523Y-69532000D01*
X55999142Y-69579619D01*
X56951523Y-70484380D02*
X56380095Y-70484380D01*
X56665809Y-70484380D02*
X56665809Y-69484380D01*
X56570571Y-69627238D01*
X56475333Y-69722476D01*
X56380095Y-69770095D01*
X57903904Y-70484380D02*
X57332476Y-70484380D01*
X57618190Y-70484380D02*
X57618190Y-69484380D01*
X57522952Y-69627238D01*
X57427714Y-69722476D01*
X57332476Y-69770095D01*
%TO.C,J5*%
X69897809Y-64206380D02*
X69897809Y-63206380D01*
X70945428Y-64111142D02*
X70897809Y-64158761D01*
X70754952Y-64206380D01*
X70659714Y-64206380D01*
X70516857Y-64158761D01*
X70421619Y-64063523D01*
X70374000Y-63968285D01*
X70326380Y-63777809D01*
X70326380Y-63634952D01*
X70374000Y-63444476D01*
X70421619Y-63349238D01*
X70516857Y-63254000D01*
X70659714Y-63206380D01*
X70754952Y-63206380D01*
X70897809Y-63254000D01*
X70945428Y-63301619D01*
X71326380Y-64158761D02*
X71469238Y-64206380D01*
X71707333Y-64206380D01*
X71802571Y-64158761D01*
X71850190Y-64111142D01*
X71897809Y-64015904D01*
X71897809Y-63920666D01*
X71850190Y-63825428D01*
X71802571Y-63777809D01*
X71707333Y-63730190D01*
X71516857Y-63682571D01*
X71421619Y-63634952D01*
X71374000Y-63587333D01*
X71326380Y-63492095D01*
X71326380Y-63396857D01*
X71374000Y-63301619D01*
X71421619Y-63254000D01*
X71516857Y-63206380D01*
X71754952Y-63206380D01*
X71897809Y-63254000D01*
X72326380Y-64206380D02*
X72326380Y-63206380D01*
X72707333Y-63206380D01*
X72802571Y-63254000D01*
X72850190Y-63301619D01*
X72897809Y-63396857D01*
X72897809Y-63539714D01*
X72850190Y-63634952D01*
X72802571Y-63682571D01*
X72707333Y-63730190D01*
X72326380Y-63730190D01*
%TO.C,J4*%
X72429809Y-72572571D02*
X72096476Y-72572571D01*
X72096476Y-73096380D02*
X72096476Y-72096380D01*
X72572666Y-72096380D01*
X72810761Y-72096380D02*
X73382190Y-72096380D01*
X73096476Y-73096380D02*
X73096476Y-72096380D01*
X73715523Y-73096380D02*
X73715523Y-72096380D01*
X73953619Y-72096380D01*
X74096476Y-72144000D01*
X74191714Y-72239238D01*
X74239333Y-72334476D01*
X74286952Y-72524952D01*
X74286952Y-72667809D01*
X74239333Y-72858285D01*
X74191714Y-72953523D01*
X74096476Y-73048761D01*
X73953619Y-73096380D01*
X73715523Y-73096380D01*
X74715523Y-73096380D02*
X74715523Y-72096380D01*
%TO.C,D1*%
X54125904Y-52776380D02*
X54125904Y-51776380D01*
X54364000Y-51776380D01*
X54506857Y-51824000D01*
X54602095Y-51919238D01*
X54649714Y-52014476D01*
X54697333Y-52204952D01*
X54697333Y-52347809D01*
X54649714Y-52538285D01*
X54602095Y-52633523D01*
X54506857Y-52728761D01*
X54364000Y-52776380D01*
X54125904Y-52776380D01*
X55649714Y-52776380D02*
X55078285Y-52776380D01*
X55364000Y-52776380D02*
X55364000Y-51776380D01*
X55268761Y-51919238D01*
X55173523Y-52014476D01*
X55078285Y-52062095D01*
%TO.C,SW1*%
X61793619Y-49220380D02*
X61460285Y-48744190D01*
X61222190Y-49220380D02*
X61222190Y-48220380D01*
X61603142Y-48220380D01*
X61698380Y-48268000D01*
X61746000Y-48315619D01*
X61793619Y-48410857D01*
X61793619Y-48553714D01*
X61746000Y-48648952D01*
X61698380Y-48696571D01*
X61603142Y-48744190D01*
X61222190Y-48744190D01*
X62222190Y-48696571D02*
X62555523Y-48696571D01*
X62698380Y-49220380D02*
X62222190Y-49220380D01*
X62222190Y-48220380D01*
X62698380Y-48220380D01*
X63079333Y-49172761D02*
X63222190Y-49220380D01*
X63460285Y-49220380D01*
X63555523Y-49172761D01*
X63603142Y-49125142D01*
X63650761Y-49029904D01*
X63650761Y-48934666D01*
X63603142Y-48839428D01*
X63555523Y-48791809D01*
X63460285Y-48744190D01*
X63269809Y-48696571D01*
X63174571Y-48648952D01*
X63126952Y-48601333D01*
X63079333Y-48506095D01*
X63079333Y-48410857D01*
X63126952Y-48315619D01*
X63174571Y-48268000D01*
X63269809Y-48220380D01*
X63507904Y-48220380D01*
X63650761Y-48268000D01*
X64079333Y-48696571D02*
X64412666Y-48696571D01*
X64555523Y-49220380D02*
X64079333Y-49220380D01*
X64079333Y-48220380D01*
X64555523Y-48220380D01*
X64841238Y-48220380D02*
X65412666Y-48220380D01*
X65126952Y-49220380D02*
X65126952Y-48220380D01*
%TO.C,Q2*%
X66198761Y-71159619D02*
X66103523Y-71112000D01*
X66008285Y-71016761D01*
X65865428Y-70873904D01*
X65770190Y-70826285D01*
X65674952Y-70826285D01*
X65722571Y-71064380D02*
X65627333Y-71016761D01*
X65532095Y-70921523D01*
X65484476Y-70731047D01*
X65484476Y-70397714D01*
X65532095Y-70207238D01*
X65627333Y-70112000D01*
X65722571Y-70064380D01*
X65913047Y-70064380D01*
X66008285Y-70112000D01*
X66103523Y-70207238D01*
X66151142Y-70397714D01*
X66151142Y-70731047D01*
X66103523Y-70921523D01*
X66008285Y-71016761D01*
X65913047Y-71064380D01*
X65722571Y-71064380D01*
X66532095Y-70159619D02*
X66579714Y-70112000D01*
X66674952Y-70064380D01*
X66913047Y-70064380D01*
X67008285Y-70112000D01*
X67055904Y-70159619D01*
X67103523Y-70254857D01*
X67103523Y-70350095D01*
X67055904Y-70492952D01*
X66484476Y-71064380D01*
X67103523Y-71064380D01*
%TO.C,C5*%
X58761333Y-82145142D02*
X58713714Y-82192761D01*
X58570857Y-82240380D01*
X58475619Y-82240380D01*
X58332761Y-82192761D01*
X58237523Y-82097523D01*
X58189904Y-82002285D01*
X58142285Y-81811809D01*
X58142285Y-81668952D01*
X58189904Y-81478476D01*
X58237523Y-81383238D01*
X58332761Y-81288000D01*
X58475619Y-81240380D01*
X58570857Y-81240380D01*
X58713714Y-81288000D01*
X58761333Y-81335619D01*
X59666095Y-81240380D02*
X59189904Y-81240380D01*
X59142285Y-81716571D01*
X59189904Y-81668952D01*
X59285142Y-81621333D01*
X59523238Y-81621333D01*
X59618476Y-81668952D01*
X59666095Y-81716571D01*
X59713714Y-81811809D01*
X59713714Y-82049904D01*
X59666095Y-82145142D01*
X59618476Y-82192761D01*
X59523238Y-82240380D01*
X59285142Y-82240380D01*
X59189904Y-82192761D01*
X59142285Y-82145142D01*
%TO.C,C3*%
X30821333Y-88241142D02*
X30773714Y-88288761D01*
X30630857Y-88336380D01*
X30535619Y-88336380D01*
X30392761Y-88288761D01*
X30297523Y-88193523D01*
X30249904Y-88098285D01*
X30202285Y-87907809D01*
X30202285Y-87764952D01*
X30249904Y-87574476D01*
X30297523Y-87479238D01*
X30392761Y-87384000D01*
X30535619Y-87336380D01*
X30630857Y-87336380D01*
X30773714Y-87384000D01*
X30821333Y-87431619D01*
X31154666Y-87336380D02*
X31773714Y-87336380D01*
X31440380Y-87717333D01*
X31583238Y-87717333D01*
X31678476Y-87764952D01*
X31726095Y-87812571D01*
X31773714Y-87907809D01*
X31773714Y-88145904D01*
X31726095Y-88241142D01*
X31678476Y-88288761D01*
X31583238Y-88336380D01*
X31297523Y-88336380D01*
X31202285Y-88288761D01*
X31154666Y-88241142D01*
%TO.C,U1*%
X49022095Y-75698380D02*
X49022095Y-76507904D01*
X49069714Y-76603142D01*
X49117333Y-76650761D01*
X49212571Y-76698380D01*
X49403047Y-76698380D01*
X49498285Y-76650761D01*
X49545904Y-76603142D01*
X49593523Y-76507904D01*
X49593523Y-75698380D01*
X50593523Y-76698380D02*
X50022095Y-76698380D01*
X50307809Y-76698380D02*
X50307809Y-75698380D01*
X50212571Y-75841238D01*
X50117333Y-75936476D01*
X50022095Y-75984095D01*
D11*
%TO.C,J6*%
X64964000Y-85668000D02*
X67624000Y-85668000D01*
X64964000Y-75388000D02*
X66294000Y-75388000D01*
X64964000Y-76718000D02*
X64964000Y-75388000D01*
X64964000Y-77988000D02*
X64964000Y-85668000D01*
X64964000Y-77988000D02*
X67624000Y-77988000D01*
X67624000Y-77988000D02*
X67624000Y-85668000D01*
%TO.C,R3*%
X54758000Y-93945064D02*
X54758000Y-92490936D01*
X52938000Y-93945064D02*
X52938000Y-92490936D01*
%TO.C,J2*%
X60836000Y-93488000D02*
X60836000Y-95488000D01*
X58036000Y-95488000D02*
X58036000Y-93488000D01*
X60836000Y-95488000D02*
X58036000Y-95488000D01*
X58036000Y-93488000D02*
X60836000Y-93488000D01*
%TO.C,U3*%
X52460000Y-62520000D02*
X54220000Y-62520000D01*
X54220000Y-59450000D02*
X51790000Y-59450000D01*
%TO.C,J1*%
X60836000Y-90694000D02*
X60836000Y-92694000D01*
X58036000Y-92694000D02*
X58036000Y-90694000D01*
X60836000Y-92694000D02*
X58036000Y-92694000D01*
X58036000Y-90694000D02*
X60836000Y-90694000D01*
%TO.C,R6*%
X63648000Y-67275064D02*
X63648000Y-65820936D01*
X61828000Y-67275064D02*
X61828000Y-65820936D01*
%TO.C,C13*%
X65328748Y-89810000D02*
X66751252Y-89810000D01*
X65328748Y-87990000D02*
X66751252Y-87990000D01*
%TO.C,R4*%
X59655064Y-88540000D02*
X58200936Y-88540000D01*
X59655064Y-86720000D02*
X58200936Y-86720000D01*
%TO.C,C10*%
X59639252Y-78846000D02*
X58216748Y-78846000D01*
X59639252Y-80666000D02*
X58216748Y-80666000D01*
%TO.C,J3*%
X62937000Y-92650000D02*
X62937000Y-95310000D01*
X65537000Y-92650000D02*
X62937000Y-92650000D01*
X65537000Y-92650000D02*
X65537000Y-95310000D01*
X65537000Y-95310000D02*
X62937000Y-95310000D01*
X68137000Y-92650000D02*
X68137000Y-93980000D01*
X66807000Y-92650000D02*
X68137000Y-92650000D01*
%TO.C,C2*%
X42820000Y-77774748D02*
X42820000Y-79197252D01*
X41000000Y-77774748D02*
X41000000Y-79197252D01*
%TO.C,C6*%
X50948000Y-65836748D02*
X50948000Y-67259252D01*
X49128000Y-65836748D02*
X49128000Y-67259252D01*
D10*
%TO.C,U2*%
X46734000Y-72912000D02*
X27784000Y-72912000D01*
X46734000Y-72162000D02*
X46734000Y-72912000D01*
X27784000Y-55612000D02*
X46734000Y-55612000D01*
X46734000Y-55612000D02*
X46734000Y-56362000D01*
D11*
%TO.C,C9*%
X57806000Y-67259252D02*
X57806000Y-65836748D01*
X55986000Y-67259252D02*
X55986000Y-65836748D01*
%TO.C,R5*%
X59655064Y-76856000D02*
X58200936Y-76856000D01*
X59655064Y-75036000D02*
X58200936Y-75036000D01*
%TO.C,SW2*%
X37580000Y-49498000D02*
X43700000Y-49498000D01*
X37580000Y-53118000D02*
X37580000Y-49498000D01*
X43700000Y-53118000D02*
X37580000Y-53118000D01*
X43700000Y-49498000D02*
X43700000Y-53118000D01*
%TO.C,R9*%
X50144000Y-93945064D02*
X50144000Y-92490936D01*
X51964000Y-93945064D02*
X51964000Y-92490936D01*
%TO.C,R1*%
X51342936Y-53700000D02*
X52797064Y-53700000D01*
X51342936Y-55520000D02*
X52797064Y-55520000D01*
%TO.C,C12*%
X35408700Y-87659000D02*
X35408700Y-85042000D01*
X38169700Y-93950000D02*
X38169700Y-83850000D01*
X35688700Y-92980000D02*
X35688700Y-90141000D01*
X35848700Y-93094000D02*
X35848700Y-90141000D01*
X37848700Y-93904000D02*
X37848700Y-83896000D01*
X34008700Y-90844000D02*
X34008700Y-86956000D01*
X36088700Y-93247000D02*
X36088700Y-90141000D01*
X34488700Y-91730000D02*
X34488700Y-86070000D01*
X37808700Y-93897000D02*
X37808700Y-83903000D01*
X36528700Y-87659000D02*
X36528700Y-84316000D01*
X37048700Y-87659000D02*
X37048700Y-84103000D01*
X36288700Y-93362000D02*
X36288700Y-90141000D01*
X33928700Y-90642000D02*
X33928700Y-87158000D01*
X37448700Y-93818000D02*
X37448700Y-90141000D01*
X38689700Y-93980000D02*
X38689700Y-83820000D01*
X37928700Y-93918000D02*
X37928700Y-83882000D01*
X33688700Y-89762000D02*
X33688700Y-88038000D01*
X35008700Y-87659000D02*
X35008700Y-85422000D01*
X35288700Y-87659000D02*
X35288700Y-85147000D01*
X34168700Y-91189000D02*
X34168700Y-86611000D01*
X36968700Y-93668000D02*
X36968700Y-90141000D01*
X33848700Y-90410000D02*
X33848700Y-87390000D01*
X37168700Y-93737000D02*
X37168700Y-90141000D01*
X37368700Y-93797000D02*
X37368700Y-90141000D01*
X36368700Y-93404000D02*
X36368700Y-90141000D01*
X38449700Y-93973000D02*
X38449700Y-83827000D01*
X36208700Y-93317000D02*
X36208700Y-90141000D01*
X35408700Y-92758000D02*
X35408700Y-90141000D01*
X34528700Y-91789000D02*
X34528700Y-86011000D01*
X35288700Y-92653000D02*
X35288700Y-90141000D01*
X35888700Y-93121000D02*
X35888700Y-90141000D01*
X35448700Y-87659000D02*
X35448700Y-85008000D01*
X35928700Y-87659000D02*
X35928700Y-84653000D01*
X36168700Y-93295000D02*
X36168700Y-90141000D01*
X35528700Y-87659000D02*
X35528700Y-84943000D01*
X35088700Y-87659000D02*
X35088700Y-85339000D01*
X34848700Y-92201000D02*
X34848700Y-85599000D01*
X37328700Y-87659000D02*
X37328700Y-84015000D01*
X35088700Y-92461000D02*
X35088700Y-90141000D01*
X34248700Y-91339000D02*
X34248700Y-86461000D01*
X35648700Y-87659000D02*
X35648700Y-84850000D01*
X37008700Y-87659000D02*
X37008700Y-84117000D01*
X36928700Y-87659000D02*
X36928700Y-84146000D01*
X35248700Y-92616000D02*
X35248700Y-90141000D01*
X37608700Y-93856000D02*
X37608700Y-83944000D01*
X37088700Y-93711000D02*
X37088700Y-90141000D01*
X37888700Y-93911000D02*
X37888700Y-83889000D01*
X35688700Y-87659000D02*
X35688700Y-84820000D01*
X38249700Y-93958000D02*
X38249700Y-83842000D01*
X38289700Y-93962000D02*
X38289700Y-83838000D01*
X38569700Y-93978000D02*
X38569700Y-83822000D01*
X37488700Y-93828000D02*
X37488700Y-83972000D01*
X36488700Y-87659000D02*
X36488700Y-84336000D01*
X36568700Y-87659000D02*
X36568700Y-84297000D01*
X36608700Y-93521000D02*
X36608700Y-90141000D01*
X37168700Y-87659000D02*
X37168700Y-84063000D01*
X35648700Y-92950000D02*
X35648700Y-90141000D01*
X35488700Y-87659000D02*
X35488700Y-84975000D01*
X36808700Y-87659000D02*
X36808700Y-84193000D01*
X35568700Y-92889000D02*
X35568700Y-90141000D01*
X36728700Y-87659000D02*
X36728700Y-84226000D01*
X35608700Y-87659000D02*
X35608700Y-84880000D01*
X35368700Y-92724000D02*
X35368700Y-90141000D01*
X34208700Y-91265000D02*
X34208700Y-86535000D01*
X35968700Y-87659000D02*
X35968700Y-84627000D01*
X37328700Y-93785000D02*
X37328700Y-90141000D01*
X38729700Y-93980000D02*
X38729700Y-83820000D01*
X38409700Y-93970000D02*
X38409700Y-83830000D01*
X33728700Y-89962000D02*
X33728700Y-87838000D01*
X37528700Y-93838000D02*
X37528700Y-83962000D01*
X35608700Y-92920000D02*
X35608700Y-90141000D01*
X37368700Y-87659000D02*
X37368700Y-84003000D01*
X36128700Y-93271000D02*
X36128700Y-90141000D01*
X36168700Y-87659000D02*
X36168700Y-84505000D01*
X36408700Y-93425000D02*
X36408700Y-90141000D01*
X36248700Y-87659000D02*
X36248700Y-84460000D01*
X35808700Y-93066000D02*
X35808700Y-90141000D01*
X35488700Y-92825000D02*
X35488700Y-90141000D01*
X37088700Y-87659000D02*
X37088700Y-84089000D01*
X36448700Y-87659000D02*
X36448700Y-84355000D01*
X37248700Y-93762000D02*
X37248700Y-90141000D01*
X38489700Y-93975000D02*
X38489700Y-83825000D01*
X38089700Y-93940000D02*
X38089700Y-83860000D01*
X37568700Y-93847000D02*
X37568700Y-83953000D01*
X36488700Y-93464000D02*
X36488700Y-90141000D01*
X36768700Y-87659000D02*
X36768700Y-84210000D01*
X34448700Y-91670000D02*
X34448700Y-86130000D01*
X35168700Y-92540000D02*
X35168700Y-90141000D01*
X38209700Y-93954000D02*
X38209700Y-83846000D01*
X38329700Y-93965000D02*
X38329700Y-83835000D01*
X34808700Y-92154000D02*
X34808700Y-85646000D01*
X36048700Y-87659000D02*
X36048700Y-84577000D01*
X36688700Y-87659000D02*
X36688700Y-84243000D01*
X34128700Y-91109000D02*
X34128700Y-86691000D01*
X35328700Y-92689000D02*
X35328700Y-90141000D01*
X37688700Y-93874000D02*
X37688700Y-83926000D01*
X37408700Y-93807000D02*
X37408700Y-90141000D01*
X34088700Y-91025000D02*
X34088700Y-86775000D01*
X35888700Y-87659000D02*
X35888700Y-84679000D01*
X44209346Y-91775000D02*
X43209346Y-91775000D01*
X36968700Y-87659000D02*
X36968700Y-84132000D01*
X36728700Y-93574000D02*
X36728700Y-90141000D01*
X37288700Y-87659000D02*
X37288700Y-84026000D01*
X36368700Y-87659000D02*
X36368700Y-84396000D01*
X36248700Y-93340000D02*
X36248700Y-90141000D01*
X35808700Y-87659000D02*
X35808700Y-84734000D01*
X37448700Y-87659000D02*
X37448700Y-83982000D01*
X34888700Y-92247000D02*
X34888700Y-85553000D01*
X34928700Y-92292000D02*
X34928700Y-85508000D01*
X35728700Y-87659000D02*
X35728700Y-84790000D01*
X35368700Y-87659000D02*
X35368700Y-85076000D01*
X38008700Y-93930000D02*
X38008700Y-83870000D01*
X37048700Y-93697000D02*
X37048700Y-90141000D01*
X36768700Y-93590000D02*
X36768700Y-90141000D01*
X33808700Y-90278000D02*
X33808700Y-87522000D01*
X36888700Y-93638000D02*
X36888700Y-90141000D01*
X36008700Y-87659000D02*
X36008700Y-84602000D01*
X36448700Y-93445000D02*
X36448700Y-90141000D01*
X36088700Y-87659000D02*
X36088700Y-84553000D01*
X38049700Y-93935000D02*
X38049700Y-83865000D01*
X34688700Y-92006000D02*
X34688700Y-85794000D01*
X34968700Y-92336000D02*
X34968700Y-85464000D01*
X35528700Y-92857000D02*
X35528700Y-90141000D01*
X36648700Y-93539000D02*
X36648700Y-90141000D01*
X36288700Y-87659000D02*
X36288700Y-84438000D01*
X38529700Y-93977000D02*
X38529700Y-83823000D01*
X38609700Y-93979000D02*
X38609700Y-83821000D01*
X37288700Y-93774000D02*
X37288700Y-90141000D01*
X33768700Y-90130000D02*
X33768700Y-87670000D01*
X38369700Y-93968000D02*
X38369700Y-83832000D01*
X36408700Y-87659000D02*
X36408700Y-84375000D01*
X35448700Y-92792000D02*
X35448700Y-90141000D01*
X34608700Y-91900000D02*
X34608700Y-85900000D01*
X37128700Y-93724000D02*
X37128700Y-90141000D01*
X37208700Y-87659000D02*
X37208700Y-84050000D01*
X36328700Y-93383000D02*
X36328700Y-90141000D01*
X36648700Y-87659000D02*
X36648700Y-84261000D01*
X33968700Y-90746000D02*
X33968700Y-87054000D01*
X35728700Y-93010000D02*
X35728700Y-90141000D01*
X35248700Y-87659000D02*
X35248700Y-85184000D01*
X37648700Y-93865000D02*
X37648700Y-83935000D01*
X35928700Y-93147000D02*
X35928700Y-90141000D01*
X35848700Y-87659000D02*
X35848700Y-84706000D01*
X36848700Y-93623000D02*
X36848700Y-90141000D01*
X36608700Y-87659000D02*
X36608700Y-84279000D01*
X37008700Y-93683000D02*
X37008700Y-90141000D01*
X37768700Y-93890000D02*
X37768700Y-83910000D01*
X38129700Y-93945000D02*
X38129700Y-83855000D01*
X36328700Y-87659000D02*
X36328700Y-84417000D01*
X35768700Y-87659000D02*
X35768700Y-84762000D01*
X36128700Y-87659000D02*
X36128700Y-84529000D01*
X35328700Y-87659000D02*
X35328700Y-85111000D01*
X36808700Y-93607000D02*
X36808700Y-90141000D01*
X35048700Y-92420000D02*
X35048700Y-90141000D01*
X37248700Y-87659000D02*
X37248700Y-84038000D01*
X36528700Y-93484000D02*
X36528700Y-90141000D01*
X34368700Y-91545000D02*
X34368700Y-86255000D01*
X35208700Y-92579000D02*
X35208700Y-90141000D01*
X35048700Y-87659000D02*
X35048700Y-85380000D01*
X35568700Y-87659000D02*
X35568700Y-84911000D01*
X35968700Y-93173000D02*
X35968700Y-90141000D01*
X43709346Y-92275000D02*
X43709346Y-91275000D01*
X35208700Y-87659000D02*
X35208700Y-85221000D01*
X34288700Y-91410000D02*
X34288700Y-86390000D01*
X36848700Y-87659000D02*
X36848700Y-84177000D01*
X33888700Y-90530000D02*
X33888700Y-87270000D01*
X36888700Y-87659000D02*
X36888700Y-84162000D01*
X37968700Y-93924000D02*
X37968700Y-83876000D01*
X34568700Y-91845000D02*
X34568700Y-85955000D01*
X34728700Y-92056000D02*
X34728700Y-85744000D01*
X35768700Y-93038000D02*
X35768700Y-90141000D01*
X34328700Y-91479000D02*
X34328700Y-86321000D01*
X35128700Y-87659000D02*
X35128700Y-85299000D01*
X37128700Y-87659000D02*
X37128700Y-84076000D01*
X36208700Y-87659000D02*
X36208700Y-84483000D01*
X36688700Y-93557000D02*
X36688700Y-90141000D01*
X37208700Y-93750000D02*
X37208700Y-90141000D01*
X34648700Y-91954000D02*
X34648700Y-85846000D01*
X35168700Y-87659000D02*
X35168700Y-85260000D01*
X34408700Y-91609000D02*
X34408700Y-86191000D01*
X37728700Y-93882000D02*
X37728700Y-83918000D01*
X35128700Y-92501000D02*
X35128700Y-90141000D01*
X35008700Y-92378000D02*
X35008700Y-90141000D01*
X37408700Y-87659000D02*
X37408700Y-83993000D01*
X33648700Y-89499000D02*
X33648700Y-88301000D01*
X36568700Y-93503000D02*
X36568700Y-90141000D01*
X36008700Y-93198000D02*
X36008700Y-90141000D01*
X38649700Y-93980000D02*
X38649700Y-83820000D01*
X34768700Y-92106000D02*
X34768700Y-85694000D01*
X36048700Y-93223000D02*
X36048700Y-90141000D01*
X36928700Y-93654000D02*
X36928700Y-90141000D01*
X34048700Y-90937000D02*
X34048700Y-86863000D01*
X43849700Y-88900000D02*
G75*
G03*
X43849700Y-88900000I-5120000J0D01*
G01*
%TO.C,F1*%
X61502936Y-72792000D02*
X62957064Y-72792000D01*
X61502936Y-70972000D02*
X62957064Y-70972000D01*
%TO.C,Y1*%
X29292000Y-81110000D02*
X29292000Y-78910000D01*
X30942000Y-76810000D02*
X31542000Y-76810000D01*
X30942000Y-75810000D02*
X30942000Y-76810000D01*
X31542000Y-83210000D02*
X30942000Y-83210000D01*
X33192000Y-78910000D02*
X33192000Y-81110000D01*
X29292000Y-78910000D02*
X28442000Y-78910000D01*
%TO.C,C8*%
X59034000Y-65836748D02*
X59034000Y-67259252D01*
X60854000Y-65836748D02*
X60854000Y-67259252D01*
%TO.C,R2*%
X51342936Y-56494000D02*
X52797064Y-56494000D01*
X51342936Y-58314000D02*
X52797064Y-58314000D01*
%TO.C,C1*%
X38206000Y-77774748D02*
X38206000Y-79197252D01*
X40026000Y-77774748D02*
X40026000Y-79197252D01*
%TO.C,C7*%
X52430000Y-65836748D02*
X52430000Y-67259252D01*
X54250000Y-65836748D02*
X54250000Y-67259252D01*
%TO.C,U4*%
X70822000Y-69670000D02*
X70822000Y-69440000D01*
X69682000Y-65180000D02*
X70822000Y-65180000D01*
X70822000Y-64950000D02*
X73542000Y-64950000D01*
X73542000Y-69670000D02*
X70822000Y-69670000D01*
X70822000Y-64950000D02*
X70822000Y-65180000D01*
X73542000Y-68360000D02*
X73542000Y-69670000D01*
X73542000Y-64950000D02*
X73542000Y-66260000D01*
%TO.C,Q1*%
X61720000Y-59380000D02*
X58560000Y-59380000D01*
X61720000Y-59380000D02*
X61720000Y-60310000D01*
X61720000Y-62540000D02*
X61720000Y-61610000D01*
X61720000Y-62540000D02*
X60260000Y-62540000D01*
%TO.C,R8*%
X49170000Y-93945064D02*
X49170000Y-92490936D01*
X47350000Y-93945064D02*
X47350000Y-92490936D01*
%TO.C,R7*%
X52035064Y-72792000D02*
X50580936Y-72792000D01*
X52035064Y-70972000D02*
X50580936Y-70972000D01*
%TO.C,C4*%
X37232000Y-77774748D02*
X37232000Y-79197252D01*
X35412000Y-77774748D02*
X35412000Y-79197252D01*
%TO.C,L1*%
X58557748Y-54932000D02*
X61330252Y-54932000D01*
X58557748Y-58352000D02*
X61330252Y-58352000D01*
%TO.C,C11*%
X55930748Y-72792000D02*
X57353252Y-72792000D01*
X55930748Y-70972000D02*
X57353252Y-70972000D01*
%TO.C,J5*%
X72455000Y-59929000D02*
X69855000Y-59929000D01*
X69855000Y-62529000D02*
X67255000Y-62529000D01*
X69855000Y-59929000D02*
X69855000Y-62529000D01*
X72455000Y-54789000D02*
X67255000Y-54789000D01*
X72455000Y-61199000D02*
X72455000Y-62529000D01*
X67255000Y-62529000D02*
X67255000Y-54789000D01*
X72455000Y-62529000D02*
X71125000Y-62529000D01*
X72455000Y-59929000D02*
X72455000Y-54789000D01*
%TO.C,J4*%
X74990000Y-86614000D02*
X72330000Y-86614000D01*
X74990000Y-86614000D02*
X74990000Y-73854000D01*
X74990000Y-87884000D02*
X74990000Y-89214000D01*
X74990000Y-73854000D02*
X72330000Y-73854000D01*
X72330000Y-86614000D02*
X72330000Y-73854000D01*
X74990000Y-89214000D02*
X73660000Y-89214000D01*
%TO.C,D1*%
X50500000Y-49056000D02*
X50500000Y-49212000D01*
X50500000Y-51372000D02*
X50500000Y-51528000D01*
X51019039Y-51372000D02*
G75*
G03*
X53101130Y-51371837I1040961J1080000D01*
G01*
X53101130Y-49212163D02*
G75*
G03*
X51019039Y-49212000I-1041130J-1079837D01*
G01*
X53732335Y-49213392D02*
G75*
G03*
X50500000Y-49056484I-1672335J-1078608D01*
G01*
X50500000Y-51527516D02*
G75*
G03*
X53732335Y-51370608I1560000J1235516D01*
G01*
%TO.C,SW1*%
X60186000Y-49498000D02*
X66306000Y-49498000D01*
X66306000Y-49498000D02*
X66306000Y-53118000D01*
X60186000Y-53118000D02*
X60186000Y-49498000D01*
X66306000Y-53118000D02*
X60186000Y-53118000D01*
%TO.C,Q2*%
X64714000Y-67816000D02*
X65644000Y-67816000D01*
X67874000Y-67816000D02*
X66944000Y-67816000D01*
X64714000Y-67816000D02*
X64714000Y-66356000D01*
X67874000Y-67816000D02*
X67874000Y-64656000D01*
%TO.C,C5*%
X59639252Y-84476000D02*
X58216748Y-84476000D01*
X59639252Y-82656000D02*
X58216748Y-82656000D01*
%TO.C,C3*%
X30276748Y-86762000D02*
X31699252Y-86762000D01*
X30276748Y-84942000D02*
X31699252Y-84942000D01*
D10*
%TO.C,U1*%
X53409000Y-78671000D02*
X53084000Y-78671000D01*
X46159000Y-85921000D02*
X46159000Y-85596000D01*
X53409000Y-85921000D02*
X53409000Y-85596000D01*
X46159000Y-78671000D02*
X46484000Y-78671000D01*
X46159000Y-78896000D02*
X44734000Y-78896000D01*
X53409000Y-85921000D02*
X53084000Y-85921000D01*
X46159000Y-85921000D02*
X46484000Y-85921000D01*
X46159000Y-78671000D02*
X46159000Y-78896000D01*
X53409000Y-78671000D02*
X53409000Y-78996000D01*
%TD*%
M02*
