%TF.GenerationSoftware,KiCad,Pcbnew,(6.0.7)*%
%TF.CreationDate,2023-04-08T23:37:57+02:00*%
%TF.ProjectId,hb-uni-644_328P_small,68622d75-6e69-42d3-9634-345f33323850,rev?*%
%TF.SameCoordinates,Original*%
%TF.FileFunction,Paste,Top*%
%TF.FilePolarity,Positive*%
%FSLAX46Y46*%
G04 Gerber Fmt 4.6, Leading zero omitted, Abs format (unit mm)*
G04 Created by KiCad (PCBNEW (6.0.7)) date 2023-04-08 23:37:57*
%MOMM*%
%LPD*%
G01*
G04 APERTURE LIST*
G04 Aperture macros list*
%AMRoundRect*
0 Rectangle with rounded corners*
0 $1 Rounding radius*
0 $2 $3 $4 $5 $6 $7 $8 $9 X,Y pos of 4 corners*
0 Add a 4 corners polygon primitive as box body*
4,1,4,$2,$3,$4,$5,$6,$7,$8,$9,$2,$3,0*
0 Add four circle primitives for the rounded corners*
1,1,$1+$1,$2,$3*
1,1,$1+$1,$4,$5*
1,1,$1+$1,$6,$7*
1,1,$1+$1,$8,$9*
0 Add four rect primitives between the rounded corners*
20,1,$1+$1,$2,$3,$4,$5,0*
20,1,$1+$1,$4,$5,$6,$7,0*
20,1,$1+$1,$6,$7,$8,$9,0*
20,1,$1+$1,$8,$9,$2,$3,0*%
%AMFreePoly0*
4,1,9,5.362500,-0.866500,1.237500,-0.866500,1.237500,-0.450000,-1.237500,-0.450000,-1.237500,0.450000,1.237500,0.450000,1.237500,0.866500,5.362500,0.866500,5.362500,-0.866500,5.362500,-0.866500,$1*%
G04 Aperture macros list end*
%ADD10RoundRect,0.250000X0.625000X-0.400000X0.625000X0.400000X-0.625000X0.400000X-0.625000X-0.400000X0*%
%ADD11R,2.000000X0.650000*%
%ADD12RoundRect,0.250000X-0.412500X-0.650000X0.412500X-0.650000X0.412500X0.650000X-0.412500X0.650000X0*%
%ADD13RoundRect,0.250000X0.400000X0.625000X-0.400000X0.625000X-0.400000X-0.625000X0.400000X-0.625000X0*%
%ADD14RoundRect,0.250000X0.412500X0.650000X-0.412500X0.650000X-0.412500X-0.650000X0.412500X-0.650000X0*%
%ADD15RoundRect,0.250000X-0.650000X0.412500X-0.650000X-0.412500X0.650000X-0.412500X0.650000X0.412500X0*%
%ADD16O,1.750000X1.300000*%
%ADD17RoundRect,0.250000X0.650000X-0.412500X0.650000X0.412500X-0.650000X0.412500X-0.650000X-0.412500X0*%
%ADD18R,2.180000X1.600000*%
%ADD19RoundRect,0.250000X-0.400000X-0.625000X0.400000X-0.625000X0.400000X0.625000X-0.400000X0.625000X0*%
%ADD20R,2.100000X2.700000*%
%ADD21R,2.300000X0.900000*%
%ADD22FreePoly0,0.000000*%
%ADD23R,1.900000X0.800000*%
%ADD24RoundRect,0.250000X-0.400000X-1.450000X0.400000X-1.450000X0.400000X1.450000X-0.400000X1.450000X0*%
%ADD25R,0.800000X1.900000*%
%ADD26R,1.600000X0.550000*%
%ADD27R,0.550000X1.600000*%
G04 APERTURE END LIST*
D10*
%TO.C,R3*%
X53848000Y-94768000D03*
X53848000Y-91668000D03*
%TD*%
D11*
%TO.C,U3*%
X51630000Y-60010000D03*
X51630000Y-60960000D03*
X51630000Y-61910000D03*
X55050000Y-61910000D03*
X55050000Y-60010000D03*
%TD*%
D10*
%TO.C,R6*%
X62738000Y-68098000D03*
X62738000Y-64998000D03*
%TD*%
D12*
%TO.C,C13*%
X64477500Y-88900000D03*
X67602500Y-88900000D03*
%TD*%
D13*
%TO.C,R4*%
X60478000Y-87630000D03*
X57378000Y-87630000D03*
%TD*%
D14*
%TO.C,C10*%
X60490500Y-79756000D03*
X57365500Y-79756000D03*
%TD*%
D15*
%TO.C,C2*%
X41910000Y-76923500D03*
X41910000Y-80048500D03*
%TD*%
%TO.C,C6*%
X50038000Y-64985500D03*
X50038000Y-68110500D03*
%TD*%
D16*
%TO.C,U2*%
X46584000Y-71262000D03*
X46584000Y-69262000D03*
X46584000Y-67262000D03*
X46584000Y-65262000D03*
X46584000Y-63262000D03*
X46584000Y-61262000D03*
X46584000Y-59262000D03*
X46584000Y-57262000D03*
%TD*%
D17*
%TO.C,C9*%
X56896000Y-68110500D03*
X56896000Y-64985500D03*
%TD*%
D13*
%TO.C,R5*%
X60478000Y-75946000D03*
X57378000Y-75946000D03*
%TD*%
D18*
%TO.C,SW2*%
X36050000Y-51308000D03*
X45230000Y-51308000D03*
%TD*%
D10*
%TO.C,R9*%
X51054000Y-94768000D03*
X51054000Y-91668000D03*
%TD*%
D19*
%TO.C,R1*%
X50520000Y-54610000D03*
X53620000Y-54610000D03*
%TD*%
%TO.C,F1*%
X60680000Y-71882000D03*
X63780000Y-71882000D03*
%TD*%
D20*
%TO.C,Y1*%
X29692000Y-77360000D03*
X29692000Y-82660000D03*
X32792000Y-82660000D03*
X32792000Y-77360000D03*
%TD*%
D15*
%TO.C,C8*%
X59944000Y-64985500D03*
X59944000Y-68110500D03*
%TD*%
D19*
%TO.C,R2*%
X50520000Y-57404000D03*
X53620000Y-57404000D03*
%TD*%
D15*
%TO.C,C1*%
X39116000Y-76923500D03*
X39116000Y-80048500D03*
%TD*%
%TO.C,C7*%
X53340000Y-64985500D03*
X53340000Y-68110500D03*
%TD*%
D21*
%TO.C,U4*%
X69732000Y-65810000D03*
D22*
X69819500Y-67310000D03*
D21*
X69732000Y-68810000D03*
%TD*%
D23*
%TO.C,Q1*%
X59460000Y-60010000D03*
X59460000Y-61910000D03*
X62460000Y-60960000D03*
%TD*%
D10*
%TO.C,R8*%
X48260000Y-94768000D03*
X48260000Y-91668000D03*
%TD*%
D13*
%TO.C,R7*%
X52858000Y-71882000D03*
X49758000Y-71882000D03*
%TD*%
D15*
%TO.C,C4*%
X36322000Y-76923500D03*
X36322000Y-80048500D03*
%TD*%
D24*
%TO.C,L1*%
X57719000Y-56642000D03*
X62169000Y-56642000D03*
%TD*%
D12*
%TO.C,C11*%
X55079500Y-71882000D03*
X58204500Y-71882000D03*
%TD*%
D18*
%TO.C,SW1*%
X58656000Y-51308000D03*
X67836000Y-51308000D03*
%TD*%
D25*
%TO.C,Q2*%
X67244000Y-65556000D03*
X65344000Y-65556000D03*
X66294000Y-68556000D03*
%TD*%
D14*
%TO.C,C5*%
X60490500Y-83566000D03*
X57365500Y-83566000D03*
%TD*%
D12*
%TO.C,C3*%
X29425500Y-85852000D03*
X32550500Y-85852000D03*
%TD*%
D26*
%TO.C,U1*%
X45534000Y-79496000D03*
X45534000Y-80296000D03*
X45534000Y-81096000D03*
X45534000Y-81896000D03*
X45534000Y-82696000D03*
X45534000Y-83496000D03*
X45534000Y-84296000D03*
X45534000Y-85096000D03*
D27*
X46984000Y-86546000D03*
X47784000Y-86546000D03*
X48584000Y-86546000D03*
X49384000Y-86546000D03*
X50184000Y-86546000D03*
X50984000Y-86546000D03*
X51784000Y-86546000D03*
X52584000Y-86546000D03*
D26*
X54034000Y-85096000D03*
X54034000Y-84296000D03*
X54034000Y-83496000D03*
X54034000Y-82696000D03*
X54034000Y-81896000D03*
X54034000Y-81096000D03*
X54034000Y-80296000D03*
X54034000Y-79496000D03*
D27*
X52584000Y-78046000D03*
X51784000Y-78046000D03*
X50984000Y-78046000D03*
X50184000Y-78046000D03*
X49384000Y-78046000D03*
X48584000Y-78046000D03*
X47784000Y-78046000D03*
X46984000Y-78046000D03*
%TD*%
M02*
